%TF.GenerationSoftware,KiCad,Pcbnew,(6.0.0)*%
%TF.CreationDate,2022-10-06T12:47:50-04:00*%
%TF.ProjectId,ecp5u85-bse-usb_io-tester,65637035-7538-4352-9d62-73652d757362,A*%
%TF.SameCoordinates,Original*%
%TF.FileFunction,Legend,Top*%
%TF.FilePolarity,Positive*%
%FSLAX46Y46*%
G04 Gerber Fmt 4.6, Leading zero omitted, Abs format (unit mm)*
G04 Created by KiCad (PCBNEW (6.0.0)) date 2022-10-06 12:47:50*
%MOMM*%
%LPD*%
G01*
G04 APERTURE LIST*
%ADD10C,0.150000*%
%ADD11C,0.200000*%
%ADD12C,0.220000*%
%ADD13C,0.120000*%
G04 APERTURE END LIST*
D10*
X251714285Y-96452380D02*
X251714285Y-95452380D01*
X252095238Y-95452380D01*
X252190476Y-95500000D01*
X252238095Y-95547619D01*
X252285714Y-95642857D01*
X252285714Y-95785714D01*
X252238095Y-95880952D01*
X252190476Y-95928571D01*
X252095238Y-95976190D01*
X251714285Y-95976190D01*
X252714285Y-96452380D02*
X252714285Y-95452380D01*
X252952380Y-95452380D01*
X253095238Y-95500000D01*
X253190476Y-95595238D01*
X253238095Y-95690476D01*
X253285714Y-95880952D01*
X253285714Y-96023809D01*
X253238095Y-96214285D01*
X253190476Y-96309523D01*
X253095238Y-96404761D01*
X252952380Y-96452380D01*
X252714285Y-96452380D01*
X253714285Y-96452380D02*
X253714285Y-95452380D01*
X253952380Y-96547619D02*
X254714285Y-96547619D01*
X255523809Y-96357142D02*
X255476190Y-96404761D01*
X255333333Y-96452380D01*
X255238095Y-96452380D01*
X255095238Y-96404761D01*
X255000000Y-96309523D01*
X254952380Y-96214285D01*
X254904761Y-96023809D01*
X254904761Y-95880952D01*
X254952380Y-95690476D01*
X255000000Y-95595238D01*
X255095238Y-95500000D01*
X255238095Y-95452380D01*
X255333333Y-95452380D01*
X255476190Y-95500000D01*
X255523809Y-95547619D01*
X256428571Y-96452380D02*
X255952380Y-96452380D01*
X255952380Y-95452380D01*
X256761904Y-96452380D02*
X256761904Y-95452380D01*
X257333333Y-96452380D02*
X256904761Y-95880952D01*
X257333333Y-95452380D02*
X256761904Y-96023809D01*
X250880952Y-91202380D02*
X250880952Y-90202380D01*
X251261904Y-90202380D01*
X251357142Y-90250000D01*
X251404761Y-90297619D01*
X251452380Y-90392857D01*
X251452380Y-90535714D01*
X251404761Y-90630952D01*
X251357142Y-90678571D01*
X251261904Y-90726190D01*
X250880952Y-90726190D01*
X251880952Y-91202380D02*
X251880952Y-90202380D01*
X252119047Y-90202380D01*
X252261904Y-90250000D01*
X252357142Y-90345238D01*
X252404761Y-90440476D01*
X252452380Y-90630952D01*
X252452380Y-90773809D01*
X252404761Y-90964285D01*
X252357142Y-91059523D01*
X252261904Y-91154761D01*
X252119047Y-91202380D01*
X251880952Y-91202380D01*
X252880952Y-91202380D02*
X252880952Y-90202380D01*
X253119047Y-91297619D02*
X253880952Y-91297619D01*
X254119047Y-91202380D02*
X254119047Y-90202380D01*
X254357142Y-90202380D01*
X254500000Y-90250000D01*
X254595238Y-90345238D01*
X254642857Y-90440476D01*
X254690476Y-90630952D01*
X254690476Y-90773809D01*
X254642857Y-90964285D01*
X254595238Y-91059523D01*
X254500000Y-91154761D01*
X254357142Y-91202380D01*
X254119047Y-91202380D01*
X255071428Y-90916666D02*
X255547619Y-90916666D01*
X254976190Y-91202380D02*
X255309523Y-90202380D01*
X255642857Y-91202380D01*
X255833333Y-90202380D02*
X256404761Y-90202380D01*
X256119047Y-91202380D02*
X256119047Y-90202380D01*
X256690476Y-90916666D02*
X257166666Y-90916666D01*
X256595238Y-91202380D02*
X256928571Y-90202380D01*
X257261904Y-91202380D01*
X264738095Y-90250000D02*
X264642857Y-90202380D01*
X264500000Y-90202380D01*
X264357142Y-90250000D01*
X264261904Y-90345238D01*
X264214285Y-90440476D01*
X264166666Y-90630952D01*
X264166666Y-90773809D01*
X264214285Y-90964285D01*
X264261904Y-91059523D01*
X264357142Y-91154761D01*
X264500000Y-91202380D01*
X264595238Y-91202380D01*
X264738095Y-91154761D01*
X264785714Y-91107142D01*
X264785714Y-90773809D01*
X264595238Y-90773809D01*
X265214285Y-91202380D02*
X265214285Y-90202380D01*
X265785714Y-91202380D01*
X265785714Y-90202380D01*
X266261904Y-91202380D02*
X266261904Y-90202380D01*
X266500000Y-90202380D01*
X266642857Y-90250000D01*
X266738095Y-90345238D01*
X266785714Y-90440476D01*
X266833333Y-90630952D01*
X266833333Y-90773809D01*
X266785714Y-90964285D01*
X266738095Y-91059523D01*
X266642857Y-91154761D01*
X266500000Y-91202380D01*
X266261904Y-91202380D01*
X264738095Y-95500000D02*
X264642857Y-95452380D01*
X264500000Y-95452380D01*
X264357142Y-95500000D01*
X264261904Y-95595238D01*
X264214285Y-95690476D01*
X264166666Y-95880952D01*
X264166666Y-96023809D01*
X264214285Y-96214285D01*
X264261904Y-96309523D01*
X264357142Y-96404761D01*
X264500000Y-96452380D01*
X264595238Y-96452380D01*
X264738095Y-96404761D01*
X264785714Y-96357142D01*
X264785714Y-96023809D01*
X264595238Y-96023809D01*
X265214285Y-96452380D02*
X265214285Y-95452380D01*
X265785714Y-96452380D01*
X265785714Y-95452380D01*
X266261904Y-96452380D02*
X266261904Y-95452380D01*
X266500000Y-95452380D01*
X266642857Y-95500000D01*
X266738095Y-95595238D01*
X266785714Y-95690476D01*
X266833333Y-95880952D01*
X266833333Y-96023809D01*
X266785714Y-96214285D01*
X266738095Y-96309523D01*
X266642857Y-96404761D01*
X266500000Y-96452380D01*
X266261904Y-96452380D01*
D11*
X253000000Y-202500000D02*
G75*
G03*
X256000000Y-199500000I-1J3000001D01*
G01*
X253000000Y-202500000D02*
X209000000Y-202500000D01*
X273300000Y-197200000D02*
X292500000Y-197200000D01*
X292500000Y-197200000D02*
X292500000Y-204800000D01*
X292500000Y-204800000D02*
X273300000Y-204800000D01*
X273300000Y-204800000D02*
X273300000Y-197200000D01*
X209000000Y-127500000D02*
G75*
G03*
X206000000Y-130500000I1J-3000001D01*
G01*
X256000000Y-130500000D02*
G75*
G03*
X253000000Y-127500000I-3000001J-1D01*
G01*
X206000000Y-130500000D02*
X206000000Y-199500000D01*
X206000000Y-199500000D02*
G75*
G03*
X209000000Y-202500000I3000001J1D01*
G01*
X209000000Y-127500000D02*
X253000000Y-127500000D01*
X256000000Y-130500000D02*
X256000000Y-199500000D01*
D12*
X274100000Y-199014142D02*
X274500000Y-199014142D01*
X274671428Y-199695095D02*
X274100000Y-199695095D01*
X274100000Y-198395095D01*
X274671428Y-198395095D01*
X275871428Y-199571285D02*
X275814285Y-199633190D01*
X275642857Y-199695095D01*
X275528571Y-199695095D01*
X275357142Y-199633190D01*
X275242857Y-199509380D01*
X275185714Y-199385571D01*
X275128571Y-199137952D01*
X275128571Y-198952238D01*
X275185714Y-198704619D01*
X275242857Y-198580809D01*
X275357142Y-198457000D01*
X275528571Y-198395095D01*
X275642857Y-198395095D01*
X275814285Y-198457000D01*
X275871428Y-198518904D01*
X276385714Y-199695095D02*
X276385714Y-198395095D01*
X276842857Y-198395095D01*
X276957142Y-198457000D01*
X277014285Y-198518904D01*
X277071428Y-198642714D01*
X277071428Y-198828428D01*
X277014285Y-198952238D01*
X276957142Y-199014142D01*
X276842857Y-199076047D01*
X276385714Y-199076047D01*
X278157142Y-198395095D02*
X277585714Y-198395095D01*
X277528571Y-199014142D01*
X277585714Y-198952238D01*
X277700000Y-198890333D01*
X277985714Y-198890333D01*
X278100000Y-198952238D01*
X278157142Y-199014142D01*
X278214285Y-199137952D01*
X278214285Y-199447476D01*
X278157142Y-199571285D01*
X278100000Y-199633190D01*
X277985714Y-199695095D01*
X277700000Y-199695095D01*
X277585714Y-199633190D01*
X277528571Y-199571285D01*
X278728571Y-198395095D02*
X278728571Y-199447476D01*
X278785714Y-199571285D01*
X278842857Y-199633190D01*
X278957142Y-199695095D01*
X279185714Y-199695095D01*
X279300000Y-199633190D01*
X279357142Y-199571285D01*
X279414285Y-199447476D01*
X279414285Y-198395095D01*
X280157142Y-198952238D02*
X280042857Y-198890333D01*
X279985714Y-198828428D01*
X279928571Y-198704619D01*
X279928571Y-198642714D01*
X279985714Y-198518904D01*
X280042857Y-198457000D01*
X280157142Y-198395095D01*
X280385714Y-198395095D01*
X280500000Y-198457000D01*
X280557142Y-198518904D01*
X280614285Y-198642714D01*
X280614285Y-198704619D01*
X280557142Y-198828428D01*
X280500000Y-198890333D01*
X280385714Y-198952238D01*
X280157142Y-198952238D01*
X280042857Y-199014142D01*
X279985714Y-199076047D01*
X279928571Y-199199857D01*
X279928571Y-199447476D01*
X279985714Y-199571285D01*
X280042857Y-199633190D01*
X280157142Y-199695095D01*
X280385714Y-199695095D01*
X280500000Y-199633190D01*
X280557142Y-199571285D01*
X280614285Y-199447476D01*
X280614285Y-199199857D01*
X280557142Y-199076047D01*
X280500000Y-199014142D01*
X280385714Y-198952238D01*
X281700000Y-198395095D02*
X281128571Y-198395095D01*
X281071428Y-199014142D01*
X281128571Y-198952238D01*
X281242857Y-198890333D01*
X281528571Y-198890333D01*
X281642857Y-198952238D01*
X281700000Y-199014142D01*
X281757142Y-199137952D01*
X281757142Y-199447476D01*
X281700000Y-199571285D01*
X281642857Y-199633190D01*
X281528571Y-199695095D01*
X281242857Y-199695095D01*
X281128571Y-199633190D01*
X281071428Y-199571285D01*
X282271428Y-199199857D02*
X283185714Y-199199857D01*
X284157142Y-199014142D02*
X284328571Y-199076047D01*
X284385714Y-199137952D01*
X284442857Y-199261761D01*
X284442857Y-199447476D01*
X284385714Y-199571285D01*
X284328571Y-199633190D01*
X284214285Y-199695095D01*
X283757142Y-199695095D01*
X283757142Y-198395095D01*
X284157142Y-198395095D01*
X284271428Y-198457000D01*
X284328571Y-198518904D01*
X284385714Y-198642714D01*
X284385714Y-198766523D01*
X284328571Y-198890333D01*
X284271428Y-198952238D01*
X284157142Y-199014142D01*
X283757142Y-199014142D01*
X284900000Y-199633190D02*
X285071428Y-199695095D01*
X285357142Y-199695095D01*
X285471428Y-199633190D01*
X285528571Y-199571285D01*
X285585714Y-199447476D01*
X285585714Y-199323666D01*
X285528571Y-199199857D01*
X285471428Y-199137952D01*
X285357142Y-199076047D01*
X285128571Y-199014142D01*
X285014285Y-198952238D01*
X284957142Y-198890333D01*
X284900000Y-198766523D01*
X284900000Y-198642714D01*
X284957142Y-198518904D01*
X285014285Y-198457000D01*
X285128571Y-198395095D01*
X285414285Y-198395095D01*
X285585714Y-198457000D01*
X286100000Y-199014142D02*
X286500000Y-199014142D01*
X286671428Y-199695095D02*
X286100000Y-199695095D01*
X286100000Y-198395095D01*
X286671428Y-198395095D01*
X287185714Y-199199857D02*
X288100000Y-199199857D01*
X288671428Y-198395095D02*
X288671428Y-199447476D01*
X288728571Y-199571285D01*
X288785714Y-199633190D01*
X288900000Y-199695095D01*
X289128571Y-199695095D01*
X289242857Y-199633190D01*
X289300000Y-199571285D01*
X289357142Y-199447476D01*
X289357142Y-198395095D01*
X289871428Y-199633190D02*
X290042857Y-199695095D01*
X290328571Y-199695095D01*
X290442857Y-199633190D01*
X290500000Y-199571285D01*
X290557142Y-199447476D01*
X290557142Y-199323666D01*
X290500000Y-199199857D01*
X290442857Y-199137952D01*
X290328571Y-199076047D01*
X290100000Y-199014142D01*
X289985714Y-198952238D01*
X289928571Y-198890333D01*
X289871428Y-198766523D01*
X289871428Y-198642714D01*
X289928571Y-198518904D01*
X289985714Y-198457000D01*
X290100000Y-198395095D01*
X290385714Y-198395095D01*
X290557142Y-198457000D01*
X291471428Y-199014142D02*
X291642857Y-199076047D01*
X291700000Y-199137952D01*
X291757142Y-199261761D01*
X291757142Y-199447476D01*
X291700000Y-199571285D01*
X291642857Y-199633190D01*
X291528571Y-199695095D01*
X291071428Y-199695095D01*
X291071428Y-198395095D01*
X291471428Y-198395095D01*
X291585714Y-198457000D01*
X291642857Y-198518904D01*
X291700000Y-198642714D01*
X291700000Y-198766523D01*
X291642857Y-198890333D01*
X291585714Y-198952238D01*
X291471428Y-199014142D01*
X291071428Y-199014142D01*
X276957142Y-201788095D02*
X276957142Y-200488095D01*
X277757142Y-200488095D02*
X277985714Y-200488095D01*
X278100000Y-200550000D01*
X278214285Y-200673809D01*
X278271428Y-200921428D01*
X278271428Y-201354761D01*
X278214285Y-201602380D01*
X278100000Y-201726190D01*
X277985714Y-201788095D01*
X277757142Y-201788095D01*
X277642857Y-201726190D01*
X277528571Y-201602380D01*
X277471428Y-201354761D01*
X277471428Y-200921428D01*
X277528571Y-200673809D01*
X277642857Y-200550000D01*
X277757142Y-200488095D01*
X279528571Y-200488095D02*
X280214285Y-200488095D01*
X279871428Y-201788095D02*
X279871428Y-200488095D01*
X281071428Y-201726190D02*
X280957142Y-201788095D01*
X280728571Y-201788095D01*
X280614285Y-201726190D01*
X280557142Y-201602380D01*
X280557142Y-201107142D01*
X280614285Y-200983333D01*
X280728571Y-200921428D01*
X280957142Y-200921428D01*
X281071428Y-200983333D01*
X281128571Y-201107142D01*
X281128571Y-201230952D01*
X280557142Y-201354761D01*
X281585714Y-201726190D02*
X281700000Y-201788095D01*
X281928571Y-201788095D01*
X282042857Y-201726190D01*
X282100000Y-201602380D01*
X282100000Y-201540476D01*
X282042857Y-201416666D01*
X281928571Y-201354761D01*
X281757142Y-201354761D01*
X281642857Y-201292857D01*
X281585714Y-201169047D01*
X281585714Y-201107142D01*
X281642857Y-200983333D01*
X281757142Y-200921428D01*
X281928571Y-200921428D01*
X282042857Y-200983333D01*
X282442857Y-200921428D02*
X282900000Y-200921428D01*
X282614285Y-200488095D02*
X282614285Y-201602380D01*
X282671428Y-201726190D01*
X282785714Y-201788095D01*
X282900000Y-201788095D01*
X284614285Y-201107142D02*
X284785714Y-201169047D01*
X284842857Y-201230952D01*
X284900000Y-201354761D01*
X284900000Y-201540476D01*
X284842857Y-201664285D01*
X284785714Y-201726190D01*
X284671428Y-201788095D01*
X284214285Y-201788095D01*
X284214285Y-200488095D01*
X284614285Y-200488095D01*
X284728571Y-200550000D01*
X284785714Y-200611904D01*
X284842857Y-200735714D01*
X284842857Y-200859523D01*
X284785714Y-200983333D01*
X284728571Y-201045238D01*
X284614285Y-201107142D01*
X284214285Y-201107142D01*
X285585714Y-201788095D02*
X285471428Y-201726190D01*
X285414285Y-201664285D01*
X285357142Y-201540476D01*
X285357142Y-201169047D01*
X285414285Y-201045238D01*
X285471428Y-200983333D01*
X285585714Y-200921428D01*
X285757142Y-200921428D01*
X285871428Y-200983333D01*
X285928571Y-201045238D01*
X285985714Y-201169047D01*
X285985714Y-201540476D01*
X285928571Y-201664285D01*
X285871428Y-201726190D01*
X285757142Y-201788095D01*
X285585714Y-201788095D01*
X287014285Y-201788095D02*
X287014285Y-201107142D01*
X286957142Y-200983333D01*
X286842857Y-200921428D01*
X286614285Y-200921428D01*
X286500000Y-200983333D01*
X287014285Y-201726190D02*
X286900000Y-201788095D01*
X286614285Y-201788095D01*
X286500000Y-201726190D01*
X286442857Y-201602380D01*
X286442857Y-201478571D01*
X286500000Y-201354761D01*
X286614285Y-201292857D01*
X286900000Y-201292857D01*
X287014285Y-201230952D01*
X287585714Y-201788095D02*
X287585714Y-200921428D01*
X287585714Y-201169047D02*
X287642857Y-201045238D01*
X287700000Y-200983333D01*
X287814285Y-200921428D01*
X287928571Y-200921428D01*
X288842857Y-201788095D02*
X288842857Y-200488095D01*
X288842857Y-201726190D02*
X288728571Y-201788095D01*
X288500000Y-201788095D01*
X288385714Y-201726190D01*
X288328571Y-201664285D01*
X288271428Y-201540476D01*
X288271428Y-201169047D01*
X288328571Y-201045238D01*
X288385714Y-200983333D01*
X288500000Y-200921428D01*
X288728571Y-200921428D01*
X288842857Y-200983333D01*
X281042857Y-203881095D02*
X280642857Y-203262047D01*
X280357142Y-203881095D02*
X280357142Y-202581095D01*
X280814285Y-202581095D01*
X280928571Y-202643000D01*
X280985714Y-202704904D01*
X281042857Y-202828714D01*
X281042857Y-203014428D01*
X280985714Y-203138238D01*
X280928571Y-203200142D01*
X280814285Y-203262047D01*
X280357142Y-203262047D01*
X282014285Y-203819190D02*
X281900000Y-203881095D01*
X281671428Y-203881095D01*
X281557142Y-203819190D01*
X281500000Y-203695380D01*
X281500000Y-203200142D01*
X281557142Y-203076333D01*
X281671428Y-203014428D01*
X281900000Y-203014428D01*
X282014285Y-203076333D01*
X282071428Y-203200142D01*
X282071428Y-203323952D01*
X281500000Y-203447761D01*
X282471428Y-203014428D02*
X282757142Y-203881095D01*
X283042857Y-203014428D01*
X283500000Y-203757285D02*
X283557142Y-203819190D01*
X283500000Y-203881095D01*
X283442857Y-203819190D01*
X283500000Y-203757285D01*
X283500000Y-203881095D01*
X284928571Y-203509666D02*
X285500000Y-203509666D01*
X284814285Y-203881095D02*
X285214285Y-202581095D01*
X285614285Y-203881095D01*
D10*
X181250084Y-66475465D02*
X181654145Y-66071404D01*
X182159221Y-66980541D02*
X181452114Y-66273435D01*
X182832656Y-66239763D02*
X182798984Y-66340778D01*
X182664297Y-66475465D01*
X182563282Y-66509137D01*
X182462267Y-66475465D01*
X182192893Y-66206091D01*
X182159221Y-66105076D01*
X182192893Y-66004061D01*
X182327580Y-65869374D01*
X182428595Y-65835702D01*
X182529610Y-65869374D01*
X182596954Y-65936717D01*
X182327580Y-66340778D01*
X183135702Y-65936717D02*
X183236717Y-65903045D01*
X183371404Y-65768358D01*
X183405076Y-65667343D01*
X183371404Y-65566328D01*
X183337732Y-65532656D01*
X183236717Y-65498984D01*
X183135702Y-65532656D01*
X183034687Y-65633671D01*
X182933671Y-65667343D01*
X182832656Y-65633671D01*
X182798984Y-65599999D01*
X182765312Y-65498984D01*
X182798984Y-65397969D01*
X182900000Y-65296954D01*
X183001015Y-65263282D01*
X183203045Y-64993908D02*
X183472419Y-64724534D01*
X183068358Y-64657190D02*
X183674450Y-65263282D01*
X183775465Y-65296954D01*
X183876480Y-65263282D01*
X183943824Y-65195938D01*
X183603739Y-64559542D02*
X183980863Y-64182419D01*
X184304112Y-64990541D01*
X184555554Y-76761904D02*
X184507934Y-76857142D01*
X184507934Y-77000000D01*
X184555554Y-77142857D01*
X184650792Y-77238095D01*
X184746030Y-77285714D01*
X184936506Y-77333333D01*
X185079363Y-77333333D01*
X185269839Y-77285714D01*
X185365077Y-77238095D01*
X185460315Y-77142857D01*
X185507934Y-77000000D01*
X185507934Y-76904761D01*
X185460315Y-76761904D01*
X185412696Y-76714285D01*
X185079363Y-76714285D01*
X185079363Y-76904761D01*
X185507934Y-76285714D02*
X184507934Y-76285714D01*
X185507934Y-75714285D01*
X184507934Y-75714285D01*
X185507934Y-75238095D02*
X184507934Y-75238095D01*
X184507934Y-75000000D01*
X184555554Y-74857142D01*
X184650792Y-74761904D01*
X184746030Y-74714285D01*
X184936506Y-74666666D01*
X185079363Y-74666666D01*
X185269839Y-74714285D01*
X185365077Y-74761904D01*
X185460315Y-74857142D01*
X185507934Y-75000000D01*
X185507934Y-75238095D01*
X197259254Y-76761904D02*
X197211634Y-76857142D01*
X197211634Y-77000000D01*
X197259254Y-77142857D01*
X197354492Y-77238095D01*
X197449730Y-77285714D01*
X197640206Y-77333333D01*
X197783063Y-77333333D01*
X197973539Y-77285714D01*
X198068777Y-77238095D01*
X198164015Y-77142857D01*
X198211634Y-77000000D01*
X198211634Y-76904761D01*
X198164015Y-76761904D01*
X198116396Y-76714285D01*
X197783063Y-76714285D01*
X197783063Y-76904761D01*
X198211634Y-76285714D02*
X197211634Y-76285714D01*
X198211634Y-75714285D01*
X197211634Y-75714285D01*
X198211634Y-75238095D02*
X197211634Y-75238095D01*
X197211634Y-75000000D01*
X197259254Y-74857142D01*
X197354492Y-74761904D01*
X197449730Y-74714285D01*
X197640206Y-74666666D01*
X197783063Y-74666666D01*
X197973539Y-74714285D01*
X198068777Y-74761904D01*
X198164015Y-74857142D01*
X198211634Y-75000000D01*
X198211634Y-75238095D01*
X193916749Y-66475465D02*
X194320810Y-66071404D01*
X194825886Y-66980541D02*
X194118779Y-66273435D01*
X195499321Y-66239763D02*
X195465649Y-66340778D01*
X195330962Y-66475465D01*
X195229947Y-66509137D01*
X195128932Y-66475465D01*
X194859558Y-66206091D01*
X194825886Y-66105076D01*
X194859558Y-66004061D01*
X194994245Y-65869374D01*
X195095260Y-65835702D01*
X195196275Y-65869374D01*
X195263619Y-65936717D01*
X194994245Y-66340778D01*
X195802367Y-65936717D02*
X195903382Y-65903045D01*
X196038069Y-65768358D01*
X196071741Y-65667343D01*
X196038069Y-65566328D01*
X196004397Y-65532656D01*
X195903382Y-65498984D01*
X195802367Y-65532656D01*
X195701352Y-65633671D01*
X195600336Y-65667343D01*
X195499321Y-65633671D01*
X195465649Y-65599999D01*
X195431977Y-65498984D01*
X195465649Y-65397969D01*
X195566665Y-65296954D01*
X195667680Y-65263282D01*
X195869710Y-64993908D02*
X196139084Y-64724534D01*
X195735023Y-64657190D02*
X196341115Y-65263282D01*
X196442130Y-65296954D01*
X196543145Y-65263282D01*
X196610489Y-65195938D01*
X196351216Y-64586480D02*
X196351216Y-64532605D01*
X196378154Y-64451793D01*
X196512841Y-64317106D01*
X196593653Y-64290168D01*
X196647528Y-64290168D01*
X196728340Y-64317106D01*
X196782215Y-64370981D01*
X196836090Y-64478730D01*
X196836090Y-65125228D01*
X197186276Y-64775042D01*
X187096294Y-76761904D02*
X187048674Y-76857142D01*
X187048674Y-77000000D01*
X187096294Y-77142857D01*
X187191532Y-77238095D01*
X187286770Y-77285714D01*
X187477246Y-77333333D01*
X187620103Y-77333333D01*
X187810579Y-77285714D01*
X187905817Y-77238095D01*
X188001055Y-77142857D01*
X188048674Y-77000000D01*
X188048674Y-76904761D01*
X188001055Y-76761904D01*
X187953436Y-76714285D01*
X187620103Y-76714285D01*
X187620103Y-76904761D01*
X188048674Y-76285714D02*
X187048674Y-76285714D01*
X188048674Y-75714285D01*
X187048674Y-75714285D01*
X188048674Y-75238095D02*
X187048674Y-75238095D01*
X187048674Y-75000000D01*
X187096294Y-74857142D01*
X187191532Y-74761904D01*
X187286770Y-74714285D01*
X187477246Y-74666666D01*
X187620103Y-74666666D01*
X187810579Y-74714285D01*
X187905817Y-74761904D01*
X188001055Y-74857142D01*
X188048674Y-75000000D01*
X188048674Y-75238095D01*
D11*
X258535714Y-88178571D02*
X258535714Y-86678571D01*
X259107142Y-86678571D01*
X259250000Y-86750000D01*
X259321428Y-86821428D01*
X259392857Y-86964285D01*
X259392857Y-87178571D01*
X259321428Y-87321428D01*
X259250000Y-87392857D01*
X259107142Y-87464285D01*
X258535714Y-87464285D01*
X260035714Y-88178571D02*
X260035714Y-87178571D01*
X260035714Y-87464285D02*
X260107142Y-87321428D01*
X260178571Y-87250000D01*
X260321428Y-87178571D01*
X260464285Y-87178571D01*
X261178571Y-88178571D02*
X261035714Y-88107142D01*
X260964285Y-88035714D01*
X260892857Y-87892857D01*
X260892857Y-87464285D01*
X260964285Y-87321428D01*
X261035714Y-87250000D01*
X261178571Y-87178571D01*
X261392857Y-87178571D01*
X261535714Y-87250000D01*
X261607142Y-87321428D01*
X261678571Y-87464285D01*
X261678571Y-87892857D01*
X261607142Y-88035714D01*
X261535714Y-88107142D01*
X261392857Y-88178571D01*
X261178571Y-88178571D01*
X262964285Y-87178571D02*
X262964285Y-88392857D01*
X262892857Y-88535714D01*
X262821428Y-88607142D01*
X262678571Y-88678571D01*
X262464285Y-88678571D01*
X262321428Y-88607142D01*
X262964285Y-88107142D02*
X262821428Y-88178571D01*
X262535714Y-88178571D01*
X262392857Y-88107142D01*
X262321428Y-88035714D01*
X262250000Y-87892857D01*
X262250000Y-87464285D01*
X262321428Y-87321428D01*
X262392857Y-87250000D01*
X262535714Y-87178571D01*
X262821428Y-87178571D01*
X262964285Y-87250000D01*
D10*
X194718514Y-76761904D02*
X194670894Y-76857142D01*
X194670894Y-77000000D01*
X194718514Y-77142857D01*
X194813752Y-77238095D01*
X194908990Y-77285714D01*
X195099466Y-77333333D01*
X195242323Y-77333333D01*
X195432799Y-77285714D01*
X195528037Y-77238095D01*
X195623275Y-77142857D01*
X195670894Y-77000000D01*
X195670894Y-76904761D01*
X195623275Y-76761904D01*
X195575656Y-76714285D01*
X195242323Y-76714285D01*
X195242323Y-76904761D01*
X195670894Y-76285714D02*
X194670894Y-76285714D01*
X195670894Y-75714285D01*
X194670894Y-75714285D01*
X195670894Y-75238095D02*
X194670894Y-75238095D01*
X194670894Y-75000000D01*
X194718514Y-74857142D01*
X194813752Y-74761904D01*
X194908990Y-74714285D01*
X195099466Y-74666666D01*
X195242323Y-74666666D01*
X195432799Y-74714285D01*
X195528037Y-74761904D01*
X195623275Y-74857142D01*
X195670894Y-75000000D01*
X195670894Y-75238095D01*
X192177774Y-76761904D02*
X192130154Y-76857142D01*
X192130154Y-77000000D01*
X192177774Y-77142857D01*
X192273012Y-77238095D01*
X192368250Y-77285714D01*
X192558726Y-77333333D01*
X192701583Y-77333333D01*
X192892059Y-77285714D01*
X192987297Y-77238095D01*
X193082535Y-77142857D01*
X193130154Y-77000000D01*
X193130154Y-76904761D01*
X193082535Y-76761904D01*
X193034916Y-76714285D01*
X192701583Y-76714285D01*
X192701583Y-76904761D01*
X193130154Y-76285714D02*
X192130154Y-76285714D01*
X193130154Y-75714285D01*
X192130154Y-75714285D01*
X193130154Y-75238095D02*
X192130154Y-75238095D01*
X192130154Y-75000000D01*
X192177774Y-74857142D01*
X192273012Y-74761904D01*
X192368250Y-74714285D01*
X192558726Y-74666666D01*
X192701583Y-74666666D01*
X192892059Y-74714285D01*
X192987297Y-74761904D01*
X193082535Y-74857142D01*
X193130154Y-75000000D01*
X193130154Y-75238095D01*
D11*
X250814285Y-83078571D02*
X250100000Y-83078571D01*
X250028571Y-83792857D01*
X250100000Y-83721428D01*
X250242857Y-83650000D01*
X250600000Y-83650000D01*
X250742857Y-83721428D01*
X250814285Y-83792857D01*
X250885714Y-83935714D01*
X250885714Y-84292857D01*
X250814285Y-84435714D01*
X250742857Y-84507142D01*
X250600000Y-84578571D01*
X250242857Y-84578571D01*
X250100000Y-84507142D01*
X250028571Y-84435714D01*
X251314285Y-83078571D02*
X251814285Y-84578571D01*
X252314285Y-83078571D01*
D10*
X198983418Y-66475465D02*
X199387479Y-66071404D01*
X199892555Y-66980541D02*
X199185448Y-66273435D01*
X200565990Y-66239763D02*
X200532318Y-66340778D01*
X200397631Y-66475465D01*
X200296616Y-66509137D01*
X200195601Y-66475465D01*
X199926227Y-66206091D01*
X199892555Y-66105076D01*
X199926227Y-66004061D01*
X200060914Y-65869374D01*
X200161929Y-65835702D01*
X200262944Y-65869374D01*
X200330288Y-65936717D01*
X200060914Y-66340778D01*
X200869036Y-65936717D02*
X200970051Y-65903045D01*
X201104738Y-65768358D01*
X201138410Y-65667343D01*
X201104738Y-65566328D01*
X201071066Y-65532656D01*
X200970051Y-65498984D01*
X200869036Y-65532656D01*
X200768021Y-65633671D01*
X200667005Y-65667343D01*
X200565990Y-65633671D01*
X200532318Y-65599999D01*
X200498646Y-65498984D01*
X200532318Y-65397969D01*
X200633334Y-65296954D01*
X200734349Y-65263282D01*
X200936379Y-64993908D02*
X201205753Y-64724534D01*
X200801692Y-64657190D02*
X201407784Y-65263282D01*
X201508799Y-65296954D01*
X201609814Y-65263282D01*
X201677158Y-65195938D01*
X201498698Y-64397918D02*
X201552572Y-64344043D01*
X201633385Y-64317106D01*
X201687259Y-64317106D01*
X201768072Y-64344043D01*
X201902759Y-64424855D01*
X202037446Y-64559542D01*
X202118258Y-64694229D01*
X202145195Y-64775042D01*
X202145195Y-64828916D01*
X202118258Y-64909729D01*
X202064383Y-64963603D01*
X201983571Y-64990541D01*
X201929696Y-64990541D01*
X201848884Y-64963603D01*
X201714197Y-64882791D01*
X201579510Y-64748104D01*
X201498698Y-64613417D01*
X201471760Y-64532605D01*
X201471760Y-64478730D01*
X201498698Y-64397918D01*
X178584398Y-66541150D02*
X178988459Y-66137089D01*
X179493536Y-67046227D02*
X178786429Y-66339120D01*
X180166971Y-66305448D02*
X180133299Y-66406463D01*
X179998612Y-66541150D01*
X179897597Y-66574822D01*
X179796581Y-66541150D01*
X179527207Y-66271776D01*
X179493536Y-66170761D01*
X179527207Y-66069746D01*
X179661894Y-65935059D01*
X179762910Y-65901387D01*
X179863925Y-65935059D01*
X179931268Y-66002402D01*
X179661894Y-66406463D01*
X180470016Y-66002402D02*
X180571032Y-65968731D01*
X180705719Y-65834044D01*
X180739390Y-65733028D01*
X180705719Y-65632013D01*
X180672047Y-65598341D01*
X180571032Y-65564670D01*
X180470016Y-65598341D01*
X180369001Y-65699357D01*
X180267986Y-65733028D01*
X180166971Y-65699357D01*
X180133299Y-65665685D01*
X180099627Y-65564670D01*
X180133299Y-65463654D01*
X180234314Y-65362639D01*
X180335329Y-65328967D01*
X180537360Y-65059593D02*
X180806734Y-64790219D01*
X180402673Y-64722876D02*
X181008764Y-65328967D01*
X181109780Y-65362639D01*
X181210795Y-65328967D01*
X181278138Y-65261624D01*
X181557614Y-65137038D02*
X180991928Y-64571353D01*
X181207428Y-64355854D01*
X181288240Y-64328916D01*
X181342115Y-64328916D01*
X181422927Y-64355854D01*
X181503739Y-64436666D01*
X181530677Y-64517478D01*
X181530677Y-64571353D01*
X181503739Y-64652165D01*
X181288240Y-64867664D01*
X182204112Y-64490541D02*
X182123299Y-64517478D01*
X182069425Y-64517478D01*
X181988612Y-64490541D01*
X181826988Y-64328916D01*
X181800051Y-64248104D01*
X181800051Y-64194229D01*
X181826988Y-64113417D01*
X181907800Y-64032605D01*
X181988612Y-64005668D01*
X182042487Y-64005668D01*
X182123299Y-64032605D01*
X182284924Y-64194229D01*
X182311861Y-64275042D01*
X182311861Y-64328916D01*
X182284924Y-64409729D01*
X182204112Y-64490541D01*
X182204112Y-63736294D02*
X182688985Y-64005668D01*
X182527360Y-63628544D01*
X182904484Y-63790168D01*
X182635110Y-63305295D01*
D11*
X256214285Y-67778571D02*
X255500000Y-67778571D01*
X255428571Y-68492857D01*
X255500000Y-68421428D01*
X255642857Y-68350000D01*
X256000000Y-68350000D01*
X256142857Y-68421428D01*
X256214285Y-68492857D01*
X256285714Y-68635714D01*
X256285714Y-68992857D01*
X256214285Y-69135714D01*
X256142857Y-69207142D01*
X256000000Y-69278571D01*
X255642857Y-69278571D01*
X255500000Y-69207142D01*
X255428571Y-69135714D01*
X256714285Y-67778571D02*
X257214285Y-69278571D01*
X257714285Y-67778571D01*
D10*
X183783417Y-66475465D02*
X184187478Y-66071404D01*
X184692554Y-66980541D02*
X183985447Y-66273435D01*
X185365989Y-66239763D02*
X185332317Y-66340778D01*
X185197630Y-66475465D01*
X185096615Y-66509137D01*
X184995600Y-66475465D01*
X184726226Y-66206091D01*
X184692554Y-66105076D01*
X184726226Y-66004061D01*
X184860913Y-65869374D01*
X184961928Y-65835702D01*
X185062943Y-65869374D01*
X185130287Y-65936717D01*
X184860913Y-66340778D01*
X185669035Y-65936717D02*
X185770050Y-65903045D01*
X185904737Y-65768358D01*
X185938409Y-65667343D01*
X185904737Y-65566328D01*
X185871065Y-65532656D01*
X185770050Y-65498984D01*
X185669035Y-65532656D01*
X185568020Y-65633671D01*
X185467004Y-65667343D01*
X185365989Y-65633671D01*
X185332317Y-65599999D01*
X185298645Y-65498984D01*
X185332317Y-65397969D01*
X185433333Y-65296954D01*
X185534348Y-65263282D01*
X185736378Y-64993908D02*
X186005752Y-64724534D01*
X185601691Y-64657190D02*
X186207783Y-65263282D01*
X186308798Y-65296954D01*
X186409813Y-65263282D01*
X186477157Y-65195938D01*
X186433384Y-64263231D02*
X186325634Y-64370981D01*
X186298697Y-64451793D01*
X186298697Y-64505668D01*
X186325634Y-64640355D01*
X186406446Y-64775042D01*
X186621945Y-64990541D01*
X186702758Y-65017478D01*
X186756632Y-65017478D01*
X186837445Y-64990541D01*
X186945194Y-64882791D01*
X186972132Y-64801979D01*
X186972132Y-64748104D01*
X186945194Y-64667292D01*
X186810507Y-64532605D01*
X186729695Y-64505668D01*
X186675820Y-64505668D01*
X186595008Y-64532605D01*
X186487258Y-64640355D01*
X186460321Y-64721167D01*
X186460321Y-64775042D01*
X186487258Y-64855854D01*
X189637034Y-76761904D02*
X189589414Y-76857142D01*
X189589414Y-77000000D01*
X189637034Y-77142857D01*
X189732272Y-77238095D01*
X189827510Y-77285714D01*
X190017986Y-77333333D01*
X190160843Y-77333333D01*
X190351319Y-77285714D01*
X190446557Y-77238095D01*
X190541795Y-77142857D01*
X190589414Y-77000000D01*
X190589414Y-76904761D01*
X190541795Y-76761904D01*
X190494176Y-76714285D01*
X190160843Y-76714285D01*
X190160843Y-76904761D01*
X190589414Y-76285714D02*
X189589414Y-76285714D01*
X190589414Y-75714285D01*
X189589414Y-75714285D01*
X190589414Y-75238095D02*
X189589414Y-75238095D01*
X189589414Y-75000000D01*
X189637034Y-74857142D01*
X189732272Y-74761904D01*
X189827510Y-74714285D01*
X190017986Y-74666666D01*
X190160843Y-74666666D01*
X190351319Y-74714285D01*
X190446557Y-74761904D01*
X190541795Y-74857142D01*
X190589414Y-75000000D01*
X190589414Y-75238095D01*
D11*
X269585714Y-68078571D02*
X270514285Y-68078571D01*
X270014285Y-68650000D01*
X270228571Y-68650000D01*
X270371428Y-68721428D01*
X270442857Y-68792857D01*
X270514285Y-68935714D01*
X270514285Y-69292857D01*
X270442857Y-69435714D01*
X270371428Y-69507142D01*
X270228571Y-69578571D01*
X269800000Y-69578571D01*
X269657142Y-69507142D01*
X269585714Y-69435714D01*
X271157142Y-69435714D02*
X271228571Y-69507142D01*
X271157142Y-69578571D01*
X271085714Y-69507142D01*
X271157142Y-69435714D01*
X271157142Y-69578571D01*
X271728571Y-68078571D02*
X272657142Y-68078571D01*
X272157142Y-68650000D01*
X272371428Y-68650000D01*
X272514285Y-68721428D01*
X272585714Y-68792857D01*
X272657142Y-68935714D01*
X272657142Y-69292857D01*
X272585714Y-69435714D01*
X272514285Y-69507142D01*
X272371428Y-69578571D01*
X271942857Y-69578571D01*
X271800000Y-69507142D01*
X271728571Y-69435714D01*
X273085714Y-68078571D02*
X273585714Y-69578571D01*
X274085714Y-68078571D01*
D10*
X176933334Y-76761904D02*
X176885714Y-76857142D01*
X176885714Y-77000000D01*
X176933334Y-77142857D01*
X177028572Y-77238095D01*
X177123810Y-77285714D01*
X177314286Y-77333333D01*
X177457143Y-77333333D01*
X177647619Y-77285714D01*
X177742857Y-77238095D01*
X177838095Y-77142857D01*
X177885714Y-77000000D01*
X177885714Y-76904761D01*
X177838095Y-76761904D01*
X177790476Y-76714285D01*
X177457143Y-76714285D01*
X177457143Y-76904761D01*
X177885714Y-76285714D02*
X176885714Y-76285714D01*
X177885714Y-75714285D01*
X176885714Y-75714285D01*
X177885714Y-75238095D02*
X176885714Y-75238095D01*
X176885714Y-75000000D01*
X176933334Y-74857142D01*
X177028572Y-74761904D01*
X177123810Y-74714285D01*
X177314286Y-74666666D01*
X177457143Y-74666666D01*
X177647619Y-74714285D01*
X177742857Y-74761904D01*
X177838095Y-74857142D01*
X177885714Y-75000000D01*
X177885714Y-75238095D01*
X179474074Y-76761904D02*
X179426454Y-76857142D01*
X179426454Y-77000000D01*
X179474074Y-77142857D01*
X179569312Y-77238095D01*
X179664550Y-77285714D01*
X179855026Y-77333333D01*
X179997883Y-77333333D01*
X180188359Y-77285714D01*
X180283597Y-77238095D01*
X180378835Y-77142857D01*
X180426454Y-77000000D01*
X180426454Y-76904761D01*
X180378835Y-76761904D01*
X180331216Y-76714285D01*
X179997883Y-76714285D01*
X179997883Y-76904761D01*
X180426454Y-76285714D02*
X179426454Y-76285714D01*
X180426454Y-75714285D01*
X179426454Y-75714285D01*
X180426454Y-75238095D02*
X179426454Y-75238095D01*
X179426454Y-75000000D01*
X179474074Y-74857142D01*
X179569312Y-74761904D01*
X179664550Y-74714285D01*
X179855026Y-74666666D01*
X179997883Y-74666666D01*
X180188359Y-74714285D01*
X180283597Y-74761904D01*
X180378835Y-74857142D01*
X180426454Y-75000000D01*
X180426454Y-75238095D01*
X182014814Y-76761904D02*
X181967194Y-76857142D01*
X181967194Y-77000000D01*
X182014814Y-77142857D01*
X182110052Y-77238095D01*
X182205290Y-77285714D01*
X182395766Y-77333333D01*
X182538623Y-77333333D01*
X182729099Y-77285714D01*
X182824337Y-77238095D01*
X182919575Y-77142857D01*
X182967194Y-77000000D01*
X182967194Y-76904761D01*
X182919575Y-76761904D01*
X182871956Y-76714285D01*
X182538623Y-76714285D01*
X182538623Y-76904761D01*
X182967194Y-76285714D02*
X181967194Y-76285714D01*
X182967194Y-75714285D01*
X181967194Y-75714285D01*
X182967194Y-75238095D02*
X181967194Y-75238095D01*
X181967194Y-75000000D01*
X182014814Y-74857142D01*
X182110052Y-74761904D01*
X182205290Y-74714285D01*
X182395766Y-74666666D01*
X182538623Y-74666666D01*
X182729099Y-74714285D01*
X182824337Y-74761904D01*
X182919575Y-74857142D01*
X182967194Y-75000000D01*
X182967194Y-75238095D01*
X186316750Y-66475465D02*
X186720811Y-66071404D01*
X187225887Y-66980541D02*
X186518780Y-66273435D01*
X187899322Y-66239763D02*
X187865650Y-66340778D01*
X187730963Y-66475465D01*
X187629948Y-66509137D01*
X187528933Y-66475465D01*
X187259559Y-66206091D01*
X187225887Y-66105076D01*
X187259559Y-66004061D01*
X187394246Y-65869374D01*
X187495261Y-65835702D01*
X187596276Y-65869374D01*
X187663620Y-65936717D01*
X187394246Y-66340778D01*
X188202368Y-65936717D02*
X188303383Y-65903045D01*
X188438070Y-65768358D01*
X188471742Y-65667343D01*
X188438070Y-65566328D01*
X188404398Y-65532656D01*
X188303383Y-65498984D01*
X188202368Y-65532656D01*
X188101353Y-65633671D01*
X188000337Y-65667343D01*
X187899322Y-65633671D01*
X187865650Y-65599999D01*
X187831978Y-65498984D01*
X187865650Y-65397969D01*
X187966666Y-65296954D01*
X188067681Y-65263282D01*
X188269711Y-64993908D02*
X188539085Y-64724534D01*
X188135024Y-64657190D02*
X188741116Y-65263282D01*
X188842131Y-65296954D01*
X188943146Y-65263282D01*
X189010490Y-65195938D01*
X188993654Y-64236294D02*
X188724280Y-64505668D01*
X188966717Y-64801979D01*
X188966717Y-64748104D01*
X188993654Y-64667292D01*
X189128341Y-64532605D01*
X189209153Y-64505668D01*
X189263028Y-64505668D01*
X189343840Y-64532605D01*
X189478527Y-64667292D01*
X189505465Y-64748104D01*
X189505465Y-64801979D01*
X189478527Y-64882791D01*
X189343840Y-65017478D01*
X189263028Y-65044416D01*
X189209153Y-65044416D01*
D11*
X237607142Y-95778571D02*
X237607142Y-94278571D01*
X237964285Y-94278571D01*
X238178571Y-94350000D01*
X238321428Y-94492857D01*
X238392857Y-94635714D01*
X238464285Y-94921428D01*
X238464285Y-95135714D01*
X238392857Y-95421428D01*
X238321428Y-95564285D01*
X238178571Y-95707142D01*
X237964285Y-95778571D01*
X237607142Y-95778571D01*
X239321428Y-95778571D02*
X239178571Y-95707142D01*
X239107142Y-95635714D01*
X239035714Y-95492857D01*
X239035714Y-95064285D01*
X239107142Y-94921428D01*
X239178571Y-94850000D01*
X239321428Y-94778571D01*
X239535714Y-94778571D01*
X239678571Y-94850000D01*
X239750000Y-94921428D01*
X239821428Y-95064285D01*
X239821428Y-95492857D01*
X239750000Y-95635714D01*
X239678571Y-95707142D01*
X239535714Y-95778571D01*
X239321428Y-95778571D01*
X240464285Y-94778571D02*
X240464285Y-95778571D01*
X240464285Y-94921428D02*
X240535714Y-94850000D01*
X240678571Y-94778571D01*
X240892857Y-94778571D01*
X241035714Y-94850000D01*
X241107142Y-94992857D01*
X241107142Y-95778571D01*
X242392857Y-95707142D02*
X242250000Y-95778571D01*
X241964285Y-95778571D01*
X241821428Y-95707142D01*
X241750000Y-95564285D01*
X241750000Y-94992857D01*
X241821428Y-94850000D01*
X241964285Y-94778571D01*
X242250000Y-94778571D01*
X242392857Y-94850000D01*
X242464285Y-94992857D01*
X242464285Y-95135714D01*
X241750000Y-95278571D01*
D10*
X175792825Y-66566057D02*
X176196886Y-66161996D01*
X176701963Y-67071134D02*
X175994856Y-66364027D01*
X177375398Y-66330355D02*
X177341726Y-66431370D01*
X177207039Y-66566057D01*
X177106024Y-66599729D01*
X177005008Y-66566057D01*
X176735634Y-66296683D01*
X176701963Y-66195668D01*
X176735634Y-66094653D01*
X176870321Y-65959966D01*
X176971337Y-65926294D01*
X177072352Y-65959966D01*
X177139695Y-66027309D01*
X176870321Y-66431370D01*
X177678443Y-66027309D02*
X177779459Y-65993638D01*
X177914146Y-65858951D01*
X177947817Y-65757935D01*
X177914146Y-65656920D01*
X177880474Y-65623248D01*
X177779459Y-65589577D01*
X177678443Y-65623248D01*
X177577428Y-65724264D01*
X177476413Y-65757935D01*
X177375398Y-65724264D01*
X177341726Y-65690592D01*
X177308054Y-65589577D01*
X177341726Y-65488561D01*
X177442741Y-65387546D01*
X177543756Y-65353874D01*
X177745787Y-65084500D02*
X178015161Y-64815126D01*
X177611100Y-64747783D02*
X178217191Y-65353874D01*
X178318207Y-65387546D01*
X178419222Y-65353874D01*
X178486565Y-65286531D01*
X179035415Y-64784822D02*
X179035415Y-64838697D01*
X178981540Y-64946446D01*
X178927665Y-65000321D01*
X178819916Y-65054196D01*
X178712166Y-65054196D01*
X178631354Y-65027258D01*
X178496667Y-64946446D01*
X178415855Y-64865634D01*
X178335043Y-64730947D01*
X178308105Y-64650135D01*
X178308105Y-64542385D01*
X178361980Y-64434635D01*
X178415855Y-64380761D01*
X178523604Y-64326886D01*
X178577479Y-64326886D01*
X179412539Y-64515448D02*
X179331726Y-64542385D01*
X179250914Y-64515448D01*
X178766041Y-64030574D01*
X179628038Y-64299948D02*
X179062352Y-63734263D01*
X179466413Y-64030574D02*
X179843537Y-64084449D01*
X179466413Y-63707326D02*
X179466413Y-64138324D01*
X191383416Y-66475465D02*
X191787477Y-66071404D01*
X192292553Y-66980541D02*
X191585446Y-66273435D01*
X192965988Y-66239763D02*
X192932316Y-66340778D01*
X192797629Y-66475465D01*
X192696614Y-66509137D01*
X192595599Y-66475465D01*
X192326225Y-66206091D01*
X192292553Y-66105076D01*
X192326225Y-66004061D01*
X192460912Y-65869374D01*
X192561927Y-65835702D01*
X192662942Y-65869374D01*
X192730286Y-65936717D01*
X192460912Y-66340778D01*
X193269034Y-65936717D02*
X193370049Y-65903045D01*
X193504736Y-65768358D01*
X193538408Y-65667343D01*
X193504736Y-65566328D01*
X193471064Y-65532656D01*
X193370049Y-65498984D01*
X193269034Y-65532656D01*
X193168019Y-65633671D01*
X193067003Y-65667343D01*
X192965988Y-65633671D01*
X192932316Y-65599999D01*
X192898644Y-65498984D01*
X192932316Y-65397969D01*
X193033332Y-65296954D01*
X193134347Y-65263282D01*
X193336377Y-64993908D02*
X193605751Y-64724534D01*
X193201690Y-64657190D02*
X193807782Y-65263282D01*
X193908797Y-65296954D01*
X194009812Y-65263282D01*
X194077156Y-65195938D01*
X193737071Y-64559542D02*
X194087257Y-64209356D01*
X194114195Y-64613417D01*
X194195007Y-64532605D01*
X194275819Y-64505668D01*
X194329694Y-64505668D01*
X194410506Y-64532605D01*
X194545193Y-64667292D01*
X194572131Y-64748104D01*
X194572131Y-64801979D01*
X194545193Y-64882791D01*
X194383569Y-65044416D01*
X194302757Y-65071353D01*
X194248882Y-65071353D01*
X199800000Y-76761904D02*
X199752380Y-76857142D01*
X199752380Y-77000000D01*
X199800000Y-77142857D01*
X199895238Y-77238095D01*
X199990476Y-77285714D01*
X200180952Y-77333333D01*
X200323809Y-77333333D01*
X200514285Y-77285714D01*
X200609523Y-77238095D01*
X200704761Y-77142857D01*
X200752380Y-77000000D01*
X200752380Y-76904761D01*
X200704761Y-76761904D01*
X200657142Y-76714285D01*
X200323809Y-76714285D01*
X200323809Y-76904761D01*
X200752380Y-76285714D02*
X199752380Y-76285714D01*
X200752380Y-75714285D01*
X199752380Y-75714285D01*
X200752380Y-75238095D02*
X199752380Y-75238095D01*
X199752380Y-75000000D01*
X199800000Y-74857142D01*
X199895238Y-74761904D01*
X199990476Y-74714285D01*
X200180952Y-74666666D01*
X200323809Y-74666666D01*
X200514285Y-74714285D01*
X200609523Y-74761904D01*
X200704761Y-74857142D01*
X200752380Y-75000000D01*
X200752380Y-75238095D01*
D11*
X276842857Y-104278571D02*
X276342857Y-103564285D01*
X275985714Y-104278571D02*
X275985714Y-102778571D01*
X276557142Y-102778571D01*
X276700000Y-102850000D01*
X276771428Y-102921428D01*
X276842857Y-103064285D01*
X276842857Y-103278571D01*
X276771428Y-103421428D01*
X276700000Y-103492857D01*
X276557142Y-103564285D01*
X275985714Y-103564285D01*
X278057142Y-104207142D02*
X277914285Y-104278571D01*
X277628571Y-104278571D01*
X277485714Y-104207142D01*
X277414285Y-104064285D01*
X277414285Y-103492857D01*
X277485714Y-103350000D01*
X277628571Y-103278571D01*
X277914285Y-103278571D01*
X278057142Y-103350000D01*
X278128571Y-103492857D01*
X278128571Y-103635714D01*
X277414285Y-103778571D01*
X278700000Y-104207142D02*
X278842857Y-104278571D01*
X279128571Y-104278571D01*
X279271428Y-104207142D01*
X279342857Y-104064285D01*
X279342857Y-103992857D01*
X279271428Y-103850000D01*
X279128571Y-103778571D01*
X278914285Y-103778571D01*
X278771428Y-103707142D01*
X278700000Y-103564285D01*
X278700000Y-103492857D01*
X278771428Y-103350000D01*
X278914285Y-103278571D01*
X279128571Y-103278571D01*
X279271428Y-103350000D01*
X280557142Y-104207142D02*
X280414285Y-104278571D01*
X280128571Y-104278571D01*
X279985714Y-104207142D01*
X279914285Y-104064285D01*
X279914285Y-103492857D01*
X279985714Y-103350000D01*
X280128571Y-103278571D01*
X280414285Y-103278571D01*
X280557142Y-103350000D01*
X280628571Y-103492857D01*
X280628571Y-103635714D01*
X279914285Y-103778571D01*
X281057142Y-103278571D02*
X281628571Y-103278571D01*
X281271428Y-102778571D02*
X281271428Y-104064285D01*
X281342857Y-104207142D01*
X281485714Y-104278571D01*
X281628571Y-104278571D01*
D10*
X188850083Y-66475465D02*
X189254144Y-66071404D01*
X189759220Y-66980541D02*
X189052113Y-66273435D01*
X190432655Y-66239763D02*
X190398983Y-66340778D01*
X190264296Y-66475465D01*
X190163281Y-66509137D01*
X190062266Y-66475465D01*
X189792892Y-66206091D01*
X189759220Y-66105076D01*
X189792892Y-66004061D01*
X189927579Y-65869374D01*
X190028594Y-65835702D01*
X190129609Y-65869374D01*
X190196953Y-65936717D01*
X189927579Y-66340778D01*
X190735701Y-65936717D02*
X190836716Y-65903045D01*
X190971403Y-65768358D01*
X191005075Y-65667343D01*
X190971403Y-65566328D01*
X190937731Y-65532656D01*
X190836716Y-65498984D01*
X190735701Y-65532656D01*
X190634686Y-65633671D01*
X190533670Y-65667343D01*
X190432655Y-65633671D01*
X190398983Y-65599999D01*
X190365311Y-65498984D01*
X190398983Y-65397969D01*
X190499999Y-65296954D01*
X190601014Y-65263282D01*
X190803044Y-64993908D02*
X191072418Y-64724534D01*
X190668357Y-64657190D02*
X191274449Y-65263282D01*
X191375464Y-65296954D01*
X191476479Y-65263282D01*
X191543823Y-65195938D01*
X191688611Y-64451793D02*
X192065735Y-64828916D01*
X191338425Y-64370981D02*
X191607799Y-64909729D01*
X191957985Y-64559542D01*
D11*
X274685714Y-83578571D02*
X275614285Y-83578571D01*
X275114285Y-84150000D01*
X275328571Y-84150000D01*
X275471428Y-84221428D01*
X275542857Y-84292857D01*
X275614285Y-84435714D01*
X275614285Y-84792857D01*
X275542857Y-84935714D01*
X275471428Y-85007142D01*
X275328571Y-85078571D01*
X274900000Y-85078571D01*
X274757142Y-85007142D01*
X274685714Y-84935714D01*
X276257142Y-84935714D02*
X276328571Y-85007142D01*
X276257142Y-85078571D01*
X276185714Y-85007142D01*
X276257142Y-84935714D01*
X276257142Y-85078571D01*
X276828571Y-83578571D02*
X277757142Y-83578571D01*
X277257142Y-84150000D01*
X277471428Y-84150000D01*
X277614285Y-84221428D01*
X277685714Y-84292857D01*
X277757142Y-84435714D01*
X277757142Y-84792857D01*
X277685714Y-84935714D01*
X277614285Y-85007142D01*
X277471428Y-85078571D01*
X277042857Y-85078571D01*
X276900000Y-85007142D01*
X276828571Y-84935714D01*
X278185714Y-83578571D02*
X278685714Y-85078571D01*
X279185714Y-83578571D01*
D10*
X196450082Y-66475465D02*
X196854143Y-66071404D01*
X197359219Y-66980541D02*
X196652112Y-66273435D01*
X198032654Y-66239763D02*
X197998982Y-66340778D01*
X197864295Y-66475465D01*
X197763280Y-66509137D01*
X197662265Y-66475465D01*
X197392891Y-66206091D01*
X197359219Y-66105076D01*
X197392891Y-66004061D01*
X197527578Y-65869374D01*
X197628593Y-65835702D01*
X197729608Y-65869374D01*
X197796952Y-65936717D01*
X197527578Y-66340778D01*
X198335700Y-65936717D02*
X198436715Y-65903045D01*
X198571402Y-65768358D01*
X198605074Y-65667343D01*
X198571402Y-65566328D01*
X198537730Y-65532656D01*
X198436715Y-65498984D01*
X198335700Y-65532656D01*
X198234685Y-65633671D01*
X198133669Y-65667343D01*
X198032654Y-65633671D01*
X197998982Y-65599999D01*
X197965310Y-65498984D01*
X197998982Y-65397969D01*
X198099998Y-65296954D01*
X198201013Y-65263282D01*
X198403043Y-64993908D02*
X198672417Y-64724534D01*
X198268356Y-64657190D02*
X198874448Y-65263282D01*
X198975463Y-65296954D01*
X199076478Y-65263282D01*
X199143822Y-65195938D01*
X199719609Y-64775042D02*
X199396360Y-65098290D01*
X199557984Y-64936666D02*
X198992299Y-64370981D01*
X199019236Y-64505668D01*
X199019236Y-64613417D01*
X198992299Y-64694229D01*
%TO.C,C15*%
X248357142Y-72942857D02*
X248404761Y-72990476D01*
X248452380Y-73133333D01*
X248452380Y-73228571D01*
X248404761Y-73371428D01*
X248309523Y-73466666D01*
X248214285Y-73514285D01*
X248023809Y-73561904D01*
X247880952Y-73561904D01*
X247690476Y-73514285D01*
X247595238Y-73466666D01*
X247500000Y-73371428D01*
X247452380Y-73228571D01*
X247452380Y-73133333D01*
X247500000Y-72990476D01*
X247547619Y-72942857D01*
X248452380Y-71990476D02*
X248452380Y-72561904D01*
X248452380Y-72276190D02*
X247452380Y-72276190D01*
X247595238Y-72371428D01*
X247690476Y-72466666D01*
X247738095Y-72561904D01*
X247452380Y-71085714D02*
X247452380Y-71561904D01*
X247928571Y-71609523D01*
X247880952Y-71561904D01*
X247833333Y-71466666D01*
X247833333Y-71228571D01*
X247880952Y-71133333D01*
X247928571Y-71085714D01*
X248023809Y-71038095D01*
X248261904Y-71038095D01*
X248357142Y-71085714D01*
X248404761Y-71133333D01*
X248452380Y-71228571D01*
X248452380Y-71466666D01*
X248404761Y-71561904D01*
X248357142Y-71609523D01*
%TO.C,FB2*%
X244666666Y-73528571D02*
X244333333Y-73528571D01*
X244333333Y-74052380D02*
X244333333Y-73052380D01*
X244809523Y-73052380D01*
X245523809Y-73528571D02*
X245666666Y-73576190D01*
X245714285Y-73623809D01*
X245761904Y-73719047D01*
X245761904Y-73861904D01*
X245714285Y-73957142D01*
X245666666Y-74004761D01*
X245571428Y-74052380D01*
X245190476Y-74052380D01*
X245190476Y-73052380D01*
X245523809Y-73052380D01*
X245619047Y-73100000D01*
X245666666Y-73147619D01*
X245714285Y-73242857D01*
X245714285Y-73338095D01*
X245666666Y-73433333D01*
X245619047Y-73480952D01*
X245523809Y-73528571D01*
X245190476Y-73528571D01*
X246142857Y-73147619D02*
X246190476Y-73100000D01*
X246285714Y-73052380D01*
X246523809Y-73052380D01*
X246619047Y-73100000D01*
X246666666Y-73147619D01*
X246714285Y-73242857D01*
X246714285Y-73338095D01*
X246666666Y-73480952D01*
X246095238Y-74052380D01*
X246714285Y-74052380D01*
%TO.C,U6*%
X223738095Y-96152380D02*
X223738095Y-96961904D01*
X223785714Y-97057142D01*
X223833333Y-97104761D01*
X223928571Y-97152380D01*
X224119047Y-97152380D01*
X224214285Y-97104761D01*
X224261904Y-97057142D01*
X224309523Y-96961904D01*
X224309523Y-96152380D01*
X225214285Y-96152380D02*
X225023809Y-96152380D01*
X224928571Y-96200000D01*
X224880952Y-96247619D01*
X224785714Y-96390476D01*
X224738095Y-96580952D01*
X224738095Y-96961904D01*
X224785714Y-97057142D01*
X224833333Y-97104761D01*
X224928571Y-97152380D01*
X225119047Y-97152380D01*
X225214285Y-97104761D01*
X225261904Y-97057142D01*
X225309523Y-96961904D01*
X225309523Y-96723809D01*
X225261904Y-96628571D01*
X225214285Y-96580952D01*
X225119047Y-96533333D01*
X224928571Y-96533333D01*
X224833333Y-96580952D01*
X224785714Y-96628571D01*
X224738095Y-96723809D01*
%TO.C,C6*%
X194457142Y-131166666D02*
X194504761Y-131214285D01*
X194552380Y-131357142D01*
X194552380Y-131452380D01*
X194504761Y-131595238D01*
X194409523Y-131690476D01*
X194314285Y-131738095D01*
X194123809Y-131785714D01*
X193980952Y-131785714D01*
X193790476Y-131738095D01*
X193695238Y-131690476D01*
X193600000Y-131595238D01*
X193552380Y-131452380D01*
X193552380Y-131357142D01*
X193600000Y-131214285D01*
X193647619Y-131166666D01*
X193552380Y-130309523D02*
X193552380Y-130500000D01*
X193600000Y-130595238D01*
X193647619Y-130642857D01*
X193790476Y-130738095D01*
X193980952Y-130785714D01*
X194361904Y-130785714D01*
X194457142Y-130738095D01*
X194504761Y-130690476D01*
X194552380Y-130595238D01*
X194552380Y-130404761D01*
X194504761Y-130309523D01*
X194457142Y-130261904D01*
X194361904Y-130214285D01*
X194123809Y-130214285D01*
X194028571Y-130261904D01*
X193980952Y-130309523D01*
X193933333Y-130404761D01*
X193933333Y-130595238D01*
X193980952Y-130690476D01*
X194028571Y-130738095D01*
X194123809Y-130785714D01*
%TO.C,D1*%
X258382380Y-72738095D02*
X257382380Y-72738095D01*
X257382380Y-72500000D01*
X257430000Y-72357142D01*
X257525238Y-72261904D01*
X257620476Y-72214285D01*
X257810952Y-72166666D01*
X257953809Y-72166666D01*
X258144285Y-72214285D01*
X258239523Y-72261904D01*
X258334761Y-72357142D01*
X258382380Y-72500000D01*
X258382380Y-72738095D01*
X258382380Y-71214285D02*
X258382380Y-71785714D01*
X258382380Y-71500000D02*
X257382380Y-71500000D01*
X257525238Y-71595238D01*
X257620476Y-71690476D01*
X257668095Y-71785714D01*
%TO.C,U5*%
X193302380Y-143261904D02*
X194111904Y-143261904D01*
X194207142Y-143214285D01*
X194254761Y-143166666D01*
X194302380Y-143071428D01*
X194302380Y-142880952D01*
X194254761Y-142785714D01*
X194207142Y-142738095D01*
X194111904Y-142690476D01*
X193302380Y-142690476D01*
X193302380Y-141738095D02*
X193302380Y-142214285D01*
X193778571Y-142261904D01*
X193730952Y-142214285D01*
X193683333Y-142119047D01*
X193683333Y-141880952D01*
X193730952Y-141785714D01*
X193778571Y-141738095D01*
X193873809Y-141690476D01*
X194111904Y-141690476D01*
X194207142Y-141738095D01*
X194254761Y-141785714D01*
X194302380Y-141880952D01*
X194302380Y-142119047D01*
X194254761Y-142214285D01*
X194207142Y-142261904D01*
%TO.C,R2*%
X217152380Y-176966666D02*
X216676190Y-177300000D01*
X217152380Y-177538095D02*
X216152380Y-177538095D01*
X216152380Y-177157142D01*
X216200000Y-177061904D01*
X216247619Y-177014285D01*
X216342857Y-176966666D01*
X216485714Y-176966666D01*
X216580952Y-177014285D01*
X216628571Y-177061904D01*
X216676190Y-177157142D01*
X216676190Y-177538095D01*
X216247619Y-176585714D02*
X216200000Y-176538095D01*
X216152380Y-176442857D01*
X216152380Y-176204761D01*
X216200000Y-176109523D01*
X216247619Y-176061904D01*
X216342857Y-176014285D01*
X216438095Y-176014285D01*
X216580952Y-176061904D01*
X217152380Y-176633333D01*
X217152380Y-176014285D01*
%TO.C,RN11*%
X263547619Y-162833333D02*
X264023809Y-162500000D01*
X263547619Y-162261904D02*
X264547619Y-162261904D01*
X264547619Y-162642857D01*
X264500000Y-162738095D01*
X264452380Y-162785714D01*
X264357142Y-162833333D01*
X264214285Y-162833333D01*
X264119047Y-162785714D01*
X264071428Y-162738095D01*
X264023809Y-162642857D01*
X264023809Y-162261904D01*
X263547619Y-163261904D02*
X264547619Y-163261904D01*
X263547619Y-163833333D01*
X264547619Y-163833333D01*
X263547619Y-164833333D02*
X263547619Y-164261904D01*
X263547619Y-164547619D02*
X264547619Y-164547619D01*
X264404761Y-164452380D01*
X264309523Y-164357142D01*
X264261904Y-164261904D01*
X263547619Y-165785714D02*
X263547619Y-165214285D01*
X263547619Y-165500000D02*
X264547619Y-165500000D01*
X264404761Y-165404761D01*
X264309523Y-165309523D01*
X264261904Y-165214285D01*
%TO.C,SW1*%
X268816666Y-99804761D02*
X268959523Y-99852380D01*
X269197619Y-99852380D01*
X269292857Y-99804761D01*
X269340476Y-99757142D01*
X269388095Y-99661904D01*
X269388095Y-99566666D01*
X269340476Y-99471428D01*
X269292857Y-99423809D01*
X269197619Y-99376190D01*
X269007142Y-99328571D01*
X268911904Y-99280952D01*
X268864285Y-99233333D01*
X268816666Y-99138095D01*
X268816666Y-99042857D01*
X268864285Y-98947619D01*
X268911904Y-98900000D01*
X269007142Y-98852380D01*
X269245238Y-98852380D01*
X269388095Y-98900000D01*
X269721428Y-98852380D02*
X269959523Y-99852380D01*
X270150000Y-99138095D01*
X270340476Y-99852380D01*
X270578571Y-98852380D01*
X271483333Y-99852380D02*
X270911904Y-99852380D01*
X271197619Y-99852380D02*
X271197619Y-98852380D01*
X271102380Y-98995238D01*
X271007142Y-99090476D01*
X270911904Y-99138095D01*
%TO.C,R5*%
X201533333Y-171652380D02*
X201200000Y-171176190D01*
X200961904Y-171652380D02*
X200961904Y-170652380D01*
X201342857Y-170652380D01*
X201438095Y-170700000D01*
X201485714Y-170747619D01*
X201533333Y-170842857D01*
X201533333Y-170985714D01*
X201485714Y-171080952D01*
X201438095Y-171128571D01*
X201342857Y-171176190D01*
X200961904Y-171176190D01*
X202438095Y-170652380D02*
X201961904Y-170652380D01*
X201914285Y-171128571D01*
X201961904Y-171080952D01*
X202057142Y-171033333D01*
X202295238Y-171033333D01*
X202390476Y-171080952D01*
X202438095Y-171128571D01*
X202485714Y-171223809D01*
X202485714Y-171461904D01*
X202438095Y-171557142D01*
X202390476Y-171604761D01*
X202295238Y-171652380D01*
X202057142Y-171652380D01*
X201961904Y-171604761D01*
X201914285Y-171557142D01*
%TO.C,J5*%
X203666666Y-69952380D02*
X203666666Y-70666666D01*
X203619047Y-70809523D01*
X203523809Y-70904761D01*
X203380952Y-70952380D01*
X203285714Y-70952380D01*
X204619047Y-69952380D02*
X204142857Y-69952380D01*
X204095238Y-70428571D01*
X204142857Y-70380952D01*
X204238095Y-70333333D01*
X204476190Y-70333333D01*
X204571428Y-70380952D01*
X204619047Y-70428571D01*
X204666666Y-70523809D01*
X204666666Y-70761904D01*
X204619047Y-70857142D01*
X204571428Y-70904761D01*
X204476190Y-70952380D01*
X204238095Y-70952380D01*
X204142857Y-70904761D01*
X204095238Y-70857142D01*
%TO.C,R17*%
X196357142Y-175152380D02*
X196023809Y-174676190D01*
X195785714Y-175152380D02*
X195785714Y-174152380D01*
X196166666Y-174152380D01*
X196261904Y-174200000D01*
X196309523Y-174247619D01*
X196357142Y-174342857D01*
X196357142Y-174485714D01*
X196309523Y-174580952D01*
X196261904Y-174628571D01*
X196166666Y-174676190D01*
X195785714Y-174676190D01*
X197309523Y-175152380D02*
X196738095Y-175152380D01*
X197023809Y-175152380D02*
X197023809Y-174152380D01*
X196928571Y-174295238D01*
X196833333Y-174390476D01*
X196738095Y-174438095D01*
X197642857Y-174152380D02*
X198309523Y-174152380D01*
X197880952Y-175152380D01*
%TO.C,R19*%
X241467142Y-66972380D02*
X241133809Y-66496190D01*
X240895714Y-66972380D02*
X240895714Y-65972380D01*
X241276666Y-65972380D01*
X241371904Y-66020000D01*
X241419523Y-66067619D01*
X241467142Y-66162857D01*
X241467142Y-66305714D01*
X241419523Y-66400952D01*
X241371904Y-66448571D01*
X241276666Y-66496190D01*
X240895714Y-66496190D01*
X242419523Y-66972380D02*
X241848095Y-66972380D01*
X242133809Y-66972380D02*
X242133809Y-65972380D01*
X242038571Y-66115238D01*
X241943333Y-66210476D01*
X241848095Y-66258095D01*
X242895714Y-66972380D02*
X243086190Y-66972380D01*
X243181428Y-66924761D01*
X243229047Y-66877142D01*
X243324285Y-66734285D01*
X243371904Y-66543809D01*
X243371904Y-66162857D01*
X243324285Y-66067619D01*
X243276666Y-66020000D01*
X243181428Y-65972380D01*
X242990952Y-65972380D01*
X242895714Y-66020000D01*
X242848095Y-66067619D01*
X242800476Y-66162857D01*
X242800476Y-66400952D01*
X242848095Y-66496190D01*
X242895714Y-66543809D01*
X242990952Y-66591428D01*
X243181428Y-66591428D01*
X243276666Y-66543809D01*
X243324285Y-66496190D01*
X243371904Y-66400952D01*
%TO.C,R1*%
X215652380Y-176866666D02*
X215176190Y-177200000D01*
X215652380Y-177438095D02*
X214652380Y-177438095D01*
X214652380Y-177057142D01*
X214700000Y-176961904D01*
X214747619Y-176914285D01*
X214842857Y-176866666D01*
X214985714Y-176866666D01*
X215080952Y-176914285D01*
X215128571Y-176961904D01*
X215176190Y-177057142D01*
X215176190Y-177438095D01*
X215652380Y-175914285D02*
X215652380Y-176485714D01*
X215652380Y-176200000D02*
X214652380Y-176200000D01*
X214795238Y-176295238D01*
X214890476Y-176390476D01*
X214938095Y-176485714D01*
%TO.C,U7*%
X267602380Y-159761904D02*
X268411904Y-159761904D01*
X268507142Y-159714285D01*
X268554761Y-159666666D01*
X268602380Y-159571428D01*
X268602380Y-159380952D01*
X268554761Y-159285714D01*
X268507142Y-159238095D01*
X268411904Y-159190476D01*
X267602380Y-159190476D01*
X267602380Y-158809523D02*
X267602380Y-158142857D01*
X268602380Y-158571428D01*
%TO.C,RN16*%
X263547619Y-135833333D02*
X264023809Y-135500000D01*
X263547619Y-135261904D02*
X264547619Y-135261904D01*
X264547619Y-135642857D01*
X264500000Y-135738095D01*
X264452380Y-135785714D01*
X264357142Y-135833333D01*
X264214285Y-135833333D01*
X264119047Y-135785714D01*
X264071428Y-135738095D01*
X264023809Y-135642857D01*
X264023809Y-135261904D01*
X263547619Y-136261904D02*
X264547619Y-136261904D01*
X263547619Y-136833333D01*
X264547619Y-136833333D01*
X263547619Y-137833333D02*
X263547619Y-137261904D01*
X263547619Y-137547619D02*
X264547619Y-137547619D01*
X264404761Y-137452380D01*
X264309523Y-137357142D01*
X264261904Y-137261904D01*
X264547619Y-138690476D02*
X264547619Y-138500000D01*
X264500000Y-138404761D01*
X264452380Y-138357142D01*
X264309523Y-138261904D01*
X264119047Y-138214285D01*
X263738095Y-138214285D01*
X263642857Y-138261904D01*
X263595238Y-138309523D01*
X263547619Y-138404761D01*
X263547619Y-138595238D01*
X263595238Y-138690476D01*
X263642857Y-138738095D01*
X263738095Y-138785714D01*
X263976190Y-138785714D01*
X264071428Y-138738095D01*
X264119047Y-138690476D01*
X264166666Y-138595238D01*
X264166666Y-138404761D01*
X264119047Y-138309523D01*
X264071428Y-138261904D01*
X263976190Y-138214285D01*
%TO.C,J4*%
X260361666Y-97952380D02*
X260361666Y-98666666D01*
X260314047Y-98809523D01*
X260218809Y-98904761D01*
X260075952Y-98952380D01*
X259980714Y-98952380D01*
X261266428Y-98285714D02*
X261266428Y-98952380D01*
X261028333Y-97904761D02*
X260790238Y-98619047D01*
X261409285Y-98619047D01*
%TO.C,C10*%
X268557142Y-169242857D02*
X268604761Y-169290476D01*
X268652380Y-169433333D01*
X268652380Y-169528571D01*
X268604761Y-169671428D01*
X268509523Y-169766666D01*
X268414285Y-169814285D01*
X268223809Y-169861904D01*
X268080952Y-169861904D01*
X267890476Y-169814285D01*
X267795238Y-169766666D01*
X267700000Y-169671428D01*
X267652380Y-169528571D01*
X267652380Y-169433333D01*
X267700000Y-169290476D01*
X267747619Y-169242857D01*
X268652380Y-168290476D02*
X268652380Y-168861904D01*
X268652380Y-168576190D02*
X267652380Y-168576190D01*
X267795238Y-168671428D01*
X267890476Y-168766666D01*
X267938095Y-168861904D01*
X267652380Y-167671428D02*
X267652380Y-167576190D01*
X267700000Y-167480952D01*
X267747619Y-167433333D01*
X267842857Y-167385714D01*
X268033333Y-167338095D01*
X268271428Y-167338095D01*
X268461904Y-167385714D01*
X268557142Y-167433333D01*
X268604761Y-167480952D01*
X268652380Y-167576190D01*
X268652380Y-167671428D01*
X268604761Y-167766666D01*
X268557142Y-167814285D01*
X268461904Y-167861904D01*
X268271428Y-167909523D01*
X268033333Y-167909523D01*
X267842857Y-167861904D01*
X267747619Y-167814285D01*
X267700000Y-167766666D01*
X267652380Y-167671428D01*
%TO.C,U4*%
X193752380Y-126361904D02*
X194561904Y-126361904D01*
X194657142Y-126314285D01*
X194704761Y-126266666D01*
X194752380Y-126171428D01*
X194752380Y-125980952D01*
X194704761Y-125885714D01*
X194657142Y-125838095D01*
X194561904Y-125790476D01*
X193752380Y-125790476D01*
X194085714Y-124885714D02*
X194752380Y-124885714D01*
X193704761Y-125123809D02*
X194419047Y-125361904D01*
X194419047Y-124742857D01*
%TO.C,C4*%
X259027142Y-80166666D02*
X259074761Y-80214285D01*
X259122380Y-80357142D01*
X259122380Y-80452380D01*
X259074761Y-80595238D01*
X258979523Y-80690476D01*
X258884285Y-80738095D01*
X258693809Y-80785714D01*
X258550952Y-80785714D01*
X258360476Y-80738095D01*
X258265238Y-80690476D01*
X258170000Y-80595238D01*
X258122380Y-80452380D01*
X258122380Y-80357142D01*
X258170000Y-80214285D01*
X258217619Y-80166666D01*
X258455714Y-79309523D02*
X259122380Y-79309523D01*
X258074761Y-79547619D02*
X258789047Y-79785714D01*
X258789047Y-79166666D01*
%TO.C,J3*%
X251066666Y-132852380D02*
X251066666Y-133566666D01*
X251019047Y-133709523D01*
X250923809Y-133804761D01*
X250780952Y-133852380D01*
X250685714Y-133852380D01*
X251447619Y-132852380D02*
X252066666Y-132852380D01*
X251733333Y-133233333D01*
X251876190Y-133233333D01*
X251971428Y-133280952D01*
X252019047Y-133328571D01*
X252066666Y-133423809D01*
X252066666Y-133661904D01*
X252019047Y-133757142D01*
X251971428Y-133804761D01*
X251876190Y-133852380D01*
X251590476Y-133852380D01*
X251495238Y-133804761D01*
X251447619Y-133757142D01*
%TO.C,RN3*%
X224047619Y-163309523D02*
X224523809Y-162976190D01*
X224047619Y-162738095D02*
X225047619Y-162738095D01*
X225047619Y-163119047D01*
X225000000Y-163214285D01*
X224952380Y-163261904D01*
X224857142Y-163309523D01*
X224714285Y-163309523D01*
X224619047Y-163261904D01*
X224571428Y-163214285D01*
X224523809Y-163119047D01*
X224523809Y-162738095D01*
X224047619Y-163738095D02*
X225047619Y-163738095D01*
X224047619Y-164309523D01*
X225047619Y-164309523D01*
X225047619Y-164690476D02*
X225047619Y-165309523D01*
X224666666Y-164976190D01*
X224666666Y-165119047D01*
X224619047Y-165214285D01*
X224571428Y-165261904D01*
X224476190Y-165309523D01*
X224238095Y-165309523D01*
X224142857Y-165261904D01*
X224095238Y-165214285D01*
X224047619Y-165119047D01*
X224047619Y-164833333D01*
X224095238Y-164738095D01*
X224142857Y-164690476D01*
%TO.C,U1*%
X193852380Y-190561904D02*
X194661904Y-190561904D01*
X194757142Y-190514285D01*
X194804761Y-190466666D01*
X194852380Y-190371428D01*
X194852380Y-190180952D01*
X194804761Y-190085714D01*
X194757142Y-190038095D01*
X194661904Y-189990476D01*
X193852380Y-189990476D01*
X194852380Y-188990476D02*
X194852380Y-189561904D01*
X194852380Y-189276190D02*
X193852380Y-189276190D01*
X193995238Y-189371428D01*
X194090476Y-189466666D01*
X194138095Y-189561904D01*
%TO.C,C25*%
X232457142Y-111827142D02*
X232409523Y-111874761D01*
X232266666Y-111922380D01*
X232171428Y-111922380D01*
X232028571Y-111874761D01*
X231933333Y-111779523D01*
X231885714Y-111684285D01*
X231838095Y-111493809D01*
X231838095Y-111350952D01*
X231885714Y-111160476D01*
X231933333Y-111065238D01*
X232028571Y-110970000D01*
X232171428Y-110922380D01*
X232266666Y-110922380D01*
X232409523Y-110970000D01*
X232457142Y-111017619D01*
X232838095Y-111017619D02*
X232885714Y-110970000D01*
X232980952Y-110922380D01*
X233219047Y-110922380D01*
X233314285Y-110970000D01*
X233361904Y-111017619D01*
X233409523Y-111112857D01*
X233409523Y-111208095D01*
X233361904Y-111350952D01*
X232790476Y-111922380D01*
X233409523Y-111922380D01*
X234314285Y-110922380D02*
X233838095Y-110922380D01*
X233790476Y-111398571D01*
X233838095Y-111350952D01*
X233933333Y-111303333D01*
X234171428Y-111303333D01*
X234266666Y-111350952D01*
X234314285Y-111398571D01*
X234361904Y-111493809D01*
X234361904Y-111731904D01*
X234314285Y-111827142D01*
X234266666Y-111874761D01*
X234171428Y-111922380D01*
X233933333Y-111922380D01*
X233838095Y-111874761D01*
X233790476Y-111827142D01*
%TO.C,R15*%
X273122380Y-76142857D02*
X272646190Y-76476190D01*
X273122380Y-76714285D02*
X272122380Y-76714285D01*
X272122380Y-76333333D01*
X272170000Y-76238095D01*
X272217619Y-76190476D01*
X272312857Y-76142857D01*
X272455714Y-76142857D01*
X272550952Y-76190476D01*
X272598571Y-76238095D01*
X272646190Y-76333333D01*
X272646190Y-76714285D01*
X273122380Y-75190476D02*
X273122380Y-75761904D01*
X273122380Y-75476190D02*
X272122380Y-75476190D01*
X272265238Y-75571428D01*
X272360476Y-75666666D01*
X272408095Y-75761904D01*
X272122380Y-74285714D02*
X272122380Y-74761904D01*
X272598571Y-74809523D01*
X272550952Y-74761904D01*
X272503333Y-74666666D01*
X272503333Y-74428571D01*
X272550952Y-74333333D01*
X272598571Y-74285714D01*
X272693809Y-74238095D01*
X272931904Y-74238095D01*
X273027142Y-74285714D01*
X273074761Y-74333333D01*
X273122380Y-74428571D01*
X273122380Y-74666666D01*
X273074761Y-74761904D01*
X273027142Y-74809523D01*
%TO.C,FB1*%
X215566666Y-101028571D02*
X215233333Y-101028571D01*
X215233333Y-101552380D02*
X215233333Y-100552380D01*
X215709523Y-100552380D01*
X216423809Y-101028571D02*
X216566666Y-101076190D01*
X216614285Y-101123809D01*
X216661904Y-101219047D01*
X216661904Y-101361904D01*
X216614285Y-101457142D01*
X216566666Y-101504761D01*
X216471428Y-101552380D01*
X216090476Y-101552380D01*
X216090476Y-100552380D01*
X216423809Y-100552380D01*
X216519047Y-100600000D01*
X216566666Y-100647619D01*
X216614285Y-100742857D01*
X216614285Y-100838095D01*
X216566666Y-100933333D01*
X216519047Y-100980952D01*
X216423809Y-101028571D01*
X216090476Y-101028571D01*
X217614285Y-101552380D02*
X217042857Y-101552380D01*
X217328571Y-101552380D02*
X217328571Y-100552380D01*
X217233333Y-100695238D01*
X217138095Y-100790476D01*
X217042857Y-100838095D01*
%TO.C,C17*%
X218957142Y-82257142D02*
X218909523Y-82304761D01*
X218766666Y-82352380D01*
X218671428Y-82352380D01*
X218528571Y-82304761D01*
X218433333Y-82209523D01*
X218385714Y-82114285D01*
X218338095Y-81923809D01*
X218338095Y-81780952D01*
X218385714Y-81590476D01*
X218433333Y-81495238D01*
X218528571Y-81400000D01*
X218671428Y-81352380D01*
X218766666Y-81352380D01*
X218909523Y-81400000D01*
X218957142Y-81447619D01*
X219909523Y-82352380D02*
X219338095Y-82352380D01*
X219623809Y-82352380D02*
X219623809Y-81352380D01*
X219528571Y-81495238D01*
X219433333Y-81590476D01*
X219338095Y-81638095D01*
X220242857Y-81352380D02*
X220909523Y-81352380D01*
X220480952Y-82352380D01*
%TO.C,RN15*%
X263547619Y-153833333D02*
X264023809Y-153500000D01*
X263547619Y-153261904D02*
X264547619Y-153261904D01*
X264547619Y-153642857D01*
X264500000Y-153738095D01*
X264452380Y-153785714D01*
X264357142Y-153833333D01*
X264214285Y-153833333D01*
X264119047Y-153785714D01*
X264071428Y-153738095D01*
X264023809Y-153642857D01*
X264023809Y-153261904D01*
X263547619Y-154261904D02*
X264547619Y-154261904D01*
X263547619Y-154833333D01*
X264547619Y-154833333D01*
X263547619Y-155833333D02*
X263547619Y-155261904D01*
X263547619Y-155547619D02*
X264547619Y-155547619D01*
X264404761Y-155452380D01*
X264309523Y-155357142D01*
X264261904Y-155261904D01*
X264547619Y-156738095D02*
X264547619Y-156261904D01*
X264071428Y-156214285D01*
X264119047Y-156261904D01*
X264166666Y-156357142D01*
X264166666Y-156595238D01*
X264119047Y-156690476D01*
X264071428Y-156738095D01*
X263976190Y-156785714D01*
X263738095Y-156785714D01*
X263642857Y-156738095D01*
X263595238Y-156690476D01*
X263547619Y-156595238D01*
X263547619Y-156357142D01*
X263595238Y-156261904D01*
X263642857Y-156214285D01*
%TO.C,RN7*%
X224047619Y-154309523D02*
X224523809Y-153976190D01*
X224047619Y-153738095D02*
X225047619Y-153738095D01*
X225047619Y-154119047D01*
X225000000Y-154214285D01*
X224952380Y-154261904D01*
X224857142Y-154309523D01*
X224714285Y-154309523D01*
X224619047Y-154261904D01*
X224571428Y-154214285D01*
X224523809Y-154119047D01*
X224523809Y-153738095D01*
X224047619Y-154738095D02*
X225047619Y-154738095D01*
X224047619Y-155309523D01*
X225047619Y-155309523D01*
X225047619Y-155690476D02*
X225047619Y-156357142D01*
X224047619Y-155928571D01*
%TO.C,*%
%TO.C,U13*%
X230461904Y-90552380D02*
X230461904Y-91361904D01*
X230509523Y-91457142D01*
X230557142Y-91504761D01*
X230652380Y-91552380D01*
X230842857Y-91552380D01*
X230938095Y-91504761D01*
X230985714Y-91457142D01*
X231033333Y-91361904D01*
X231033333Y-90552380D01*
X232033333Y-91552380D02*
X231461904Y-91552380D01*
X231747619Y-91552380D02*
X231747619Y-90552380D01*
X231652380Y-90695238D01*
X231557142Y-90790476D01*
X231461904Y-90838095D01*
X232366666Y-90552380D02*
X232985714Y-90552380D01*
X232652380Y-90933333D01*
X232795238Y-90933333D01*
X232890476Y-90980952D01*
X232938095Y-91028571D01*
X232985714Y-91123809D01*
X232985714Y-91361904D01*
X232938095Y-91457142D01*
X232890476Y-91504761D01*
X232795238Y-91552380D01*
X232509523Y-91552380D01*
X232414285Y-91504761D01*
X232366666Y-91457142D01*
%TO.C,R8*%
X197233333Y-178052380D02*
X196900000Y-177576190D01*
X196661904Y-178052380D02*
X196661904Y-177052380D01*
X197042857Y-177052380D01*
X197138095Y-177100000D01*
X197185714Y-177147619D01*
X197233333Y-177242857D01*
X197233333Y-177385714D01*
X197185714Y-177480952D01*
X197138095Y-177528571D01*
X197042857Y-177576190D01*
X196661904Y-177576190D01*
X197804761Y-177480952D02*
X197709523Y-177433333D01*
X197661904Y-177385714D01*
X197614285Y-177290476D01*
X197614285Y-177242857D01*
X197661904Y-177147619D01*
X197709523Y-177100000D01*
X197804761Y-177052380D01*
X197995238Y-177052380D01*
X198090476Y-177100000D01*
X198138095Y-177147619D01*
X198185714Y-177242857D01*
X198185714Y-177290476D01*
X198138095Y-177385714D01*
X198090476Y-177433333D01*
X197995238Y-177480952D01*
X197804761Y-177480952D01*
X197709523Y-177528571D01*
X197661904Y-177576190D01*
X197614285Y-177671428D01*
X197614285Y-177861904D01*
X197661904Y-177957142D01*
X197709523Y-178004761D01*
X197804761Y-178052380D01*
X197995238Y-178052380D01*
X198090476Y-178004761D01*
X198138095Y-177957142D01*
X198185714Y-177861904D01*
X198185714Y-177671428D01*
X198138095Y-177576190D01*
X198090476Y-177528571D01*
X197995238Y-177480952D01*
%TO.C,U8*%
X267802380Y-174761904D02*
X268611904Y-174761904D01*
X268707142Y-174714285D01*
X268754761Y-174666666D01*
X268802380Y-174571428D01*
X268802380Y-174380952D01*
X268754761Y-174285714D01*
X268707142Y-174238095D01*
X268611904Y-174190476D01*
X267802380Y-174190476D01*
X268230952Y-173571428D02*
X268183333Y-173666666D01*
X268135714Y-173714285D01*
X268040476Y-173761904D01*
X267992857Y-173761904D01*
X267897619Y-173714285D01*
X267850000Y-173666666D01*
X267802380Y-173571428D01*
X267802380Y-173380952D01*
X267850000Y-173285714D01*
X267897619Y-173238095D01*
X267992857Y-173190476D01*
X268040476Y-173190476D01*
X268135714Y-173238095D01*
X268183333Y-173285714D01*
X268230952Y-173380952D01*
X268230952Y-173571428D01*
X268278571Y-173666666D01*
X268326190Y-173714285D01*
X268421428Y-173761904D01*
X268611904Y-173761904D01*
X268707142Y-173714285D01*
X268754761Y-173666666D01*
X268802380Y-173571428D01*
X268802380Y-173380952D01*
X268754761Y-173285714D01*
X268707142Y-173238095D01*
X268611904Y-173190476D01*
X268421428Y-173190476D01*
X268326190Y-173238095D01*
X268278571Y-173285714D01*
X268230952Y-173380952D01*
%TO.C,D2*%
X244961904Y-109852380D02*
X244961904Y-108852380D01*
X245200000Y-108852380D01*
X245342857Y-108900000D01*
X245438095Y-108995238D01*
X245485714Y-109090476D01*
X245533333Y-109280952D01*
X245533333Y-109423809D01*
X245485714Y-109614285D01*
X245438095Y-109709523D01*
X245342857Y-109804761D01*
X245200000Y-109852380D01*
X244961904Y-109852380D01*
X245914285Y-108947619D02*
X245961904Y-108900000D01*
X246057142Y-108852380D01*
X246295238Y-108852380D01*
X246390476Y-108900000D01*
X246438095Y-108947619D01*
X246485714Y-109042857D01*
X246485714Y-109138095D01*
X246438095Y-109280952D01*
X245866666Y-109852380D01*
X246485714Y-109852380D01*
%TO.C,R12*%
X234652380Y-93542857D02*
X234176190Y-93876190D01*
X234652380Y-94114285D02*
X233652380Y-94114285D01*
X233652380Y-93733333D01*
X233700000Y-93638095D01*
X233747619Y-93590476D01*
X233842857Y-93542857D01*
X233985714Y-93542857D01*
X234080952Y-93590476D01*
X234128571Y-93638095D01*
X234176190Y-93733333D01*
X234176190Y-94114285D01*
X234652380Y-92590476D02*
X234652380Y-93161904D01*
X234652380Y-92876190D02*
X233652380Y-92876190D01*
X233795238Y-92971428D01*
X233890476Y-93066666D01*
X233938095Y-93161904D01*
X233747619Y-92209523D02*
X233700000Y-92161904D01*
X233652380Y-92066666D01*
X233652380Y-91828571D01*
X233700000Y-91733333D01*
X233747619Y-91685714D01*
X233842857Y-91638095D01*
X233938095Y-91638095D01*
X234080952Y-91685714D01*
X234652380Y-92257142D01*
X234652380Y-91638095D01*
%TO.C,RN2*%
X203547619Y-145309523D02*
X204023809Y-144976190D01*
X203547619Y-144738095D02*
X204547619Y-144738095D01*
X204547619Y-145119047D01*
X204500000Y-145214285D01*
X204452380Y-145261904D01*
X204357142Y-145309523D01*
X204214285Y-145309523D01*
X204119047Y-145261904D01*
X204071428Y-145214285D01*
X204023809Y-145119047D01*
X204023809Y-144738095D01*
X203547619Y-145738095D02*
X204547619Y-145738095D01*
X203547619Y-146309523D01*
X204547619Y-146309523D01*
X204452380Y-146738095D02*
X204500000Y-146785714D01*
X204547619Y-146880952D01*
X204547619Y-147119047D01*
X204500000Y-147214285D01*
X204452380Y-147261904D01*
X204357142Y-147309523D01*
X204261904Y-147309523D01*
X204119047Y-147261904D01*
X203547619Y-146690476D01*
X203547619Y-147309523D01*
%TO.C,R20*%
X276357142Y-96952380D02*
X276023809Y-96476190D01*
X275785714Y-96952380D02*
X275785714Y-95952380D01*
X276166666Y-95952380D01*
X276261904Y-96000000D01*
X276309523Y-96047619D01*
X276357142Y-96142857D01*
X276357142Y-96285714D01*
X276309523Y-96380952D01*
X276261904Y-96428571D01*
X276166666Y-96476190D01*
X275785714Y-96476190D01*
X276738095Y-96047619D02*
X276785714Y-96000000D01*
X276880952Y-95952380D01*
X277119047Y-95952380D01*
X277214285Y-96000000D01*
X277261904Y-96047619D01*
X277309523Y-96142857D01*
X277309523Y-96238095D01*
X277261904Y-96380952D01*
X276690476Y-96952380D01*
X277309523Y-96952380D01*
X277928571Y-95952380D02*
X278023809Y-95952380D01*
X278119047Y-96000000D01*
X278166666Y-96047619D01*
X278214285Y-96142857D01*
X278261904Y-96333333D01*
X278261904Y-96571428D01*
X278214285Y-96761904D01*
X278166666Y-96857142D01*
X278119047Y-96904761D01*
X278023809Y-96952380D01*
X277928571Y-96952380D01*
X277833333Y-96904761D01*
X277785714Y-96857142D01*
X277738095Y-96761904D01*
X277690476Y-96571428D01*
X277690476Y-96333333D01*
X277738095Y-96142857D01*
X277785714Y-96047619D01*
X277833333Y-96000000D01*
X277928571Y-95952380D01*
%TO.C,RN1*%
X203547619Y-163309523D02*
X204023809Y-162976190D01*
X203547619Y-162738095D02*
X204547619Y-162738095D01*
X204547619Y-163119047D01*
X204500000Y-163214285D01*
X204452380Y-163261904D01*
X204357142Y-163309523D01*
X204214285Y-163309523D01*
X204119047Y-163261904D01*
X204071428Y-163214285D01*
X204023809Y-163119047D01*
X204023809Y-162738095D01*
X203547619Y-163738095D02*
X204547619Y-163738095D01*
X203547619Y-164309523D01*
X204547619Y-164309523D01*
X203547619Y-165309523D02*
X203547619Y-164738095D01*
X203547619Y-165023809D02*
X204547619Y-165023809D01*
X204404761Y-164928571D01*
X204309523Y-164833333D01*
X204261904Y-164738095D01*
%TO.C,RN12*%
X263547619Y-144833333D02*
X264023809Y-144500000D01*
X263547619Y-144261904D02*
X264547619Y-144261904D01*
X264547619Y-144642857D01*
X264500000Y-144738095D01*
X264452380Y-144785714D01*
X264357142Y-144833333D01*
X264214285Y-144833333D01*
X264119047Y-144785714D01*
X264071428Y-144738095D01*
X264023809Y-144642857D01*
X264023809Y-144261904D01*
X263547619Y-145261904D02*
X264547619Y-145261904D01*
X263547619Y-145833333D01*
X264547619Y-145833333D01*
X263547619Y-146833333D02*
X263547619Y-146261904D01*
X263547619Y-146547619D02*
X264547619Y-146547619D01*
X264404761Y-146452380D01*
X264309523Y-146357142D01*
X264261904Y-146261904D01*
X264452380Y-147214285D02*
X264500000Y-147261904D01*
X264547619Y-147357142D01*
X264547619Y-147595238D01*
X264500000Y-147690476D01*
X264452380Y-147738095D01*
X264357142Y-147785714D01*
X264261904Y-147785714D01*
X264119047Y-147738095D01*
X263547619Y-147166666D01*
X263547619Y-147785714D01*
%TO.C,C13*%
X194257142Y-180242857D02*
X194304761Y-180290476D01*
X194352380Y-180433333D01*
X194352380Y-180528571D01*
X194304761Y-180671428D01*
X194209523Y-180766666D01*
X194114285Y-180814285D01*
X193923809Y-180861904D01*
X193780952Y-180861904D01*
X193590476Y-180814285D01*
X193495238Y-180766666D01*
X193400000Y-180671428D01*
X193352380Y-180528571D01*
X193352380Y-180433333D01*
X193400000Y-180290476D01*
X193447619Y-180242857D01*
X194352380Y-179290476D02*
X194352380Y-179861904D01*
X194352380Y-179576190D02*
X193352380Y-179576190D01*
X193495238Y-179671428D01*
X193590476Y-179766666D01*
X193638095Y-179861904D01*
X193352380Y-178957142D02*
X193352380Y-178338095D01*
X193733333Y-178671428D01*
X193733333Y-178528571D01*
X193780952Y-178433333D01*
X193828571Y-178385714D01*
X193923809Y-178338095D01*
X194161904Y-178338095D01*
X194257142Y-178385714D01*
X194304761Y-178433333D01*
X194352380Y-178528571D01*
X194352380Y-178814285D01*
X194304761Y-178909523D01*
X194257142Y-178957142D01*
%TO.C,R16*%
X203657142Y-176552380D02*
X203323809Y-176076190D01*
X203085714Y-176552380D02*
X203085714Y-175552380D01*
X203466666Y-175552380D01*
X203561904Y-175600000D01*
X203609523Y-175647619D01*
X203657142Y-175742857D01*
X203657142Y-175885714D01*
X203609523Y-175980952D01*
X203561904Y-176028571D01*
X203466666Y-176076190D01*
X203085714Y-176076190D01*
X204609523Y-176552380D02*
X204038095Y-176552380D01*
X204323809Y-176552380D02*
X204323809Y-175552380D01*
X204228571Y-175695238D01*
X204133333Y-175790476D01*
X204038095Y-175838095D01*
X205466666Y-175552380D02*
X205276190Y-175552380D01*
X205180952Y-175600000D01*
X205133333Y-175647619D01*
X205038095Y-175790476D01*
X204990476Y-175980952D01*
X204990476Y-176361904D01*
X205038095Y-176457142D01*
X205085714Y-176504761D01*
X205180952Y-176552380D01*
X205371428Y-176552380D01*
X205466666Y-176504761D01*
X205514285Y-176457142D01*
X205561904Y-176361904D01*
X205561904Y-176123809D01*
X205514285Y-176028571D01*
X205466666Y-175980952D01*
X205371428Y-175933333D01*
X205180952Y-175933333D01*
X205085714Y-175980952D01*
X205038095Y-176028571D01*
X204990476Y-176123809D01*
%TO.C,R18*%
X203557142Y-175052380D02*
X203223809Y-174576190D01*
X202985714Y-175052380D02*
X202985714Y-174052380D01*
X203366666Y-174052380D01*
X203461904Y-174100000D01*
X203509523Y-174147619D01*
X203557142Y-174242857D01*
X203557142Y-174385714D01*
X203509523Y-174480952D01*
X203461904Y-174528571D01*
X203366666Y-174576190D01*
X202985714Y-174576190D01*
X204509523Y-175052380D02*
X203938095Y-175052380D01*
X204223809Y-175052380D02*
X204223809Y-174052380D01*
X204128571Y-174195238D01*
X204033333Y-174290476D01*
X203938095Y-174338095D01*
X205080952Y-174480952D02*
X204985714Y-174433333D01*
X204938095Y-174385714D01*
X204890476Y-174290476D01*
X204890476Y-174242857D01*
X204938095Y-174147619D01*
X204985714Y-174100000D01*
X205080952Y-174052380D01*
X205271428Y-174052380D01*
X205366666Y-174100000D01*
X205414285Y-174147619D01*
X205461904Y-174242857D01*
X205461904Y-174290476D01*
X205414285Y-174385714D01*
X205366666Y-174433333D01*
X205271428Y-174480952D01*
X205080952Y-174480952D01*
X204985714Y-174528571D01*
X204938095Y-174576190D01*
X204890476Y-174671428D01*
X204890476Y-174861904D01*
X204938095Y-174957142D01*
X204985714Y-175004761D01*
X205080952Y-175052380D01*
X205271428Y-175052380D01*
X205366666Y-175004761D01*
X205414285Y-174957142D01*
X205461904Y-174861904D01*
X205461904Y-174671428D01*
X205414285Y-174576190D01*
X205366666Y-174528571D01*
X205271428Y-174480952D01*
%TO.C,RN5*%
X203547619Y-154309523D02*
X204023809Y-153976190D01*
X203547619Y-153738095D02*
X204547619Y-153738095D01*
X204547619Y-154119047D01*
X204500000Y-154214285D01*
X204452380Y-154261904D01*
X204357142Y-154309523D01*
X204214285Y-154309523D01*
X204119047Y-154261904D01*
X204071428Y-154214285D01*
X204023809Y-154119047D01*
X204023809Y-153738095D01*
X203547619Y-154738095D02*
X204547619Y-154738095D01*
X203547619Y-155309523D01*
X204547619Y-155309523D01*
X204547619Y-156261904D02*
X204547619Y-155785714D01*
X204071428Y-155738095D01*
X204119047Y-155785714D01*
X204166666Y-155880952D01*
X204166666Y-156119047D01*
X204119047Y-156214285D01*
X204071428Y-156261904D01*
X203976190Y-156309523D01*
X203738095Y-156309523D01*
X203642857Y-156261904D01*
X203595238Y-156214285D01*
X203547619Y-156119047D01*
X203547619Y-155880952D01*
X203595238Y-155785714D01*
X203642857Y-155738095D01*
%TO.C,R4*%
X201533333Y-172852380D02*
X201200000Y-172376190D01*
X200961904Y-172852380D02*
X200961904Y-171852380D01*
X201342857Y-171852380D01*
X201438095Y-171900000D01*
X201485714Y-171947619D01*
X201533333Y-172042857D01*
X201533333Y-172185714D01*
X201485714Y-172280952D01*
X201438095Y-172328571D01*
X201342857Y-172376190D01*
X200961904Y-172376190D01*
X202390476Y-172185714D02*
X202390476Y-172852380D01*
X202152380Y-171804761D02*
X201914285Y-172519047D01*
X202533333Y-172519047D01*
%TO.C,C14*%
X242727142Y-72042857D02*
X242774761Y-72090476D01*
X242822380Y-72233333D01*
X242822380Y-72328571D01*
X242774761Y-72471428D01*
X242679523Y-72566666D01*
X242584285Y-72614285D01*
X242393809Y-72661904D01*
X242250952Y-72661904D01*
X242060476Y-72614285D01*
X241965238Y-72566666D01*
X241870000Y-72471428D01*
X241822380Y-72328571D01*
X241822380Y-72233333D01*
X241870000Y-72090476D01*
X241917619Y-72042857D01*
X242822380Y-71090476D02*
X242822380Y-71661904D01*
X242822380Y-71376190D02*
X241822380Y-71376190D01*
X241965238Y-71471428D01*
X242060476Y-71566666D01*
X242108095Y-71661904D01*
X242155714Y-70233333D02*
X242822380Y-70233333D01*
X241774761Y-70471428D02*
X242489047Y-70709523D01*
X242489047Y-70090476D01*
%TO.C,C18*%
X239957142Y-85157142D02*
X239909523Y-85204761D01*
X239766666Y-85252380D01*
X239671428Y-85252380D01*
X239528571Y-85204761D01*
X239433333Y-85109523D01*
X239385714Y-85014285D01*
X239338095Y-84823809D01*
X239338095Y-84680952D01*
X239385714Y-84490476D01*
X239433333Y-84395238D01*
X239528571Y-84300000D01*
X239671428Y-84252380D01*
X239766666Y-84252380D01*
X239909523Y-84300000D01*
X239957142Y-84347619D01*
X240909523Y-85252380D02*
X240338095Y-85252380D01*
X240623809Y-85252380D02*
X240623809Y-84252380D01*
X240528571Y-84395238D01*
X240433333Y-84490476D01*
X240338095Y-84538095D01*
X241480952Y-84680952D02*
X241385714Y-84633333D01*
X241338095Y-84585714D01*
X241290476Y-84490476D01*
X241290476Y-84442857D01*
X241338095Y-84347619D01*
X241385714Y-84300000D01*
X241480952Y-84252380D01*
X241671428Y-84252380D01*
X241766666Y-84300000D01*
X241814285Y-84347619D01*
X241861904Y-84442857D01*
X241861904Y-84490476D01*
X241814285Y-84585714D01*
X241766666Y-84633333D01*
X241671428Y-84680952D01*
X241480952Y-84680952D01*
X241385714Y-84728571D01*
X241338095Y-84776190D01*
X241290476Y-84871428D01*
X241290476Y-85061904D01*
X241338095Y-85157142D01*
X241385714Y-85204761D01*
X241480952Y-85252380D01*
X241671428Y-85252380D01*
X241766666Y-85204761D01*
X241814285Y-85157142D01*
X241861904Y-85061904D01*
X241861904Y-84871428D01*
X241814285Y-84776190D01*
X241766666Y-84728571D01*
X241671428Y-84680952D01*
%TO.C,U11*%
X193402380Y-175338095D02*
X194211904Y-175338095D01*
X194307142Y-175290476D01*
X194354761Y-175242857D01*
X194402380Y-175147619D01*
X194402380Y-174957142D01*
X194354761Y-174861904D01*
X194307142Y-174814285D01*
X194211904Y-174766666D01*
X193402380Y-174766666D01*
X194402380Y-173766666D02*
X194402380Y-174338095D01*
X194402380Y-174052380D02*
X193402380Y-174052380D01*
X193545238Y-174147619D01*
X193640476Y-174242857D01*
X193688095Y-174338095D01*
X194402380Y-172814285D02*
X194402380Y-173385714D01*
X194402380Y-173100000D02*
X193402380Y-173100000D01*
X193545238Y-173195238D01*
X193640476Y-173290476D01*
X193688095Y-173385714D01*
%TO.C,R3*%
X201533333Y-174052380D02*
X201200000Y-173576190D01*
X200961904Y-174052380D02*
X200961904Y-173052380D01*
X201342857Y-173052380D01*
X201438095Y-173100000D01*
X201485714Y-173147619D01*
X201533333Y-173242857D01*
X201533333Y-173385714D01*
X201485714Y-173480952D01*
X201438095Y-173528571D01*
X201342857Y-173576190D01*
X200961904Y-173576190D01*
X201866666Y-173052380D02*
X202485714Y-173052380D01*
X202152380Y-173433333D01*
X202295238Y-173433333D01*
X202390476Y-173480952D01*
X202438095Y-173528571D01*
X202485714Y-173623809D01*
X202485714Y-173861904D01*
X202438095Y-173957142D01*
X202390476Y-174004761D01*
X202295238Y-174052380D01*
X202009523Y-174052380D01*
X201914285Y-174004761D01*
X201866666Y-173957142D01*
%TO.C,R22*%
X251757142Y-174652380D02*
X251423809Y-174176190D01*
X251185714Y-174652380D02*
X251185714Y-173652380D01*
X251566666Y-173652380D01*
X251661904Y-173700000D01*
X251709523Y-173747619D01*
X251757142Y-173842857D01*
X251757142Y-173985714D01*
X251709523Y-174080952D01*
X251661904Y-174128571D01*
X251566666Y-174176190D01*
X251185714Y-174176190D01*
X252138095Y-173747619D02*
X252185714Y-173700000D01*
X252280952Y-173652380D01*
X252519047Y-173652380D01*
X252614285Y-173700000D01*
X252661904Y-173747619D01*
X252709523Y-173842857D01*
X252709523Y-173938095D01*
X252661904Y-174080952D01*
X252090476Y-174652380D01*
X252709523Y-174652380D01*
X253090476Y-173747619D02*
X253138095Y-173700000D01*
X253233333Y-173652380D01*
X253471428Y-173652380D01*
X253566666Y-173700000D01*
X253614285Y-173747619D01*
X253661904Y-173842857D01*
X253661904Y-173938095D01*
X253614285Y-174080952D01*
X253042857Y-174652380D01*
X253661904Y-174652380D01*
%TO.C,R6*%
X201533333Y-170452380D02*
X201200000Y-169976190D01*
X200961904Y-170452380D02*
X200961904Y-169452380D01*
X201342857Y-169452380D01*
X201438095Y-169500000D01*
X201485714Y-169547619D01*
X201533333Y-169642857D01*
X201533333Y-169785714D01*
X201485714Y-169880952D01*
X201438095Y-169928571D01*
X201342857Y-169976190D01*
X200961904Y-169976190D01*
X202390476Y-169452380D02*
X202200000Y-169452380D01*
X202104761Y-169500000D01*
X202057142Y-169547619D01*
X201961904Y-169690476D01*
X201914285Y-169880952D01*
X201914285Y-170261904D01*
X201961904Y-170357142D01*
X202009523Y-170404761D01*
X202104761Y-170452380D01*
X202295238Y-170452380D01*
X202390476Y-170404761D01*
X202438095Y-170357142D01*
X202485714Y-170261904D01*
X202485714Y-170023809D01*
X202438095Y-169928571D01*
X202390476Y-169880952D01*
X202295238Y-169833333D01*
X202104761Y-169833333D01*
X202009523Y-169880952D01*
X201961904Y-169928571D01*
X201914285Y-170023809D01*
%TO.C,R14*%
X196157142Y-176552380D02*
X195823809Y-176076190D01*
X195585714Y-176552380D02*
X195585714Y-175552380D01*
X195966666Y-175552380D01*
X196061904Y-175600000D01*
X196109523Y-175647619D01*
X196157142Y-175742857D01*
X196157142Y-175885714D01*
X196109523Y-175980952D01*
X196061904Y-176028571D01*
X195966666Y-176076190D01*
X195585714Y-176076190D01*
X197109523Y-176552380D02*
X196538095Y-176552380D01*
X196823809Y-176552380D02*
X196823809Y-175552380D01*
X196728571Y-175695238D01*
X196633333Y-175790476D01*
X196538095Y-175838095D01*
X197966666Y-175885714D02*
X197966666Y-176552380D01*
X197728571Y-175504761D02*
X197490476Y-176219047D01*
X198109523Y-176219047D01*
%TO.C,U2*%
X193302380Y-159461904D02*
X194111904Y-159461904D01*
X194207142Y-159414285D01*
X194254761Y-159366666D01*
X194302380Y-159271428D01*
X194302380Y-159080952D01*
X194254761Y-158985714D01*
X194207142Y-158938095D01*
X194111904Y-158890476D01*
X193302380Y-158890476D01*
X193397619Y-158461904D02*
X193350000Y-158414285D01*
X193302380Y-158319047D01*
X193302380Y-158080952D01*
X193350000Y-157985714D01*
X193397619Y-157938095D01*
X193492857Y-157890476D01*
X193588095Y-157890476D01*
X193730952Y-157938095D01*
X194302380Y-158509523D01*
X194302380Y-157890476D01*
%TO.C,U3*%
X259877380Y-77706904D02*
X260686904Y-77706904D01*
X260782142Y-77659285D01*
X260829761Y-77611666D01*
X260877380Y-77516428D01*
X260877380Y-77325952D01*
X260829761Y-77230714D01*
X260782142Y-77183095D01*
X260686904Y-77135476D01*
X259877380Y-77135476D01*
X259877380Y-76754523D02*
X259877380Y-76135476D01*
X260258333Y-76468809D01*
X260258333Y-76325952D01*
X260305952Y-76230714D01*
X260353571Y-76183095D01*
X260448809Y-76135476D01*
X260686904Y-76135476D01*
X260782142Y-76183095D01*
X260829761Y-76230714D01*
X260877380Y-76325952D01*
X260877380Y-76611666D01*
X260829761Y-76706904D01*
X260782142Y-76754523D01*
%TO.C,RN10*%
X243047619Y-144833333D02*
X243523809Y-144500000D01*
X243047619Y-144261904D02*
X244047619Y-144261904D01*
X244047619Y-144642857D01*
X244000000Y-144738095D01*
X243952380Y-144785714D01*
X243857142Y-144833333D01*
X243714285Y-144833333D01*
X243619047Y-144785714D01*
X243571428Y-144738095D01*
X243523809Y-144642857D01*
X243523809Y-144261904D01*
X243047619Y-145261904D02*
X244047619Y-145261904D01*
X243047619Y-145833333D01*
X244047619Y-145833333D01*
X243047619Y-146833333D02*
X243047619Y-146261904D01*
X243047619Y-146547619D02*
X244047619Y-146547619D01*
X243904761Y-146452380D01*
X243809523Y-146357142D01*
X243761904Y-146261904D01*
X244047619Y-147452380D02*
X244047619Y-147547619D01*
X244000000Y-147642857D01*
X243952380Y-147690476D01*
X243857142Y-147738095D01*
X243666666Y-147785714D01*
X243428571Y-147785714D01*
X243238095Y-147738095D01*
X243142857Y-147690476D01*
X243095238Y-147642857D01*
X243047619Y-147547619D01*
X243047619Y-147452380D01*
X243095238Y-147357142D01*
X243142857Y-147309523D01*
X243238095Y-147261904D01*
X243428571Y-147214285D01*
X243666666Y-147214285D01*
X243857142Y-147261904D01*
X243952380Y-147309523D01*
X244000000Y-147357142D01*
X244047619Y-147452380D01*
%TO.C,C23*%
X227157142Y-96157142D02*
X227109523Y-96204761D01*
X226966666Y-96252380D01*
X226871428Y-96252380D01*
X226728571Y-96204761D01*
X226633333Y-96109523D01*
X226585714Y-96014285D01*
X226538095Y-95823809D01*
X226538095Y-95680952D01*
X226585714Y-95490476D01*
X226633333Y-95395238D01*
X226728571Y-95300000D01*
X226871428Y-95252380D01*
X226966666Y-95252380D01*
X227109523Y-95300000D01*
X227157142Y-95347619D01*
X227538095Y-95347619D02*
X227585714Y-95300000D01*
X227680952Y-95252380D01*
X227919047Y-95252380D01*
X228014285Y-95300000D01*
X228061904Y-95347619D01*
X228109523Y-95442857D01*
X228109523Y-95538095D01*
X228061904Y-95680952D01*
X227490476Y-96252380D01*
X228109523Y-96252380D01*
X228442857Y-95252380D02*
X229061904Y-95252380D01*
X228728571Y-95633333D01*
X228871428Y-95633333D01*
X228966666Y-95680952D01*
X229014285Y-95728571D01*
X229061904Y-95823809D01*
X229061904Y-96061904D01*
X229014285Y-96157142D01*
X228966666Y-96204761D01*
X228871428Y-96252380D01*
X228585714Y-96252380D01*
X228490476Y-96204761D01*
X228442857Y-96157142D01*
%TO.C,J1*%
X210866666Y-132852380D02*
X210866666Y-133566666D01*
X210819047Y-133709523D01*
X210723809Y-133804761D01*
X210580952Y-133852380D01*
X210485714Y-133852380D01*
X211866666Y-133852380D02*
X211295238Y-133852380D01*
X211580952Y-133852380D02*
X211580952Y-132852380D01*
X211485714Y-132995238D01*
X211390476Y-133090476D01*
X211295238Y-133138095D01*
%TO.C,RN8*%
X224047619Y-136309523D02*
X224523809Y-135976190D01*
X224047619Y-135738095D02*
X225047619Y-135738095D01*
X225047619Y-136119047D01*
X225000000Y-136214285D01*
X224952380Y-136261904D01*
X224857142Y-136309523D01*
X224714285Y-136309523D01*
X224619047Y-136261904D01*
X224571428Y-136214285D01*
X224523809Y-136119047D01*
X224523809Y-135738095D01*
X224047619Y-136738095D02*
X225047619Y-136738095D01*
X224047619Y-137309523D01*
X225047619Y-137309523D01*
X224619047Y-137928571D02*
X224666666Y-137833333D01*
X224714285Y-137785714D01*
X224809523Y-137738095D01*
X224857142Y-137738095D01*
X224952380Y-137785714D01*
X225000000Y-137833333D01*
X225047619Y-137928571D01*
X225047619Y-138119047D01*
X225000000Y-138214285D01*
X224952380Y-138261904D01*
X224857142Y-138309523D01*
X224809523Y-138309523D01*
X224714285Y-138261904D01*
X224666666Y-138214285D01*
X224619047Y-138119047D01*
X224619047Y-137928571D01*
X224571428Y-137833333D01*
X224523809Y-137785714D01*
X224428571Y-137738095D01*
X224238095Y-137738095D01*
X224142857Y-137785714D01*
X224095238Y-137833333D01*
X224047619Y-137928571D01*
X224047619Y-138119047D01*
X224095238Y-138214285D01*
X224142857Y-138261904D01*
X224238095Y-138309523D01*
X224428571Y-138309523D01*
X224523809Y-138261904D01*
X224571428Y-138214285D01*
X224619047Y-138119047D01*
%TO.C,U9*%
X267602380Y-143761904D02*
X268411904Y-143761904D01*
X268507142Y-143714285D01*
X268554761Y-143666666D01*
X268602380Y-143571428D01*
X268602380Y-143380952D01*
X268554761Y-143285714D01*
X268507142Y-143238095D01*
X268411904Y-143190476D01*
X267602380Y-143190476D01*
X268602380Y-142666666D02*
X268602380Y-142476190D01*
X268554761Y-142380952D01*
X268507142Y-142333333D01*
X268364285Y-142238095D01*
X268173809Y-142190476D01*
X267792857Y-142190476D01*
X267697619Y-142238095D01*
X267650000Y-142285714D01*
X267602380Y-142380952D01*
X267602380Y-142571428D01*
X267650000Y-142666666D01*
X267697619Y-142714285D01*
X267792857Y-142761904D01*
X268030952Y-142761904D01*
X268126190Y-142714285D01*
X268173809Y-142666666D01*
X268221428Y-142571428D01*
X268221428Y-142380952D01*
X268173809Y-142285714D01*
X268126190Y-142238095D01*
X268030952Y-142190476D01*
%TO.C,D5*%
X236352380Y-92938095D02*
X235352380Y-92938095D01*
X235352380Y-92700000D01*
X235400000Y-92557142D01*
X235495238Y-92461904D01*
X235590476Y-92414285D01*
X235780952Y-92366666D01*
X235923809Y-92366666D01*
X236114285Y-92414285D01*
X236209523Y-92461904D01*
X236304761Y-92557142D01*
X236352380Y-92700000D01*
X236352380Y-92938095D01*
X235352380Y-91461904D02*
X235352380Y-91938095D01*
X235828571Y-91985714D01*
X235780952Y-91938095D01*
X235733333Y-91842857D01*
X235733333Y-91604761D01*
X235780952Y-91509523D01*
X235828571Y-91461904D01*
X235923809Y-91414285D01*
X236161904Y-91414285D01*
X236257142Y-91461904D01*
X236304761Y-91509523D01*
X236352380Y-91604761D01*
X236352380Y-91842857D01*
X236304761Y-91938095D01*
X236257142Y-91985714D01*
%TO.C,U12*%
X229676904Y-88702380D02*
X229676904Y-89511904D01*
X229724523Y-89607142D01*
X229772142Y-89654761D01*
X229867380Y-89702380D01*
X230057857Y-89702380D01*
X230153095Y-89654761D01*
X230200714Y-89607142D01*
X230248333Y-89511904D01*
X230248333Y-88702380D01*
X231248333Y-89702380D02*
X230676904Y-89702380D01*
X230962619Y-89702380D02*
X230962619Y-88702380D01*
X230867380Y-88845238D01*
X230772142Y-88940476D01*
X230676904Y-88988095D01*
X231629285Y-88797619D02*
X231676904Y-88750000D01*
X231772142Y-88702380D01*
X232010238Y-88702380D01*
X232105476Y-88750000D01*
X232153095Y-88797619D01*
X232200714Y-88892857D01*
X232200714Y-88988095D01*
X232153095Y-89130952D01*
X231581666Y-89702380D01*
X232200714Y-89702380D01*
%TO.C,D6*%
X273382380Y-72738095D02*
X272382380Y-72738095D01*
X272382380Y-72500000D01*
X272430000Y-72357142D01*
X272525238Y-72261904D01*
X272620476Y-72214285D01*
X272810952Y-72166666D01*
X272953809Y-72166666D01*
X273144285Y-72214285D01*
X273239523Y-72261904D01*
X273334761Y-72357142D01*
X273382380Y-72500000D01*
X273382380Y-72738095D01*
X272382380Y-71309523D02*
X272382380Y-71500000D01*
X272430000Y-71595238D01*
X272477619Y-71642857D01*
X272620476Y-71738095D01*
X272810952Y-71785714D01*
X273191904Y-71785714D01*
X273287142Y-71738095D01*
X273334761Y-71690476D01*
X273382380Y-71595238D01*
X273382380Y-71404761D01*
X273334761Y-71309523D01*
X273287142Y-71261904D01*
X273191904Y-71214285D01*
X272953809Y-71214285D01*
X272858571Y-71261904D01*
X272810952Y-71309523D01*
X272763333Y-71404761D01*
X272763333Y-71595238D01*
X272810952Y-71690476D01*
X272858571Y-71738095D01*
X272953809Y-71785714D01*
%TO.C,R9*%
X239033333Y-110652380D02*
X238700000Y-110176190D01*
X238461904Y-110652380D02*
X238461904Y-109652380D01*
X238842857Y-109652380D01*
X238938095Y-109700000D01*
X238985714Y-109747619D01*
X239033333Y-109842857D01*
X239033333Y-109985714D01*
X238985714Y-110080952D01*
X238938095Y-110128571D01*
X238842857Y-110176190D01*
X238461904Y-110176190D01*
X239509523Y-110652380D02*
X239700000Y-110652380D01*
X239795238Y-110604761D01*
X239842857Y-110557142D01*
X239938095Y-110414285D01*
X239985714Y-110223809D01*
X239985714Y-109842857D01*
X239938095Y-109747619D01*
X239890476Y-109700000D01*
X239795238Y-109652380D01*
X239604761Y-109652380D01*
X239509523Y-109700000D01*
X239461904Y-109747619D01*
X239414285Y-109842857D01*
X239414285Y-110080952D01*
X239461904Y-110176190D01*
X239509523Y-110223809D01*
X239604761Y-110271428D01*
X239795238Y-110271428D01*
X239890476Y-110223809D01*
X239938095Y-110176190D01*
X239985714Y-110080952D01*
%TO.C,R21*%
X251757142Y-173352380D02*
X251423809Y-172876190D01*
X251185714Y-173352380D02*
X251185714Y-172352380D01*
X251566666Y-172352380D01*
X251661904Y-172400000D01*
X251709523Y-172447619D01*
X251757142Y-172542857D01*
X251757142Y-172685714D01*
X251709523Y-172780952D01*
X251661904Y-172828571D01*
X251566666Y-172876190D01*
X251185714Y-172876190D01*
X252138095Y-172447619D02*
X252185714Y-172400000D01*
X252280952Y-172352380D01*
X252519047Y-172352380D01*
X252614285Y-172400000D01*
X252661904Y-172447619D01*
X252709523Y-172542857D01*
X252709523Y-172638095D01*
X252661904Y-172780952D01*
X252090476Y-173352380D01*
X252709523Y-173352380D01*
X253661904Y-173352380D02*
X253090476Y-173352380D01*
X253376190Y-173352380D02*
X253376190Y-172352380D01*
X253280952Y-172495238D01*
X253185714Y-172590476D01*
X253090476Y-172638095D01*
%TO.C,C24*%
X215857142Y-103257142D02*
X215809523Y-103304761D01*
X215666666Y-103352380D01*
X215571428Y-103352380D01*
X215428571Y-103304761D01*
X215333333Y-103209523D01*
X215285714Y-103114285D01*
X215238095Y-102923809D01*
X215238095Y-102780952D01*
X215285714Y-102590476D01*
X215333333Y-102495238D01*
X215428571Y-102400000D01*
X215571428Y-102352380D01*
X215666666Y-102352380D01*
X215809523Y-102400000D01*
X215857142Y-102447619D01*
X216238095Y-102447619D02*
X216285714Y-102400000D01*
X216380952Y-102352380D01*
X216619047Y-102352380D01*
X216714285Y-102400000D01*
X216761904Y-102447619D01*
X216809523Y-102542857D01*
X216809523Y-102638095D01*
X216761904Y-102780952D01*
X216190476Y-103352380D01*
X216809523Y-103352380D01*
X217666666Y-102685714D02*
X217666666Y-103352380D01*
X217428571Y-102304761D02*
X217190476Y-103019047D01*
X217809523Y-103019047D01*
%TO.C,C8*%
X223157142Y-108966666D02*
X223204761Y-109014285D01*
X223252380Y-109157142D01*
X223252380Y-109252380D01*
X223204761Y-109395238D01*
X223109523Y-109490476D01*
X223014285Y-109538095D01*
X222823809Y-109585714D01*
X222680952Y-109585714D01*
X222490476Y-109538095D01*
X222395238Y-109490476D01*
X222300000Y-109395238D01*
X222252380Y-109252380D01*
X222252380Y-109157142D01*
X222300000Y-109014285D01*
X222347619Y-108966666D01*
X222680952Y-108395238D02*
X222633333Y-108490476D01*
X222585714Y-108538095D01*
X222490476Y-108585714D01*
X222442857Y-108585714D01*
X222347619Y-108538095D01*
X222300000Y-108490476D01*
X222252380Y-108395238D01*
X222252380Y-108204761D01*
X222300000Y-108109523D01*
X222347619Y-108061904D01*
X222442857Y-108014285D01*
X222490476Y-108014285D01*
X222585714Y-108061904D01*
X222633333Y-108109523D01*
X222680952Y-108204761D01*
X222680952Y-108395238D01*
X222728571Y-108490476D01*
X222776190Y-108538095D01*
X222871428Y-108585714D01*
X223061904Y-108585714D01*
X223157142Y-108538095D01*
X223204761Y-108490476D01*
X223252380Y-108395238D01*
X223252380Y-108204761D01*
X223204761Y-108109523D01*
X223157142Y-108061904D01*
X223061904Y-108014285D01*
X222871428Y-108014285D01*
X222776190Y-108061904D01*
X222728571Y-108109523D01*
X222680952Y-108204761D01*
%TO.C,C20*%
X225557142Y-75857142D02*
X225509523Y-75904761D01*
X225366666Y-75952380D01*
X225271428Y-75952380D01*
X225128571Y-75904761D01*
X225033333Y-75809523D01*
X224985714Y-75714285D01*
X224938095Y-75523809D01*
X224938095Y-75380952D01*
X224985714Y-75190476D01*
X225033333Y-75095238D01*
X225128571Y-75000000D01*
X225271428Y-74952380D01*
X225366666Y-74952380D01*
X225509523Y-75000000D01*
X225557142Y-75047619D01*
X225938095Y-75047619D02*
X225985714Y-75000000D01*
X226080952Y-74952380D01*
X226319047Y-74952380D01*
X226414285Y-75000000D01*
X226461904Y-75047619D01*
X226509523Y-75142857D01*
X226509523Y-75238095D01*
X226461904Y-75380952D01*
X225890476Y-75952380D01*
X226509523Y-75952380D01*
X227128571Y-74952380D02*
X227223809Y-74952380D01*
X227319047Y-75000000D01*
X227366666Y-75047619D01*
X227414285Y-75142857D01*
X227461904Y-75333333D01*
X227461904Y-75571428D01*
X227414285Y-75761904D01*
X227366666Y-75857142D01*
X227319047Y-75904761D01*
X227223809Y-75952380D01*
X227128571Y-75952380D01*
X227033333Y-75904761D01*
X226985714Y-75857142D01*
X226938095Y-75761904D01*
X226890476Y-75571428D01*
X226890476Y-75333333D01*
X226938095Y-75142857D01*
X226985714Y-75047619D01*
X227033333Y-75000000D01*
X227128571Y-74952380D01*
%TO.C,C9*%
X268657142Y-154366666D02*
X268704761Y-154414285D01*
X268752380Y-154557142D01*
X268752380Y-154652380D01*
X268704761Y-154795238D01*
X268609523Y-154890476D01*
X268514285Y-154938095D01*
X268323809Y-154985714D01*
X268180952Y-154985714D01*
X267990476Y-154938095D01*
X267895238Y-154890476D01*
X267800000Y-154795238D01*
X267752380Y-154652380D01*
X267752380Y-154557142D01*
X267800000Y-154414285D01*
X267847619Y-154366666D01*
X268752380Y-153890476D02*
X268752380Y-153700000D01*
X268704761Y-153604761D01*
X268657142Y-153557142D01*
X268514285Y-153461904D01*
X268323809Y-153414285D01*
X267942857Y-153414285D01*
X267847619Y-153461904D01*
X267800000Y-153509523D01*
X267752380Y-153604761D01*
X267752380Y-153795238D01*
X267800000Y-153890476D01*
X267847619Y-153938095D01*
X267942857Y-153985714D01*
X268180952Y-153985714D01*
X268276190Y-153938095D01*
X268323809Y-153890476D01*
X268371428Y-153795238D01*
X268371428Y-153604761D01*
X268323809Y-153509523D01*
X268276190Y-153461904D01*
X268180952Y-153414285D01*
%TO.C,U10*%
X267602380Y-127238095D02*
X268411904Y-127238095D01*
X268507142Y-127190476D01*
X268554761Y-127142857D01*
X268602380Y-127047619D01*
X268602380Y-126857142D01*
X268554761Y-126761904D01*
X268507142Y-126714285D01*
X268411904Y-126666666D01*
X267602380Y-126666666D01*
X268602380Y-125666666D02*
X268602380Y-126238095D01*
X268602380Y-125952380D02*
X267602380Y-125952380D01*
X267745238Y-126047619D01*
X267840476Y-126142857D01*
X267888095Y-126238095D01*
X267602380Y-125047619D02*
X267602380Y-124952380D01*
X267650000Y-124857142D01*
X267697619Y-124809523D01*
X267792857Y-124761904D01*
X267983333Y-124714285D01*
X268221428Y-124714285D01*
X268411904Y-124761904D01*
X268507142Y-124809523D01*
X268554761Y-124857142D01*
X268602380Y-124952380D01*
X268602380Y-125047619D01*
X268554761Y-125142857D01*
X268507142Y-125190476D01*
X268411904Y-125238095D01*
X268221428Y-125285714D01*
X267983333Y-125285714D01*
X267792857Y-125238095D01*
X267697619Y-125190476D01*
X267650000Y-125142857D01*
X267602380Y-125047619D01*
%TO.C,C3*%
X254557142Y-80166666D02*
X254604761Y-80214285D01*
X254652380Y-80357142D01*
X254652380Y-80452380D01*
X254604761Y-80595238D01*
X254509523Y-80690476D01*
X254414285Y-80738095D01*
X254223809Y-80785714D01*
X254080952Y-80785714D01*
X253890476Y-80738095D01*
X253795238Y-80690476D01*
X253700000Y-80595238D01*
X253652380Y-80452380D01*
X253652380Y-80357142D01*
X253700000Y-80214285D01*
X253747619Y-80166666D01*
X253652380Y-79833333D02*
X253652380Y-79214285D01*
X254033333Y-79547619D01*
X254033333Y-79404761D01*
X254080952Y-79309523D01*
X254128571Y-79261904D01*
X254223809Y-79214285D01*
X254461904Y-79214285D01*
X254557142Y-79261904D01*
X254604761Y-79309523D01*
X254652380Y-79404761D01*
X254652380Y-79690476D01*
X254604761Y-79785714D01*
X254557142Y-79833333D01*
%TO.C,R10*%
X238557142Y-106352380D02*
X238223809Y-105876190D01*
X237985714Y-106352380D02*
X237985714Y-105352380D01*
X238366666Y-105352380D01*
X238461904Y-105400000D01*
X238509523Y-105447619D01*
X238557142Y-105542857D01*
X238557142Y-105685714D01*
X238509523Y-105780952D01*
X238461904Y-105828571D01*
X238366666Y-105876190D01*
X237985714Y-105876190D01*
X239509523Y-106352380D02*
X238938095Y-106352380D01*
X239223809Y-106352380D02*
X239223809Y-105352380D01*
X239128571Y-105495238D01*
X239033333Y-105590476D01*
X238938095Y-105638095D01*
X240128571Y-105352380D02*
X240223809Y-105352380D01*
X240319047Y-105400000D01*
X240366666Y-105447619D01*
X240414285Y-105542857D01*
X240461904Y-105733333D01*
X240461904Y-105971428D01*
X240414285Y-106161904D01*
X240366666Y-106257142D01*
X240319047Y-106304761D01*
X240223809Y-106352380D01*
X240128571Y-106352380D01*
X240033333Y-106304761D01*
X239985714Y-106257142D01*
X239938095Y-106161904D01*
X239890476Y-105971428D01*
X239890476Y-105733333D01*
X239938095Y-105542857D01*
X239985714Y-105447619D01*
X240033333Y-105400000D01*
X240128571Y-105352380D01*
%TO.C,J2*%
X233266666Y-72652380D02*
X233266666Y-73366666D01*
X233219047Y-73509523D01*
X233123809Y-73604761D01*
X232980952Y-73652380D01*
X232885714Y-73652380D01*
X233695238Y-72747619D02*
X233742857Y-72700000D01*
X233838095Y-72652380D01*
X234076190Y-72652380D01*
X234171428Y-72700000D01*
X234219047Y-72747619D01*
X234266666Y-72842857D01*
X234266666Y-72938095D01*
X234219047Y-73080952D01*
X233647619Y-73652380D01*
X234266666Y-73652380D01*
%TO.C,RN13*%
X243047619Y-153833333D02*
X243523809Y-153500000D01*
X243047619Y-153261904D02*
X244047619Y-153261904D01*
X244047619Y-153642857D01*
X244000000Y-153738095D01*
X243952380Y-153785714D01*
X243857142Y-153833333D01*
X243714285Y-153833333D01*
X243619047Y-153785714D01*
X243571428Y-153738095D01*
X243523809Y-153642857D01*
X243523809Y-153261904D01*
X243047619Y-154261904D02*
X244047619Y-154261904D01*
X243047619Y-154833333D01*
X244047619Y-154833333D01*
X243047619Y-155833333D02*
X243047619Y-155261904D01*
X243047619Y-155547619D02*
X244047619Y-155547619D01*
X243904761Y-155452380D01*
X243809523Y-155357142D01*
X243761904Y-155261904D01*
X244047619Y-156166666D02*
X244047619Y-156785714D01*
X243666666Y-156452380D01*
X243666666Y-156595238D01*
X243619047Y-156690476D01*
X243571428Y-156738095D01*
X243476190Y-156785714D01*
X243238095Y-156785714D01*
X243142857Y-156738095D01*
X243095238Y-156690476D01*
X243047619Y-156595238D01*
X243047619Y-156309523D01*
X243095238Y-156214285D01*
X243142857Y-156166666D01*
%TO.C,D3*%
X244961904Y-107952380D02*
X244961904Y-106952380D01*
X245200000Y-106952380D01*
X245342857Y-107000000D01*
X245438095Y-107095238D01*
X245485714Y-107190476D01*
X245533333Y-107380952D01*
X245533333Y-107523809D01*
X245485714Y-107714285D01*
X245438095Y-107809523D01*
X245342857Y-107904761D01*
X245200000Y-107952380D01*
X244961904Y-107952380D01*
X245866666Y-106952380D02*
X246485714Y-106952380D01*
X246152380Y-107333333D01*
X246295238Y-107333333D01*
X246390476Y-107380952D01*
X246438095Y-107428571D01*
X246485714Y-107523809D01*
X246485714Y-107761904D01*
X246438095Y-107857142D01*
X246390476Y-107904761D01*
X246295238Y-107952380D01*
X246009523Y-107952380D01*
X245914285Y-107904761D01*
X245866666Y-107857142D01*
%TO.C,R13*%
X203457142Y-178052380D02*
X203123809Y-177576190D01*
X202885714Y-178052380D02*
X202885714Y-177052380D01*
X203266666Y-177052380D01*
X203361904Y-177100000D01*
X203409523Y-177147619D01*
X203457142Y-177242857D01*
X203457142Y-177385714D01*
X203409523Y-177480952D01*
X203361904Y-177528571D01*
X203266666Y-177576190D01*
X202885714Y-177576190D01*
X204409523Y-178052380D02*
X203838095Y-178052380D01*
X204123809Y-178052380D02*
X204123809Y-177052380D01*
X204028571Y-177195238D01*
X203933333Y-177290476D01*
X203838095Y-177338095D01*
X204742857Y-177052380D02*
X205361904Y-177052380D01*
X205028571Y-177433333D01*
X205171428Y-177433333D01*
X205266666Y-177480952D01*
X205314285Y-177528571D01*
X205361904Y-177623809D01*
X205361904Y-177861904D01*
X205314285Y-177957142D01*
X205266666Y-178004761D01*
X205171428Y-178052380D01*
X204885714Y-178052380D01*
X204790476Y-178004761D01*
X204742857Y-177957142D01*
%TO.C,C5*%
X269587142Y-80166666D02*
X269634761Y-80214285D01*
X269682380Y-80357142D01*
X269682380Y-80452380D01*
X269634761Y-80595238D01*
X269539523Y-80690476D01*
X269444285Y-80738095D01*
X269253809Y-80785714D01*
X269110952Y-80785714D01*
X268920476Y-80738095D01*
X268825238Y-80690476D01*
X268730000Y-80595238D01*
X268682380Y-80452380D01*
X268682380Y-80357142D01*
X268730000Y-80214285D01*
X268777619Y-80166666D01*
X268682380Y-79261904D02*
X268682380Y-79738095D01*
X269158571Y-79785714D01*
X269110952Y-79738095D01*
X269063333Y-79642857D01*
X269063333Y-79404761D01*
X269110952Y-79309523D01*
X269158571Y-79261904D01*
X269253809Y-79214285D01*
X269491904Y-79214285D01*
X269587142Y-79261904D01*
X269634761Y-79309523D01*
X269682380Y-79404761D01*
X269682380Y-79642857D01*
X269634761Y-79738095D01*
X269587142Y-79785714D01*
%TO.C,C7*%
X194257142Y-147566666D02*
X194304761Y-147614285D01*
X194352380Y-147757142D01*
X194352380Y-147852380D01*
X194304761Y-147995238D01*
X194209523Y-148090476D01*
X194114285Y-148138095D01*
X193923809Y-148185714D01*
X193780952Y-148185714D01*
X193590476Y-148138095D01*
X193495238Y-148090476D01*
X193400000Y-147995238D01*
X193352380Y-147852380D01*
X193352380Y-147757142D01*
X193400000Y-147614285D01*
X193447619Y-147566666D01*
X193352380Y-147233333D02*
X193352380Y-146566666D01*
X194352380Y-146995238D01*
%TO.C,RN6*%
X203547619Y-136309523D02*
X204023809Y-135976190D01*
X203547619Y-135738095D02*
X204547619Y-135738095D01*
X204547619Y-136119047D01*
X204500000Y-136214285D01*
X204452380Y-136261904D01*
X204357142Y-136309523D01*
X204214285Y-136309523D01*
X204119047Y-136261904D01*
X204071428Y-136214285D01*
X204023809Y-136119047D01*
X204023809Y-135738095D01*
X203547619Y-136738095D02*
X204547619Y-136738095D01*
X203547619Y-137309523D01*
X204547619Y-137309523D01*
X204547619Y-138214285D02*
X204547619Y-138023809D01*
X204500000Y-137928571D01*
X204452380Y-137880952D01*
X204309523Y-137785714D01*
X204119047Y-137738095D01*
X203738095Y-137738095D01*
X203642857Y-137785714D01*
X203595238Y-137833333D01*
X203547619Y-137928571D01*
X203547619Y-138119047D01*
X203595238Y-138214285D01*
X203642857Y-138261904D01*
X203738095Y-138309523D01*
X203976190Y-138309523D01*
X204071428Y-138261904D01*
X204119047Y-138214285D01*
X204166666Y-138119047D01*
X204166666Y-137928571D01*
X204119047Y-137833333D01*
X204071428Y-137785714D01*
X203976190Y-137738095D01*
%TO.C,C2*%
X194557142Y-163566666D02*
X194604761Y-163614285D01*
X194652380Y-163757142D01*
X194652380Y-163852380D01*
X194604761Y-163995238D01*
X194509523Y-164090476D01*
X194414285Y-164138095D01*
X194223809Y-164185714D01*
X194080952Y-164185714D01*
X193890476Y-164138095D01*
X193795238Y-164090476D01*
X193700000Y-163995238D01*
X193652380Y-163852380D01*
X193652380Y-163757142D01*
X193700000Y-163614285D01*
X193747619Y-163566666D01*
X193747619Y-163185714D02*
X193700000Y-163138095D01*
X193652380Y-163042857D01*
X193652380Y-162804761D01*
X193700000Y-162709523D01*
X193747619Y-162661904D01*
X193842857Y-162614285D01*
X193938095Y-162614285D01*
X194080952Y-162661904D01*
X194652380Y-163233333D01*
X194652380Y-162614285D01*
%TO.C,C22*%
X224302142Y-67137142D02*
X224254523Y-67184761D01*
X224111666Y-67232380D01*
X224016428Y-67232380D01*
X223873571Y-67184761D01*
X223778333Y-67089523D01*
X223730714Y-66994285D01*
X223683095Y-66803809D01*
X223683095Y-66660952D01*
X223730714Y-66470476D01*
X223778333Y-66375238D01*
X223873571Y-66280000D01*
X224016428Y-66232380D01*
X224111666Y-66232380D01*
X224254523Y-66280000D01*
X224302142Y-66327619D01*
X224683095Y-66327619D02*
X224730714Y-66280000D01*
X224825952Y-66232380D01*
X225064047Y-66232380D01*
X225159285Y-66280000D01*
X225206904Y-66327619D01*
X225254523Y-66422857D01*
X225254523Y-66518095D01*
X225206904Y-66660952D01*
X224635476Y-67232380D01*
X225254523Y-67232380D01*
X225635476Y-66327619D02*
X225683095Y-66280000D01*
X225778333Y-66232380D01*
X226016428Y-66232380D01*
X226111666Y-66280000D01*
X226159285Y-66327619D01*
X226206904Y-66422857D01*
X226206904Y-66518095D01*
X226159285Y-66660952D01*
X225587857Y-67232380D01*
X226206904Y-67232380D01*
%TO.C,TP1*%
X248254380Y-81661904D02*
X248254380Y-81090476D01*
X249254380Y-81376190D02*
X248254380Y-81376190D01*
X249254380Y-80757142D02*
X248254380Y-80757142D01*
X248254380Y-80376190D01*
X248302000Y-80280952D01*
X248349619Y-80233333D01*
X248444857Y-80185714D01*
X248587714Y-80185714D01*
X248682952Y-80233333D01*
X248730571Y-80280952D01*
X248778190Y-80376190D01*
X248778190Y-80757142D01*
X249254380Y-79233333D02*
X249254380Y-79804761D01*
X249254380Y-79519047D02*
X248254380Y-79519047D01*
X248397238Y-79614285D01*
X248492476Y-79709523D01*
X248540095Y-79804761D01*
%TO.C,RN4*%
X224047619Y-145309523D02*
X224523809Y-144976190D01*
X224047619Y-144738095D02*
X225047619Y-144738095D01*
X225047619Y-145119047D01*
X225000000Y-145214285D01*
X224952380Y-145261904D01*
X224857142Y-145309523D01*
X224714285Y-145309523D01*
X224619047Y-145261904D01*
X224571428Y-145214285D01*
X224523809Y-145119047D01*
X224523809Y-144738095D01*
X224047619Y-145738095D02*
X225047619Y-145738095D01*
X224047619Y-146309523D01*
X225047619Y-146309523D01*
X224714285Y-147214285D02*
X224047619Y-147214285D01*
X225095238Y-146976190D02*
X224380952Y-146738095D01*
X224380952Y-147357142D01*
%TO.C,RN9*%
X243047619Y-163309523D02*
X243523809Y-162976190D01*
X243047619Y-162738095D02*
X244047619Y-162738095D01*
X244047619Y-163119047D01*
X244000000Y-163214285D01*
X243952380Y-163261904D01*
X243857142Y-163309523D01*
X243714285Y-163309523D01*
X243619047Y-163261904D01*
X243571428Y-163214285D01*
X243523809Y-163119047D01*
X243523809Y-162738095D01*
X243047619Y-163738095D02*
X244047619Y-163738095D01*
X243047619Y-164309523D01*
X244047619Y-164309523D01*
X243047619Y-164833333D02*
X243047619Y-165023809D01*
X243095238Y-165119047D01*
X243142857Y-165166666D01*
X243285714Y-165261904D01*
X243476190Y-165309523D01*
X243857142Y-165309523D01*
X243952380Y-165261904D01*
X244000000Y-165214285D01*
X244047619Y-165119047D01*
X244047619Y-164928571D01*
X244000000Y-164833333D01*
X243952380Y-164785714D01*
X243857142Y-164738095D01*
X243619047Y-164738095D01*
X243523809Y-164785714D01*
X243476190Y-164833333D01*
X243428571Y-164928571D01*
X243428571Y-165119047D01*
X243476190Y-165214285D01*
X243523809Y-165261904D01*
X243619047Y-165309523D01*
%TO.C,C12*%
X268457142Y-121642857D02*
X268504761Y-121690476D01*
X268552380Y-121833333D01*
X268552380Y-121928571D01*
X268504761Y-122071428D01*
X268409523Y-122166666D01*
X268314285Y-122214285D01*
X268123809Y-122261904D01*
X267980952Y-122261904D01*
X267790476Y-122214285D01*
X267695238Y-122166666D01*
X267600000Y-122071428D01*
X267552380Y-121928571D01*
X267552380Y-121833333D01*
X267600000Y-121690476D01*
X267647619Y-121642857D01*
X268552380Y-120690476D02*
X268552380Y-121261904D01*
X268552380Y-120976190D02*
X267552380Y-120976190D01*
X267695238Y-121071428D01*
X267790476Y-121166666D01*
X267838095Y-121261904D01*
X267647619Y-120309523D02*
X267600000Y-120261904D01*
X267552380Y-120166666D01*
X267552380Y-119928571D01*
X267600000Y-119833333D01*
X267647619Y-119785714D01*
X267742857Y-119738095D01*
X267838095Y-119738095D01*
X267980952Y-119785714D01*
X268552380Y-120357142D01*
X268552380Y-119738095D01*
%TO.C,C11*%
X268357142Y-138442857D02*
X268404761Y-138490476D01*
X268452380Y-138633333D01*
X268452380Y-138728571D01*
X268404761Y-138871428D01*
X268309523Y-138966666D01*
X268214285Y-139014285D01*
X268023809Y-139061904D01*
X267880952Y-139061904D01*
X267690476Y-139014285D01*
X267595238Y-138966666D01*
X267500000Y-138871428D01*
X267452380Y-138728571D01*
X267452380Y-138633333D01*
X267500000Y-138490476D01*
X267547619Y-138442857D01*
X268452380Y-137490476D02*
X268452380Y-138061904D01*
X268452380Y-137776190D02*
X267452380Y-137776190D01*
X267595238Y-137871428D01*
X267690476Y-137966666D01*
X267738095Y-138061904D01*
X268452380Y-136538095D02*
X268452380Y-137109523D01*
X268452380Y-136823809D02*
X267452380Y-136823809D01*
X267595238Y-136919047D01*
X267690476Y-137014285D01*
X267738095Y-137109523D01*
%TO.C,C16*%
X218957142Y-84257142D02*
X218909523Y-84304761D01*
X218766666Y-84352380D01*
X218671428Y-84352380D01*
X218528571Y-84304761D01*
X218433333Y-84209523D01*
X218385714Y-84114285D01*
X218338095Y-83923809D01*
X218338095Y-83780952D01*
X218385714Y-83590476D01*
X218433333Y-83495238D01*
X218528571Y-83400000D01*
X218671428Y-83352380D01*
X218766666Y-83352380D01*
X218909523Y-83400000D01*
X218957142Y-83447619D01*
X219909523Y-84352380D02*
X219338095Y-84352380D01*
X219623809Y-84352380D02*
X219623809Y-83352380D01*
X219528571Y-83495238D01*
X219433333Y-83590476D01*
X219338095Y-83638095D01*
X220766666Y-83352380D02*
X220576190Y-83352380D01*
X220480952Y-83400000D01*
X220433333Y-83447619D01*
X220338095Y-83590476D01*
X220290476Y-83780952D01*
X220290476Y-84161904D01*
X220338095Y-84257142D01*
X220385714Y-84304761D01*
X220480952Y-84352380D01*
X220671428Y-84352380D01*
X220766666Y-84304761D01*
X220814285Y-84257142D01*
X220861904Y-84161904D01*
X220861904Y-83923809D01*
X220814285Y-83828571D01*
X220766666Y-83780952D01*
X220671428Y-83733333D01*
X220480952Y-83733333D01*
X220385714Y-83780952D01*
X220338095Y-83828571D01*
X220290476Y-83923809D01*
%TO.C,C21*%
X235257142Y-75857142D02*
X235209523Y-75904761D01*
X235066666Y-75952380D01*
X234971428Y-75952380D01*
X234828571Y-75904761D01*
X234733333Y-75809523D01*
X234685714Y-75714285D01*
X234638095Y-75523809D01*
X234638095Y-75380952D01*
X234685714Y-75190476D01*
X234733333Y-75095238D01*
X234828571Y-75000000D01*
X234971428Y-74952380D01*
X235066666Y-74952380D01*
X235209523Y-75000000D01*
X235257142Y-75047619D01*
X235638095Y-75047619D02*
X235685714Y-75000000D01*
X235780952Y-74952380D01*
X236019047Y-74952380D01*
X236114285Y-75000000D01*
X236161904Y-75047619D01*
X236209523Y-75142857D01*
X236209523Y-75238095D01*
X236161904Y-75380952D01*
X235590476Y-75952380D01*
X236209523Y-75952380D01*
X237161904Y-75952380D02*
X236590476Y-75952380D01*
X236876190Y-75952380D02*
X236876190Y-74952380D01*
X236780952Y-75095238D01*
X236685714Y-75190476D01*
X236590476Y-75238095D01*
%TO.C,R23*%
X251757142Y-176052380D02*
X251423809Y-175576190D01*
X251185714Y-176052380D02*
X251185714Y-175052380D01*
X251566666Y-175052380D01*
X251661904Y-175100000D01*
X251709523Y-175147619D01*
X251757142Y-175242857D01*
X251757142Y-175385714D01*
X251709523Y-175480952D01*
X251661904Y-175528571D01*
X251566666Y-175576190D01*
X251185714Y-175576190D01*
X252138095Y-175147619D02*
X252185714Y-175100000D01*
X252280952Y-175052380D01*
X252519047Y-175052380D01*
X252614285Y-175100000D01*
X252661904Y-175147619D01*
X252709523Y-175242857D01*
X252709523Y-175338095D01*
X252661904Y-175480952D01*
X252090476Y-176052380D01*
X252709523Y-176052380D01*
X253042857Y-175052380D02*
X253661904Y-175052380D01*
X253328571Y-175433333D01*
X253471428Y-175433333D01*
X253566666Y-175480952D01*
X253614285Y-175528571D01*
X253661904Y-175623809D01*
X253661904Y-175861904D01*
X253614285Y-175957142D01*
X253566666Y-176004761D01*
X253471428Y-176052380D01*
X253185714Y-176052380D01*
X253090476Y-176004761D01*
X253042857Y-175957142D01*
%TO.C,TP2*%
X275138095Y-77954380D02*
X275709523Y-77954380D01*
X275423809Y-78954380D02*
X275423809Y-77954380D01*
X276042857Y-78954380D02*
X276042857Y-77954380D01*
X276423809Y-77954380D01*
X276519047Y-78002000D01*
X276566666Y-78049619D01*
X276614285Y-78144857D01*
X276614285Y-78287714D01*
X276566666Y-78382952D01*
X276519047Y-78430571D01*
X276423809Y-78478190D01*
X276042857Y-78478190D01*
X276995238Y-78049619D02*
X277042857Y-78002000D01*
X277138095Y-77954380D01*
X277376190Y-77954380D01*
X277471428Y-78002000D01*
X277519047Y-78049619D01*
X277566666Y-78144857D01*
X277566666Y-78240095D01*
X277519047Y-78382952D01*
X276947619Y-78954380D01*
X277566666Y-78954380D01*
%TO.C,RN14*%
X243047619Y-135833333D02*
X243523809Y-135500000D01*
X243047619Y-135261904D02*
X244047619Y-135261904D01*
X244047619Y-135642857D01*
X244000000Y-135738095D01*
X243952380Y-135785714D01*
X243857142Y-135833333D01*
X243714285Y-135833333D01*
X243619047Y-135785714D01*
X243571428Y-135738095D01*
X243523809Y-135642857D01*
X243523809Y-135261904D01*
X243047619Y-136261904D02*
X244047619Y-136261904D01*
X243047619Y-136833333D01*
X244047619Y-136833333D01*
X243047619Y-137833333D02*
X243047619Y-137261904D01*
X243047619Y-137547619D02*
X244047619Y-137547619D01*
X243904761Y-137452380D01*
X243809523Y-137357142D01*
X243761904Y-137261904D01*
X243714285Y-138690476D02*
X243047619Y-138690476D01*
X244095238Y-138452380D02*
X243380952Y-138214285D01*
X243380952Y-138833333D01*
%TO.C,R7*%
X258122380Y-75666666D02*
X257646190Y-76000000D01*
X258122380Y-76238095D02*
X257122380Y-76238095D01*
X257122380Y-75857142D01*
X257170000Y-75761904D01*
X257217619Y-75714285D01*
X257312857Y-75666666D01*
X257455714Y-75666666D01*
X257550952Y-75714285D01*
X257598571Y-75761904D01*
X257646190Y-75857142D01*
X257646190Y-76238095D01*
X257122380Y-75333333D02*
X257122380Y-74666666D01*
X258122380Y-75095238D01*
%TO.C,C19*%
X219157142Y-80257142D02*
X219109523Y-80304761D01*
X218966666Y-80352380D01*
X218871428Y-80352380D01*
X218728571Y-80304761D01*
X218633333Y-80209523D01*
X218585714Y-80114285D01*
X218538095Y-79923809D01*
X218538095Y-79780952D01*
X218585714Y-79590476D01*
X218633333Y-79495238D01*
X218728571Y-79400000D01*
X218871428Y-79352380D01*
X218966666Y-79352380D01*
X219109523Y-79400000D01*
X219157142Y-79447619D01*
X220109523Y-80352380D02*
X219538095Y-80352380D01*
X219823809Y-80352380D02*
X219823809Y-79352380D01*
X219728571Y-79495238D01*
X219633333Y-79590476D01*
X219538095Y-79638095D01*
X220585714Y-80352380D02*
X220776190Y-80352380D01*
X220871428Y-80304761D01*
X220919047Y-80257142D01*
X221014285Y-80114285D01*
X221061904Y-79923809D01*
X221061904Y-79542857D01*
X221014285Y-79447619D01*
X220966666Y-79400000D01*
X220871428Y-79352380D01*
X220680952Y-79352380D01*
X220585714Y-79400000D01*
X220538095Y-79447619D01*
X220490476Y-79542857D01*
X220490476Y-79780952D01*
X220538095Y-79876190D01*
X220585714Y-79923809D01*
X220680952Y-79971428D01*
X220871428Y-79971428D01*
X220966666Y-79923809D01*
X221014285Y-79876190D01*
X221061904Y-79780952D01*
%TO.C,C1*%
X194557142Y-194766666D02*
X194604761Y-194814285D01*
X194652380Y-194957142D01*
X194652380Y-195052380D01*
X194604761Y-195195238D01*
X194509523Y-195290476D01*
X194414285Y-195338095D01*
X194223809Y-195385714D01*
X194080952Y-195385714D01*
X193890476Y-195338095D01*
X193795238Y-195290476D01*
X193700000Y-195195238D01*
X193652380Y-195052380D01*
X193652380Y-194957142D01*
X193700000Y-194814285D01*
X193747619Y-194766666D01*
X194652380Y-193814285D02*
X194652380Y-194385714D01*
X194652380Y-194100000D02*
X193652380Y-194100000D01*
X193795238Y-194195238D01*
X193890476Y-194290476D01*
X193938095Y-194385714D01*
D13*
%TO.C,C15*%
X248840000Y-68650000D02*
X248840000Y-76710000D01*
X248840000Y-76710000D02*
X253360000Y-76710000D01*
X253360000Y-76710000D02*
X253360000Y-68650000D01*
%TO.C,FB2*%
X244664758Y-74590000D02*
X246335242Y-74590000D01*
X244664758Y-76410000D02*
X246335242Y-76410000D01*
D10*
%TO.C,U6*%
X225425000Y-99025000D02*
X226100000Y-99025000D01*
X225425000Y-99600000D02*
X224150000Y-99600000D01*
X235775000Y-99025000D02*
X235100000Y-99025000D01*
X225425000Y-109375000D02*
X225425000Y-108700000D01*
X235775000Y-109375000D02*
X235775000Y-108700000D01*
X225425000Y-109375000D02*
X226100000Y-109375000D01*
X235775000Y-99025000D02*
X235775000Y-99700000D01*
X225425000Y-99025000D02*
X225425000Y-99600000D01*
X235775000Y-109375000D02*
X235100000Y-109375000D01*
D13*
%TO.C,C6*%
X193740000Y-128807836D02*
X193740000Y-128592164D01*
X194460000Y-128807836D02*
X194460000Y-128592164D01*
%TO.C,D1*%
X257235000Y-72800000D02*
X257235000Y-70515000D01*
X255765000Y-70515000D02*
X255765000Y-72800000D01*
X257235000Y-70515000D02*
X255765000Y-70515000D01*
%TO.C,U5*%
X193035000Y-142500000D02*
X193035000Y-144700000D01*
X193035000Y-142500000D02*
X193035000Y-138900000D01*
X184965000Y-142500000D02*
X184965000Y-140300000D01*
X184965000Y-142500000D02*
X184965000Y-144700000D01*
%TO.C,R2*%
X216020000Y-174546359D02*
X216020000Y-174853641D01*
X216780000Y-174546359D02*
X216780000Y-174853641D01*
%TO.C,RN11*%
X259250000Y-167250000D02*
X262750000Y-167250000D01*
X259250000Y-160750000D02*
X262000000Y-160750000D01*
%TO.C,SW1*%
X267900000Y-106900000D02*
X272400000Y-106900000D01*
X272400000Y-100400000D02*
X267900000Y-100400000D01*
X273650000Y-104400000D02*
X273650000Y-102900000D01*
X266650000Y-102900000D02*
X266650000Y-104400000D01*
%TO.C,R5*%
X199446359Y-172080000D02*
X199753641Y-172080000D01*
X199446359Y-171320000D02*
X199753641Y-171320000D01*
%TO.C,J5*%
X201755000Y-67895000D02*
X201755000Y-69225000D01*
X201755000Y-73095000D02*
X176235000Y-73095000D01*
X199155000Y-70495000D02*
X201755000Y-70495000D01*
X176235000Y-67895000D02*
X176235000Y-73095000D01*
X199155000Y-67895000D02*
X199155000Y-70495000D01*
X200425000Y-67895000D02*
X201755000Y-67895000D01*
X201755000Y-70495000D02*
X201755000Y-73095000D01*
X199155000Y-67895000D02*
X176235000Y-67895000D01*
%TO.C,R17*%
X199436359Y-175080000D02*
X199743641Y-175080000D01*
X199436359Y-174320000D02*
X199743641Y-174320000D01*
%TO.C,R19*%
X242263641Y-64970000D02*
X241956359Y-64970000D01*
X242263641Y-65730000D02*
X241956359Y-65730000D01*
%TO.C,R1*%
X215780000Y-174546359D02*
X215780000Y-174853641D01*
X215020000Y-174546359D02*
X215020000Y-174853641D01*
%TO.C,U7*%
X268965000Y-159000000D02*
X268965000Y-162600000D01*
X277035000Y-159000000D02*
X277035000Y-161200000D01*
X277035000Y-159000000D02*
X277035000Y-156800000D01*
X268965000Y-159000000D02*
X268965000Y-156800000D01*
%TO.C,RN16*%
X259250000Y-133750000D02*
X262000000Y-133750000D01*
X259250000Y-140250000D02*
X262750000Y-140250000D01*
%TO.C,J4*%
X258095000Y-97285000D02*
X263295000Y-97285000D01*
X258095000Y-89545000D02*
X259425000Y-89545000D01*
X260695000Y-92145000D02*
X260695000Y-89545000D01*
X260695000Y-89545000D02*
X263295000Y-89545000D01*
X258095000Y-92145000D02*
X260695000Y-92145000D01*
X258095000Y-92145000D02*
X258095000Y-97285000D01*
X263295000Y-89545000D02*
X263295000Y-97285000D01*
X258095000Y-90875000D02*
X258095000Y-89545000D01*
%TO.C,C10*%
X268560000Y-171192164D02*
X268560000Y-171407836D01*
X267840000Y-171192164D02*
X267840000Y-171407836D01*
%TO.C,U4*%
X193035000Y-126000000D02*
X193035000Y-122400000D01*
X193035000Y-126000000D02*
X193035000Y-128200000D01*
X184965000Y-126000000D02*
X184965000Y-123800000D01*
X184965000Y-126000000D02*
X184965000Y-128200000D01*
%TO.C,C4*%
X259590000Y-80140580D02*
X259590000Y-79859420D01*
X260610000Y-80140580D02*
X260610000Y-79859420D01*
D11*
%TO.C,J3*%
X248285000Y-135000000D02*
X248016000Y-135000000D01*
X254187000Y-135000000D02*
X249651000Y-135000000D01*
X248016000Y-171000000D02*
X248016000Y-169179000D01*
X248016000Y-171000000D02*
X248285000Y-171000000D01*
X248016000Y-136821000D02*
X248016000Y-135000000D01*
X249651000Y-171000000D02*
X254187000Y-171000000D01*
X254187000Y-136821000D02*
X254187000Y-135000000D01*
X254187000Y-169179000D02*
X254187000Y-171000000D01*
X248014000Y-171650000D02*
G75*
G03*
X248014000Y-171650000I-100000J0D01*
G01*
D13*
%TO.C,RN3*%
X219750000Y-160750000D02*
X222500000Y-160750000D01*
X219750000Y-167250000D02*
X223250000Y-167250000D01*
%TO.C,U1*%
X185365000Y-189800000D02*
X185365000Y-187600000D01*
X193435000Y-189800000D02*
X193435000Y-186200000D01*
X193435000Y-189800000D02*
X193435000Y-192000000D01*
X185365000Y-189800000D02*
X185365000Y-192000000D01*
%TO.C,C25*%
X232959420Y-112390000D02*
X233240580Y-112390000D01*
X232959420Y-113410000D02*
X233240580Y-113410000D01*
%TO.C,R15*%
X271880000Y-75346359D02*
X271880000Y-75653641D01*
X271120000Y-75346359D02*
X271120000Y-75653641D01*
%TO.C,FB1*%
X220662779Y-101810000D02*
X220337221Y-101810000D01*
X220662779Y-100790000D02*
X220337221Y-100790000D01*
%TO.C,C17*%
X223915580Y-81490000D02*
X223634420Y-81490000D01*
X223915580Y-82510000D02*
X223634420Y-82510000D01*
%TO.C,RN15*%
X259250000Y-158250000D02*
X262750000Y-158250000D01*
X259250000Y-151750000D02*
X262000000Y-151750000D01*
%TO.C,RN7*%
X219750000Y-151750000D02*
X222500000Y-151750000D01*
X219750000Y-158250000D02*
X223250000Y-158250000D01*
%TO.C,U13*%
X233160000Y-91820000D02*
X230010000Y-91820000D01*
X230010000Y-91820000D02*
X230010000Y-95620000D01*
%TO.C,R8*%
X199446359Y-177220000D02*
X199753641Y-177220000D01*
X199446359Y-177980000D02*
X199753641Y-177980000D01*
%TO.C,U8*%
X277235000Y-174000000D02*
X277235000Y-171800000D01*
X269165000Y-174000000D02*
X269165000Y-177600000D01*
X277235000Y-174000000D02*
X277235000Y-176200000D01*
X269165000Y-174000000D02*
X269165000Y-171800000D01*
%TO.C,D2*%
X243585000Y-110035000D02*
X243585000Y-108565000D01*
X243585000Y-108565000D02*
X241300000Y-108565000D01*
X241300000Y-110035000D02*
X243585000Y-110035000D01*
%TO.C,R12*%
X234480000Y-95246359D02*
X234480000Y-95553641D01*
X233720000Y-95246359D02*
X233720000Y-95553641D01*
%TO.C,RN2*%
X199250000Y-142750000D02*
X202000000Y-142750000D01*
X199250000Y-149250000D02*
X202750000Y-149250000D01*
%TO.C,R20*%
X276846359Y-97520000D02*
X277153641Y-97520000D01*
X276846359Y-98280000D02*
X277153641Y-98280000D01*
%TO.C,RN1*%
X199250000Y-160750000D02*
X202000000Y-160750000D01*
X199250000Y-167250000D02*
X202750000Y-167250000D01*
%TO.C,RN12*%
X259250000Y-142750000D02*
X262000000Y-142750000D01*
X259250000Y-149250000D02*
X262750000Y-149250000D01*
%TO.C,C13*%
X194260000Y-177107836D02*
X194260000Y-176892164D01*
X193540000Y-177107836D02*
X193540000Y-176892164D01*
%TO.C,R16*%
X201446359Y-175720000D02*
X201753641Y-175720000D01*
X201446359Y-176480000D02*
X201753641Y-176480000D01*
%TO.C,R18*%
X201446359Y-175080000D02*
X201753641Y-175080000D01*
X201446359Y-174320000D02*
X201753641Y-174320000D01*
%TO.C,RN5*%
X199250000Y-151750000D02*
X202000000Y-151750000D01*
X199250000Y-158250000D02*
X202750000Y-158250000D01*
%TO.C,R4*%
X199446359Y-172320000D02*
X199753641Y-172320000D01*
X199446359Y-173080000D02*
X199753641Y-173080000D01*
%TO.C,C14*%
X243290000Y-71540580D02*
X243290000Y-71259420D01*
X244310000Y-71540580D02*
X244310000Y-71259420D01*
%TO.C,C18*%
X237359420Y-84290000D02*
X237640580Y-84290000D01*
X237359420Y-85310000D02*
X237640580Y-85310000D01*
%TO.C,U11*%
X185065000Y-174100000D02*
X185065000Y-171900000D01*
X185065000Y-174100000D02*
X185065000Y-176300000D01*
X193135000Y-174100000D02*
X193135000Y-170500000D01*
X193135000Y-174100000D02*
X193135000Y-176300000D01*
%TO.C,R3*%
X199446359Y-173320000D02*
X199753641Y-173320000D01*
X199446359Y-174080000D02*
X199753641Y-174080000D01*
%TO.C,R22*%
X249853641Y-174580000D02*
X249546359Y-174580000D01*
X249853641Y-173820000D02*
X249546359Y-173820000D01*
%TO.C,R6*%
X199446359Y-171080000D02*
X199753641Y-171080000D01*
X199446359Y-170320000D02*
X199753641Y-170320000D01*
%TO.C,R14*%
X199446359Y-175720000D02*
X199753641Y-175720000D01*
X199446359Y-176480000D02*
X199753641Y-176480000D01*
%TO.C,U2*%
X184965000Y-158700000D02*
X184965000Y-156500000D01*
X184965000Y-158700000D02*
X184965000Y-160900000D01*
X193035000Y-158700000D02*
X193035000Y-155100000D01*
X193035000Y-158700000D02*
X193035000Y-160900000D01*
%TO.C,U3*%
X261475000Y-77915000D02*
X261475000Y-79415000D01*
X261475000Y-79415000D02*
X261745000Y-79415000D01*
X268105000Y-79415000D02*
X268105000Y-80515000D01*
X268375000Y-79415000D02*
X268105000Y-79415000D01*
X261745000Y-79415000D02*
X261745000Y-82245000D01*
X268375000Y-77915000D02*
X268375000Y-79415000D01*
%TO.C,RN10*%
X238750000Y-149250000D02*
X242250000Y-149250000D01*
X238750000Y-142750000D02*
X241500000Y-142750000D01*
%TO.C,C23*%
X228090000Y-93359420D02*
X228090000Y-93640580D01*
X229110000Y-93359420D02*
X229110000Y-93640580D01*
D11*
%TO.C,J1*%
X208285000Y-135000000D02*
X208016000Y-135000000D01*
X209651000Y-171000000D02*
X214187000Y-171000000D01*
X214187000Y-136821000D02*
X214187000Y-135000000D01*
X208016000Y-136821000D02*
X208016000Y-135000000D01*
X208016000Y-171000000D02*
X208285000Y-171000000D01*
X214187000Y-135000000D02*
X209651000Y-135000000D01*
X208016000Y-171000000D02*
X208016000Y-169179000D01*
X214187000Y-169179000D02*
X214187000Y-171000000D01*
X208014000Y-171650000D02*
G75*
G03*
X208014000Y-171650000I-100000J0D01*
G01*
D13*
%TO.C,RN8*%
X219750000Y-140250000D02*
X223250000Y-140250000D01*
X219750000Y-133750000D02*
X222500000Y-133750000D01*
%TO.C,U9*%
X277035000Y-143000000D02*
X277035000Y-145200000D01*
X277035000Y-143000000D02*
X277035000Y-140800000D01*
X268965000Y-143000000D02*
X268965000Y-146600000D01*
X268965000Y-143000000D02*
X268965000Y-140800000D01*
%TO.C,D5*%
X235165000Y-96385000D02*
X236635000Y-96385000D01*
X235165000Y-94100000D02*
X235165000Y-96385000D01*
X236635000Y-96385000D02*
X236635000Y-94100000D01*
D10*
%TO.C,U12*%
X233790000Y-77675000D02*
X228040000Y-77675000D01*
X228040000Y-77675000D02*
X228040000Y-78325000D01*
X228040000Y-88325000D02*
X228040000Y-87675000D01*
X233790000Y-77675000D02*
X233790000Y-78325000D01*
X233790000Y-88325000D02*
X233790000Y-87750000D01*
X233790000Y-87750000D02*
X235390000Y-87750000D01*
X233790000Y-88325000D02*
X228040000Y-88325000D01*
D13*
%TO.C,D6*%
X272235000Y-70515000D02*
X270765000Y-70515000D01*
X272235000Y-72800000D02*
X272235000Y-70515000D01*
X270765000Y-70515000D02*
X270765000Y-72800000D01*
%TO.C,R9*%
X239353641Y-108620000D02*
X239046359Y-108620000D01*
X239353641Y-109380000D02*
X239046359Y-109380000D01*
%TO.C,R21*%
X249853641Y-173580000D02*
X249546359Y-173580000D01*
X249853641Y-172820000D02*
X249546359Y-172820000D01*
%TO.C,C24*%
X220640580Y-103310000D02*
X220359420Y-103310000D01*
X220640580Y-102290000D02*
X220359420Y-102290000D01*
%TO.C,C8*%
X223210000Y-106240580D02*
X223210000Y-105959420D01*
X222190000Y-106240580D02*
X222190000Y-105959420D01*
%TO.C,C20*%
X229415580Y-76010000D02*
X229134420Y-76010000D01*
X229415580Y-74990000D02*
X229134420Y-74990000D01*
%TO.C,C9*%
X267840000Y-156392164D02*
X267840000Y-156607836D01*
X268560000Y-156392164D02*
X268560000Y-156607836D01*
%TO.C,U10*%
X268965000Y-126000000D02*
X268965000Y-123800000D01*
X268965000Y-126000000D02*
X268965000Y-129600000D01*
X277035000Y-126000000D02*
X277035000Y-128200000D01*
X277035000Y-126000000D02*
X277035000Y-123800000D01*
%TO.C,C3*%
X257860000Y-80711252D02*
X257860000Y-79288748D01*
X255140000Y-80711252D02*
X255140000Y-79288748D01*
%TO.C,R10*%
X239353641Y-107120000D02*
X239046359Y-107120000D01*
X239353641Y-107880000D02*
X239046359Y-107880000D01*
%TO.C,J2*%
X229690000Y-66460000D02*
X229690000Y-69690000D01*
X236790000Y-71610000D02*
X235710000Y-71610000D01*
X237510000Y-62290000D02*
X237510000Y-64240000D01*
X229690000Y-62290000D02*
X229690000Y-64240000D01*
X237510000Y-66460000D02*
X237510000Y-69690000D01*
X229690000Y-62290000D02*
X237510000Y-62290000D01*
X231490000Y-71610000D02*
X230410000Y-71610000D01*
X235710000Y-71610000D02*
X235710000Y-72040000D01*
%TO.C,RN13*%
X238750000Y-158250000D02*
X242250000Y-158250000D01*
X238750000Y-151750000D02*
X241500000Y-151750000D01*
%TO.C,D3*%
X243597500Y-106865000D02*
X241312500Y-106865000D01*
X241312500Y-108335000D02*
X243597500Y-108335000D01*
X243597500Y-108335000D02*
X243597500Y-106865000D01*
%TO.C,R13*%
X201446359Y-177980000D02*
X201753641Y-177980000D01*
X201446359Y-177220000D02*
X201753641Y-177220000D01*
%TO.C,C5*%
X272890000Y-80711252D02*
X272890000Y-79288748D01*
X270170000Y-80711252D02*
X270170000Y-79288748D01*
%TO.C,C7*%
X193440000Y-145407836D02*
X193440000Y-145192164D01*
X194160000Y-145407836D02*
X194160000Y-145192164D01*
%TO.C,RN6*%
X199250000Y-140250000D02*
X202750000Y-140250000D01*
X199250000Y-133750000D02*
X202000000Y-133750000D01*
%TO.C,C2*%
X194460000Y-161287836D02*
X194460000Y-161072164D01*
X193740000Y-161287836D02*
X193740000Y-161072164D01*
%TO.C,C22*%
X225085580Y-65860000D02*
X224804420Y-65860000D01*
X225085580Y-64840000D02*
X224804420Y-64840000D01*
%TO.C,TP1*%
X252900000Y-82100000D02*
X249500000Y-82100000D01*
X249500000Y-78700000D02*
X252900000Y-78700000D01*
X252900000Y-78700000D02*
X252900000Y-82100000D01*
X249500000Y-82100000D02*
X249500000Y-78700000D01*
%TO.C,RN4*%
X219750000Y-142750000D02*
X222500000Y-142750000D01*
X219750000Y-149250000D02*
X223250000Y-149250000D01*
%TO.C,RN9*%
X238750000Y-167250000D02*
X242250000Y-167250000D01*
X238750000Y-160750000D02*
X241500000Y-160750000D01*
%TO.C,C12*%
X267740000Y-123392164D02*
X267740000Y-123607836D01*
X268460000Y-123392164D02*
X268460000Y-123607836D01*
%TO.C,C11*%
X268460000Y-140292164D02*
X268460000Y-140507836D01*
X267740000Y-140292164D02*
X267740000Y-140507836D01*
%TO.C,C16*%
X223761252Y-83265000D02*
X223238748Y-83265000D01*
X223761252Y-84735000D02*
X223238748Y-84735000D01*
%TO.C,C21*%
X232634420Y-74990000D02*
X232915580Y-74990000D01*
X232634420Y-76010000D02*
X232915580Y-76010000D01*
%TO.C,R23*%
X249853641Y-174820000D02*
X249546359Y-174820000D01*
X249853641Y-175580000D02*
X249546359Y-175580000D01*
%TO.C,TP2*%
X278100000Y-82600000D02*
X274700000Y-82600000D01*
X278100000Y-79200000D02*
X278100000Y-82600000D01*
X274700000Y-82600000D02*
X274700000Y-79200000D01*
X274700000Y-79200000D02*
X278100000Y-79200000D01*
%TO.C,RN14*%
X238750000Y-133750000D02*
X241500000Y-133750000D01*
X238750000Y-140250000D02*
X242250000Y-140250000D01*
%TO.C,R7*%
X256120000Y-75346359D02*
X256120000Y-75653641D01*
X256880000Y-75346359D02*
X256880000Y-75653641D01*
%TO.C,C19*%
X223915580Y-80510000D02*
X223634420Y-80510000D01*
X223915580Y-79490000D02*
X223634420Y-79490000D01*
%TO.C,C1*%
X194560000Y-192507836D02*
X194560000Y-192292164D01*
X193840000Y-192507836D02*
X193840000Y-192292164D01*
%TD*%
M02*
