M48
; DRILL file {KiCad (6.0.0)} date Thu Oct  6 12:47:47 2022
; FORMAT={-:-/ absolute / inch / decimal}
; #@! TF.CreationDate,2022-10-06T12:47:47-04:00
; #@! TF.GenerationSoftware,Kicad,Pcbnew,(6.0.0)
; #@! TF.FileFunction,Plated,1,4,PTH
FMAT,2
INCH
; #@! TA.AperFunction,Plated,PTH,ViaDrill
T1C0.0157
; #@! TA.AperFunction,Plated,PTH,ComponentDrill
T2C0.0394
; #@! TA.AperFunction,Plated,PTH,ComponentDrill
T3C0.0433
; #@! TA.AperFunction,Plated,PTH,ComponentDrill
T4C0.0591
; #@! TA.AperFunction,Plated,PTH,ComponentDrill
T5C0.1378
%
G90
G05
T1
X6.5354Y-4.0984
X6.563Y-3.1102
X6.6339Y-6.0669
X7.1102Y-3.6063
X7.1339Y-7.0472
X7.1475Y-5.8695
X7.1475Y-6.4273
X7.248Y-5.063
X7.248Y-5.7244
X7.248Y-6.3622
X7.248Y-6.9685
X7.2598Y-7.5669
X7.2835Y-5.0
X7.2835Y-5.6457
X7.2835Y-6.2913
X7.2835Y-6.9055
X7.2835Y-7.5236
X7.3189Y-4.7717
X7.3189Y-5.4134
X7.3189Y-6.0551
X7.3189Y-6.6693
X7.3189Y-7.2835
X7.3504Y-5.1378
X7.3504Y-5.374
X7.3504Y-5.7874
X7.3504Y-6.0157
X7.3504Y-6.4213
X7.3504Y-7.0315
X7.3543Y-4.7402
X7.3543Y-6.6496
X7.3622Y-7.248
X7.3661Y-7.6457
X7.4173Y-7.0433
X7.4291Y-6.8622
X7.4646Y-7.0591
X7.4961Y-5.5709
X7.4961Y-6.248
X7.5079Y-7.0354
X7.626Y-5.5
X7.6299Y-5.6614
X7.6299Y-6.1378
X7.6299Y-6.7441
X7.6417Y-6.2874
X7.6457Y-6.6929
X7.6693Y-5.7205
X7.6693Y-6.9488
X7.6732Y-3.6929
X7.6732Y-7.0
X7.6811Y-5.0433
X7.6811Y-6.3504
X7.689Y-5.0906
X7.689Y-7.5472
X7.6969Y-7.5984
X7.7008Y-7.3819
X7.7283Y-3.7441
X7.7283Y-8.0827
X7.752Y-5.7835
X7.752Y-6.126
X7.7559Y-5.6969
X7.7559Y-6.0669
X7.7598Y-5.3508
X7.7598Y-5.4094
X7.7598Y-6.4331
X7.7605Y-6.5007
X7.7756Y-6.0039
X7.7795Y-3.7835
X7.7795Y-5.4449
X7.7874Y-5.6614
X7.7913Y-5.3268
X7.7913Y-5.7441
X7.7913Y-6.9291
X7.7953Y-5.5
X7.7953Y-5.8543
X7.7953Y-6.0512
X7.7953Y-6.3661
X7.7953Y-6.4055
X7.7961Y-5.8067
X7.7992Y-6.1024
X7.7992Y-6.4606
X7.7992Y-6.5239
X7.7992Y-6.8701
X7.7992Y-6.9843
X7.8031Y-3.5591
X7.8031Y-6.1535
X7.811Y-5.3898
X7.813Y-3.6594
X7.815Y-3.8268
X7.8465Y-3.874
X7.9016Y-6.1969
X7.9055Y-6.5669
X7.9237Y-4.2162
X7.9252Y-5.6299
X7.9291Y-6.315
X7.9331Y-5.9764
X7.9842Y-4.8603
X8.0062Y-5.0768
X8.0138Y-3.7028
X8.0157Y-5.4646
X8.0157Y-6.3465
X8.0157Y-6.4173
X8.0185Y-5.698
X8.0236Y-6.4843
X8.0276Y-3.5315
X8.0276Y-3.6181
X8.0276Y-5.7638
X8.0315Y-5.3937
X8.0315Y-6.0787
X8.0354Y-6.0079
X8.0394Y-5.2874
X8.0433Y-6.126
X8.0866Y-6.1299
X8.0906Y-5.7874
X8.1024Y-6.4134
X8.1142Y-5.5039
X8.1142Y-6.3228
X8.1181Y-5.3543
X8.1181Y-5.5669
X8.122Y-5.4331
X8.122Y-5.8504
X8.126Y-5.6929
X8.126Y-5.7559
X8.126Y-5.9764
X8.126Y-6.2598
X8.1299Y-6.0394
X8.1299Y-6.1024
X8.2323Y-6.8858
X8.315Y-3.248
X8.337Y-7.3921
X8.4055Y-5.3189
X8.4252Y-6.7008
X8.4843Y-6.2913
X8.4882Y-5.4724
X8.4882Y-5.9449
X8.4921Y-5.7244
X8.4921Y-6.0118
X8.4921Y-6.1969
X8.4921Y-6.4409
X8.4961Y-5.6614
X8.4961Y-6.0945
X8.4961Y-6.3661
X8.5Y-5.5354
X8.5039Y-5.7992
X8.5039Y-6.5
X8.5079Y-5.3898
X8.5669Y-6.4764
X8.5748Y-6.122
X8.5787Y-5.8307
X8.5906Y-6.6024
X8.5945Y-6.4252
X8.5984Y-3.9843
X8.5984Y-6.0512
X8.5984Y-7.0906
X8.6024Y-4.0472
X8.6024Y-5.6929
X8.6024Y-5.752
X8.6102Y-6.3622
X8.6142Y-5.8661
X8.6181Y-6.1811
X8.6181Y-6.315
X8.6378Y-4.9961
X8.6496Y-4.9528
X8.6496Y-6.7402
X8.6772Y-7.0512
X8.685Y-2.7835
X8.7087Y-3.311
X8.7087Y-5.4921
X8.7126Y-4.2126
X8.7205Y-4.1614
X8.7205Y-6.2047
X8.7283Y-3.1457
X8.7283Y-3.2244
X8.7441Y-7.0236
X8.7559Y-7.1181
X8.7795Y-6.6063
X8.7835Y-5.563
X8.7953Y-4.9685
X8.811Y-6.2717
X8.811Y-7.1142
X8.8268Y-3.5197
X8.8268Y-6.9921
X8.8307Y-6.0394
X8.8316Y-5.7405
X8.8346Y-5.6142
X8.8346Y-6.4528
X8.8386Y-3.3701
X8.8386Y-5.4449
X8.8386Y-5.6693
X8.8386Y-5.8031
X8.8386Y-6.5079
X8.8425Y-5.3898
X8.8427Y-6.0997
X8.8503Y-6.1461
X8.8504Y-4.6654
X8.8661Y-7.1063
X8.874Y-4.9606
X8.9409Y-3.6496
X8.9409Y-3.7126
X8.9685Y-3.9449
X8.9724Y-3.8189
X8.9882Y-4.6024
X9.0Y-4.1693
X9.0079Y-3.9803
X9.0157Y-3.9409
X9.0157Y-4.5551
X9.0472Y-4.5079
X9.063Y-3.4134
X9.0748Y-5.8583
X9.0787Y-4.4646
X9.0787Y-4.7953
X9.0906Y-3.7835
X9.1457Y-4.3898
X9.2047Y-3.9331
X9.2047Y-4.0236
X9.2047Y-6.9449
X9.252Y-6.8937
X9.2559Y-6.9449
X9.2717Y-4.4291
X9.2953Y-3.878
X9.3031Y-6.9016
X9.3071Y-6.8543
X9.311Y-6.8031
X9.3189Y-3.2835
X9.3189Y-6.3465
X9.3307Y-5.9961
X9.3465Y-6.2047
X9.3504Y-5.315
X9.3504Y-5.4449
X9.3504Y-5.6929
X9.3504Y-5.748
X9.3543Y-5.3858
X9.3543Y-6.0512
X9.3543Y-6.0984
X9.3543Y-6.1535
X9.3543Y-6.4055
X9.3543Y-6.4567
X9.3543Y-6.5039
X9.3574Y-5.641
X9.3583Y-5.7992
X9.3602Y-3.5728
X9.3701Y-4.0433
X9.3898Y-5.0157
X9.3937Y-3.9843
X9.3937Y-4.9646
X9.3937Y-5.1024
X9.4055Y-6.6063
X9.4134Y-3.3898
X9.4291Y-4.4094
X9.4409Y-5.0118
X9.4567Y-5.4961
X9.4646Y-5.815
X9.4764Y-5.9843
X9.4764Y-6.3307
X9.4882Y-6.2559
X9.5157Y-3.1102
X9.5276Y-3.4409
X9.5315Y-4.374
X9.5394Y-5.1299
X9.5669Y-5.6299
X9.5669Y-6.4252
X9.5709Y-6.3622
X9.5709Y-6.5079
X9.5748Y-5.2717
X9.5906Y-3.9291
X9.5945Y-5.9843
X9.5984Y-6.126
X9.6102Y-3.878
X9.6102Y-6.063
X9.6142Y-4.2283
X9.6142Y-4.2953
X9.6142Y-5.7244
X9.6181Y-5.7992
X9.622Y-5.6614
X9.6575Y-5.5354
X9.6614Y-5.4724
X9.6654Y-6.4213
X9.6693Y-6.6378
X9.6929Y-5.5039
X9.6969Y-5.4409
X9.6969Y-5.5669
X9.6969Y-5.7559
X9.7008Y-4.3346
X9.7008Y-5.6929
X9.7008Y-5.8504
X9.7008Y-6.1339
X9.7008Y-6.3228
X9.7047Y-5.9764
X9.7047Y-6.0394
X9.7087Y-6.2598
X9.7362Y-6.8583
X9.7677Y-6.8976
X9.7717Y-6.8189
X9.7795Y-3.5906
X9.7953Y-4.2953
X9.8268Y-2.8937
X9.8307Y-3.0433
X9.8898Y-2.8937
X9.8937Y-3.0472
X9.9685Y-2.8937
X9.9685Y-2.9685
X9.9685Y-3.0394
X10.0Y-4.0276
X10.0039Y-5.3622
X10.063Y-6.2913
X10.063Y-6.4803
X10.0669Y-5.5354
X10.0669Y-6.0709
X10.0709Y-6.0079
X10.0748Y-5.6614
X10.0748Y-5.7244
X10.0748Y-5.8189
X10.0748Y-5.9449
X10.0787Y-5.4764
X10.0827Y-6.3701
X10.0866Y-6.1299
X10.0866Y-6.2323
X10.0906Y-5.4134
X10.0984Y-5.5669
X10.1181Y-6.2756
X10.126Y-5.8504
X10.1299Y-5.6929
X10.1299Y-5.7559
X10.1299Y-6.0748
X10.1326Y-6.3281
X10.1417Y-2.9921
X10.1457Y-6.4803
X10.1496Y-5.9961
X10.1693Y-6.5472
X10.1811Y-5.5433
X10.1861Y-4.9117
X10.2047Y-6.6732
X10.2559Y-6.5866
X10.2598Y-6.2205
X10.2677Y-5.7913
X10.2717Y-6.3386
X10.3289Y-3.3882
X10.3504Y-4.1929
X10.3543Y-5.9488
X10.3858Y-5.4213
X10.3858Y-6.0
X10.3858Y-6.2992
X10.3898Y-5.3504
X10.3898Y-5.6969
X10.3898Y-5.748
X10.3937Y-5.8189
X10.3976Y-5.2874
X10.4016Y-6.1614
X10.4055Y-6.4213
X10.4173Y-5.3819
X10.4173Y-6.1024
X10.4252Y-5.7795
X10.4291Y-6.0472
X10.437Y-7.0276
X10.4409Y-6.3386
X10.4409Y-6.4567
X10.4488Y-5.4331
X10.4528Y-5.9724
X10.4567Y-6.1575
X10.4646Y-5.6772
X10.4724Y-6.4921
X10.4764Y-7.7953
X10.4961Y-5.8819
X10.4961Y-6.3307
X10.5039Y-6.5197
X10.5079Y-5.5039
X10.5079Y-5.5472
X10.5118Y-6.7598
X10.5157Y-4.8346
X10.5197Y-6.1417
X10.5197Y-6.185
X10.5197Y-6.7165
X10.5236Y-5.7795
X10.5276Y-6.4252
X10.5551Y-4.9213
X10.5669Y-6.374
X10.5709Y-5.7441
X10.5906Y-3.6772
X10.6142Y-3.315
X10.6378Y-3.2756
X10.689Y-3.3268
X10.6969Y-3.2756
X10.748Y-3.2717
X10.748Y-6.252
X10.7559Y-3.3307
X10.7598Y-5.626
X10.7598Y-6.5
X10.8071Y-5.0
X10.8071Y-5.6732
X10.8071Y-6.3031
X10.8228Y-6.8898
X10.8351Y-4.7838
X10.8425Y-5.4488
X10.8425Y-6.0748
X10.8465Y-6.6614
X10.8661Y-5.0079
X10.8661Y-5.6654
X10.8661Y-6.3031
X10.878Y-6.8898
X10.9173Y-4.7598
X10.9173Y-5.4252
X10.9173Y-6.0472
X10.9173Y-6.6378
X10.9331Y-4.2047
X10.9567Y-6.7008
X10.9587Y-4.8445
X10.9587Y-5.5138
X10.9587Y-6.1476
X10.9685Y-3.8543
X11.0155Y-5.253
X11.0394Y-5.811
X11.0448Y-6.4199
X11.2441Y-2.8031
X11.5197Y-3.3976
X11.6378Y-6.6102
X11.6929Y-4.7835
T2
X6.9907Y-2.7254
X6.9907Y-2.8254
X7.0907Y-2.7254
X7.0907Y-2.8254
X7.1907Y-2.7254
X7.1907Y-2.8254
X7.2907Y-2.7254
X7.2907Y-2.8254
X7.3907Y-2.7254
X7.3907Y-2.8254
X7.4907Y-2.7254
X7.4907Y-2.8254
X7.5907Y-2.7254
X7.5907Y-2.8254
X7.6907Y-2.7254
X7.6907Y-2.8254
X7.7907Y-2.7254
X7.7907Y-2.8254
X7.8907Y-2.7254
X7.8907Y-2.8254
X10.2136Y-3.5778
X10.2136Y-3.6778
X10.2136Y-3.7778
X10.3136Y-3.5778
X10.3136Y-3.6778
X10.3136Y-3.7778
T3
X10.5079Y-3.9921
X10.5079Y-4.1693
X10.7638Y-3.9921
X10.7638Y-4.1693
T4
X9.8898Y-3.1654
X10.8819Y-3.185
T5
X6.4173Y-2.6772
X6.4173Y-8.189
X11.9291Y-2.6772
X11.9291Y-8.189
T0
M30
