%TF.GenerationSoftware,KiCad,Pcbnew,(6.0.0)*%
%TF.CreationDate,2022-10-06T12:47:50-04:00*%
%TF.ProjectId,ecp5u85-bse-usb_io-tester,65637035-7538-4352-9d62-73652d757362,A*%
%TF.SameCoordinates,Original*%
%TF.FileFunction,Soldermask,Top*%
%TF.FilePolarity,Negative*%
%FSLAX46Y46*%
G04 Gerber Fmt 4.6, Leading zero omitted, Abs format (unit mm)*
G04 Created by KiCad (PCBNEW (6.0.0)) date 2022-10-06 12:47:50*
%MOMM*%
%LPD*%
G01*
G04 APERTURE LIST*
G04 Aperture macros list*
%AMRoundRect*
0 Rectangle with rounded corners*
0 $1 Rounding radius*
0 $2 $3 $4 $5 $6 $7 $8 $9 X,Y pos of 4 corners*
0 Add a 4 corners polygon primitive as box body*
4,1,4,$2,$3,$4,$5,$6,$7,$8,$9,$2,$3,0*
0 Add four circle primitives for the rounded corners*
1,1,$1+$1,$2,$3*
1,1,$1+$1,$4,$5*
1,1,$1+$1,$6,$7*
1,1,$1+$1,$8,$9*
0 Add four rect primitives between the rounded corners*
20,1,$1+$1,$2,$3,$4,$5,0*
20,1,$1+$1,$4,$5,$6,$7,0*
20,1,$1+$1,$6,$7,$8,$9,0*
20,1,$1+$1,$8,$9,$2,$3,0*%
G04 Aperture macros list end*
%ADD10C,0.360000*%
%ADD11C,0.550000*%
%ADD12RoundRect,0.250000X1.025000X-0.787500X1.025000X0.787500X-1.025000X0.787500X-1.025000X-0.787500X0*%
%ADD13RoundRect,0.250000X-0.275000X-0.700000X0.275000X-0.700000X0.275000X0.700000X-0.275000X0.700000X0*%
%ADD14R,1.500000X0.550000*%
%ADD15R,0.550000X1.500000*%
%ADD16RoundRect,0.140000X0.170000X-0.140000X0.170000X0.140000X-0.170000X0.140000X-0.170000X-0.140000X0*%
%ADD17RoundRect,0.218750X-0.256250X0.218750X-0.256250X-0.218750X0.256250X-0.218750X0.256250X0.218750X0*%
%ADD18RoundRect,0.100000X-0.100000X0.637500X-0.100000X-0.637500X0.100000X-0.637500X0.100000X0.637500X0*%
%ADD19RoundRect,0.135000X-0.185000X0.135000X-0.185000X-0.135000X0.185000X-0.135000X0.185000X0.135000X0*%
%ADD20RoundRect,0.225000X-0.225000X0.225000X-0.225000X-0.225000X0.225000X-0.225000X0.225000X0.225000X0*%
%ADD21C,2.000000*%
%ADD22RoundRect,0.135000X-0.135000X-0.185000X0.135000X-0.185000X0.135000X0.185000X-0.135000X0.185000X0*%
%ADD23R,1.700000X1.700000*%
%ADD24O,1.700000X1.700000*%
%ADD25RoundRect,0.135000X0.135000X0.185000X-0.135000X0.185000X-0.135000X-0.185000X0.135000X-0.185000X0*%
%ADD26C,7.000000*%
%ADD27RoundRect,0.100000X0.100000X-0.637500X0.100000X0.637500X-0.100000X0.637500X-0.100000X-0.637500X0*%
%ADD28RoundRect,0.140000X-0.170000X0.140000X-0.170000X-0.140000X0.170000X-0.140000X0.170000X0.140000X0*%
%ADD29RoundRect,0.225000X0.250000X-0.225000X0.250000X0.225000X-0.250000X0.225000X-0.250000X-0.225000X0*%
%ADD30C,1.016000*%
%ADD31R,1.450000X0.457000*%
%ADD32RoundRect,0.225000X-0.225000X-0.250000X0.225000X-0.250000X0.225000X0.250000X-0.225000X0.250000X0*%
%ADD33RoundRect,0.218750X0.218750X0.256250X-0.218750X0.256250X-0.218750X-0.256250X0.218750X-0.256250X0*%
%ADD34RoundRect,0.225000X0.225000X0.250000X-0.225000X0.250000X-0.225000X-0.250000X0.225000X-0.250000X0*%
%ADD35R,1.100000X1.300000*%
%ADD36R,1.200000X2.200000*%
%ADD37R,5.800000X6.400000*%
%ADD38RoundRect,0.225000X-0.250000X0.225000X-0.250000X-0.225000X0.250000X-0.225000X0.250000X0.225000X0*%
%ADD39RoundRect,0.218750X0.256250X-0.218750X0.256250X0.218750X-0.256250X0.218750X-0.256250X-0.218750X0*%
%ADD40R,1.750000X0.450000*%
%ADD41RoundRect,0.250000X1.100000X-0.325000X1.100000X0.325000X-1.100000X0.325000X-1.100000X-0.325000X0*%
%ADD42C,1.000000*%
%ADD43R,0.500000X2.000000*%
%ADD44R,2.000000X1.700000*%
%ADD45R,3.000000X3.000000*%
%ADD46RoundRect,0.250000X0.250000X0.475000X-0.250000X0.475000X-0.250000X-0.475000X0.250000X-0.475000X0*%
G04 APERTURE END LIST*
D10*
%TO.C,*%
X289680000Y-192340000D02*
X289440000Y-192340000D01*
X280880000Y-192420000D02*
X280280000Y-192420000D01*
X289080000Y-192820000D02*
X289100000Y-192920000D01*
X285960000Y-194160000D02*
X285960000Y-191320000D01*
X286560000Y-192420000D02*
X286100000Y-192420000D01*
X281240000Y-194180000D02*
X281240000Y-192780000D01*
X289880000Y-192440000D02*
X289920000Y-192500000D01*
X287380000Y-192240000D02*
X288040000Y-194160000D01*
X284280000Y-194180000D02*
X284880000Y-194180000D01*
X282680000Y-192780000D02*
X282680000Y-193820000D01*
X285240000Y-193820000D02*
X285240000Y-192780000D01*
D11*
X284400000Y-189100000D02*
X280200000Y-186100000D01*
D10*
X289100000Y-192920000D02*
X289180000Y-193040000D01*
D11*
X283800000Y-191100000D02*
X284400000Y-189100000D01*
X283800000Y-191100000D02*
X282600000Y-184700000D01*
D10*
X289960000Y-193760000D02*
X289940000Y-193660000D01*
X286940000Y-194180000D02*
X286920000Y-192780000D01*
X283280000Y-192420000D02*
X283040000Y-192420000D01*
X275400000Y-192780000D02*
X275400000Y-193820000D01*
X289120000Y-194080000D02*
X289120000Y-194040000D01*
X282800000Y-193300000D02*
X283640000Y-193300000D01*
X279000000Y-194180000D02*
X279360000Y-194180000D01*
X284880000Y-192420000D02*
X284280000Y-192420000D01*
X279600000Y-192820000D02*
X279600000Y-193300000D01*
D11*
X283800000Y-191100000D02*
X277600000Y-188500000D01*
D10*
X277020000Y-194180000D02*
X277620000Y-194180000D01*
X277020000Y-192420000D02*
X277020000Y-194180000D01*
D11*
X280200000Y-186100000D02*
X283800000Y-191100000D01*
D10*
X289960000Y-193860000D02*
X289960000Y-193760000D01*
X289260000Y-194200000D02*
X289160000Y-194140000D01*
X287660000Y-195180000D02*
X287480000Y-195220000D01*
D11*
X277600000Y-188500000D02*
X280200000Y-186100000D01*
D10*
X280280000Y-192420000D02*
X280280000Y-194180000D01*
X284280000Y-192420000D02*
X284280000Y-194180000D01*
X278640000Y-192780000D02*
X278640000Y-193820000D01*
X289940000Y-193660000D02*
X289760000Y-193480000D01*
X277020000Y-194200000D02*
X277020000Y-195240000D01*
X276350000Y-193820000D02*
X276350000Y-192780000D01*
X279240000Y-192420000D02*
X279000000Y-192420000D01*
X278760000Y-193300000D02*
X279600000Y-193300000D01*
D11*
X282600000Y-184700000D02*
X284400000Y-189100000D01*
D10*
X277980000Y-193820000D02*
X277980000Y-192780000D01*
X289080000Y-192720000D02*
X289080000Y-192820000D01*
X289780000Y-192380000D02*
X289880000Y-192440000D01*
D11*
X277600000Y-188500000D02*
X284400000Y-189100000D01*
D10*
X283040000Y-194180000D02*
X283400000Y-194180000D01*
X288660000Y-192240000D02*
X287820000Y-194940000D01*
X289340000Y-194240000D02*
X289260000Y-194200000D01*
X289160000Y-194140000D02*
X289120000Y-194080000D01*
X287480000Y-195220000D02*
X287380000Y-195220000D01*
X289920000Y-192500000D02*
X289920000Y-192540000D01*
X275960000Y-194180000D02*
X275770000Y-194180000D01*
X289760000Y-193480000D02*
X289440000Y-193240000D01*
X275790000Y-192420000D02*
X275990000Y-192420000D01*
X289360000Y-194240000D02*
X289600000Y-194240000D01*
X283640000Y-192820000D02*
X283640000Y-193300000D01*
X289180000Y-193040000D02*
X289500000Y-193280000D01*
X277620000Y-192420000D02*
X277020000Y-192420000D01*
X289700000Y-192340000D02*
X289780000Y-192380000D01*
X287800000Y-194980000D02*
X287660000Y-195180000D01*
X284280000Y-194200000D02*
X284280000Y-195240000D01*
X277620000Y-194180000D02*
G75*
G03*
X277980000Y-193820000I-2J360002D01*
G01*
X276350000Y-192780000D02*
G75*
G03*
X275990000Y-192420000I-360002J-2D01*
G01*
X275990000Y-194180000D02*
G75*
G03*
X276350000Y-193820000I-2J360002D01*
G01*
X286920000Y-192780000D02*
G75*
G03*
X286560000Y-192420000I-360002J-2D01*
G01*
X277980000Y-192780000D02*
G75*
G03*
X277620000Y-192420000I-360002J-2D01*
G01*
X283400000Y-194180000D02*
G75*
G03*
X283540000Y-194040000I0J140000D01*
G01*
X282680000Y-193820000D02*
G75*
G03*
X283040000Y-194180000I360002J2D01*
G01*
X289600000Y-194240000D02*
G75*
G03*
X289960000Y-193880000I-2J360002D01*
G01*
X279360000Y-194180000D02*
G75*
G03*
X279500000Y-194040000I0J140000D01*
G01*
X283640000Y-192780000D02*
G75*
G03*
X283280000Y-192420000I-360002J-2D01*
G01*
X275400000Y-193820000D02*
G75*
G03*
X275760000Y-194180000I360002J2D01*
G01*
X278640000Y-193820000D02*
G75*
G03*
X279000000Y-194180000I360002J2D01*
G01*
X283040000Y-192420000D02*
G75*
G03*
X282680000Y-192780000I2J-360002D01*
G01*
X279000000Y-192420000D02*
G75*
G03*
X278640000Y-192780000I2J-360002D01*
G01*
X284880000Y-194180000D02*
G75*
G03*
X285240000Y-193820000I-2J360002D01*
G01*
X275760000Y-192420000D02*
G75*
G03*
X275400000Y-192780000I2J-360002D01*
G01*
X285240000Y-192780000D02*
G75*
G03*
X284880000Y-192420000I-360002J-2D01*
G01*
X281240000Y-192780000D02*
G75*
G03*
X280880000Y-192420000I-360002J-2D01*
G01*
X289440000Y-192340000D02*
G75*
G03*
X289080000Y-192700000I2J-360002D01*
G01*
X279600000Y-192780000D02*
G75*
G03*
X279240000Y-192420000I-360002J-2D01*
G01*
%TD*%
D12*
%TO.C,C15*%
X251100000Y-75412500D03*
X251100000Y-69187500D03*
%TD*%
D13*
%TO.C,FB2*%
X243925000Y-75500000D03*
X247075000Y-75500000D03*
%TD*%
D14*
%TO.C,U6*%
X224900000Y-100200000D03*
X224900000Y-101000000D03*
X224900000Y-101800000D03*
X224900000Y-102600000D03*
X224900000Y-103400000D03*
X224900000Y-104200000D03*
X224900000Y-105000000D03*
X224900000Y-105800000D03*
X224900000Y-106600000D03*
X224900000Y-107400000D03*
X224900000Y-108200000D03*
D15*
X226600000Y-109900000D03*
X227400000Y-109900000D03*
X228200000Y-109900000D03*
X229000000Y-109900000D03*
X229800000Y-109900000D03*
X230600000Y-109900000D03*
X231400000Y-109900000D03*
X232200000Y-109900000D03*
X233000000Y-109900000D03*
X233800000Y-109900000D03*
X234600000Y-109900000D03*
D14*
X236300000Y-108200000D03*
X236300000Y-107400000D03*
X236300000Y-106600000D03*
X236300000Y-105800000D03*
X236300000Y-105000000D03*
X236300000Y-104200000D03*
X236300000Y-103400000D03*
X236300000Y-102600000D03*
X236300000Y-101800000D03*
X236300000Y-101000000D03*
X236300000Y-100200000D03*
D15*
X234600000Y-98500000D03*
X233800000Y-98500000D03*
X233000000Y-98500000D03*
X232200000Y-98500000D03*
X231400000Y-98500000D03*
X230600000Y-98500000D03*
X229800000Y-98500000D03*
X229000000Y-98500000D03*
X228200000Y-98500000D03*
X227400000Y-98500000D03*
X226600000Y-98500000D03*
%TD*%
D16*
%TO.C,C6*%
X194100000Y-129180000D03*
X194100000Y-128220000D03*
%TD*%
D17*
%TO.C,D1*%
X256500000Y-71212500D03*
X256500000Y-72787500D03*
%TD*%
D18*
%TO.C,U5*%
X192575000Y-139637500D03*
X191925000Y-139637500D03*
X191275000Y-139637500D03*
X190625000Y-139637500D03*
X189975000Y-139637500D03*
X189325000Y-139637500D03*
X188675000Y-139637500D03*
X188025000Y-139637500D03*
X187375000Y-139637500D03*
X186725000Y-139637500D03*
X186075000Y-139637500D03*
X185425000Y-139637500D03*
X185425000Y-145362500D03*
X186075000Y-145362500D03*
X186725000Y-145362500D03*
X187375000Y-145362500D03*
X188025000Y-145362500D03*
X188675000Y-145362500D03*
X189325000Y-145362500D03*
X189975000Y-145362500D03*
X190625000Y-145362500D03*
X191275000Y-145362500D03*
X191925000Y-145362500D03*
X192575000Y-145362500D03*
%TD*%
D19*
%TO.C,R2*%
X216400000Y-174190000D03*
X216400000Y-175210000D03*
%TD*%
D20*
%TO.C,RN11*%
X262500000Y-161460000D03*
X259500000Y-161460000D03*
X262500000Y-162730000D03*
X259500000Y-162730000D03*
X262500000Y-164000000D03*
X259500000Y-164000000D03*
X262500000Y-165270000D03*
X259500000Y-165270000D03*
X262500000Y-166540000D03*
X259500000Y-166540000D03*
%TD*%
D21*
%TO.C,SW1*%
X273400000Y-101400000D03*
X266900000Y-101400000D03*
X273400000Y-105900000D03*
X266900000Y-105900000D03*
%TD*%
D22*
%TO.C,R5*%
X199090000Y-171700000D03*
X200110000Y-171700000D03*
%TD*%
D23*
%TO.C,J5*%
X200425000Y-69225000D03*
D24*
X200425000Y-71765000D03*
X197885000Y-69225000D03*
X197885000Y-71765000D03*
X195345000Y-69225000D03*
X195345000Y-71765000D03*
X192805000Y-69225000D03*
X192805000Y-71765000D03*
X190265000Y-69225000D03*
X190265000Y-71765000D03*
X187725000Y-69225000D03*
X187725000Y-71765000D03*
X185185000Y-69225000D03*
X185185000Y-71765000D03*
X182645000Y-69225000D03*
X182645000Y-71765000D03*
X180105000Y-69225000D03*
X180105000Y-71765000D03*
X177565000Y-69225000D03*
X177565000Y-71765000D03*
%TD*%
D22*
%TO.C,R17*%
X199080000Y-174700000D03*
X200100000Y-174700000D03*
%TD*%
D25*
%TO.C,R19*%
X242620000Y-65350000D03*
X241600000Y-65350000D03*
%TD*%
D26*
%TO.C,H3*%
X163000000Y-68000000D03*
%TD*%
D19*
%TO.C,R1*%
X215400000Y-174190000D03*
X215400000Y-175210000D03*
%TD*%
D27*
%TO.C,U7*%
X269425000Y-161862500D03*
X270075000Y-161862500D03*
X270725000Y-161862500D03*
X271375000Y-161862500D03*
X272025000Y-161862500D03*
X272675000Y-161862500D03*
X273325000Y-161862500D03*
X273975000Y-161862500D03*
X274625000Y-161862500D03*
X275275000Y-161862500D03*
X275925000Y-161862500D03*
X276575000Y-161862500D03*
X276575000Y-156137500D03*
X275925000Y-156137500D03*
X275275000Y-156137500D03*
X274625000Y-156137500D03*
X273975000Y-156137500D03*
X273325000Y-156137500D03*
X272675000Y-156137500D03*
X272025000Y-156137500D03*
X271375000Y-156137500D03*
X270725000Y-156137500D03*
X270075000Y-156137500D03*
X269425000Y-156137500D03*
%TD*%
D20*
%TO.C,RN16*%
X262500000Y-134460000D03*
X259500000Y-134460000D03*
X262500000Y-135730000D03*
X259500000Y-135730000D03*
X262500000Y-137000000D03*
X259500000Y-137000000D03*
X262500000Y-138270000D03*
X259500000Y-138270000D03*
X262500000Y-139540000D03*
X259500000Y-139540000D03*
%TD*%
D23*
%TO.C,J4*%
X259425000Y-90875000D03*
D24*
X261965000Y-90875000D03*
X259425000Y-93415000D03*
X261965000Y-93415000D03*
X259425000Y-95955000D03*
X261965000Y-95955000D03*
%TD*%
D28*
%TO.C,C10*%
X268200000Y-170820000D03*
X268200000Y-171780000D03*
%TD*%
D18*
%TO.C,U4*%
X192575000Y-123137500D03*
X191925000Y-123137500D03*
X191275000Y-123137500D03*
X190625000Y-123137500D03*
X189975000Y-123137500D03*
X189325000Y-123137500D03*
X188675000Y-123137500D03*
X188025000Y-123137500D03*
X187375000Y-123137500D03*
X186725000Y-123137500D03*
X186075000Y-123137500D03*
X185425000Y-123137500D03*
X185425000Y-128862500D03*
X186075000Y-128862500D03*
X186725000Y-128862500D03*
X187375000Y-128862500D03*
X188025000Y-128862500D03*
X188675000Y-128862500D03*
X189325000Y-128862500D03*
X189975000Y-128862500D03*
X190625000Y-128862500D03*
X191275000Y-128862500D03*
X191925000Y-128862500D03*
X192575000Y-128862500D03*
%TD*%
D29*
%TO.C,C4*%
X260100000Y-80775000D03*
X260100000Y-79225000D03*
%TD*%
D30*
%TO.C,J3*%
X248968000Y-135762000D03*
X248968000Y-170238000D03*
D31*
X247914000Y-168600000D03*
X254086000Y-168600000D03*
X247914000Y-167800000D03*
X254086000Y-167800000D03*
X247914000Y-167000000D03*
X254086000Y-167000000D03*
X247914000Y-166200000D03*
X254086000Y-166200000D03*
X247914000Y-165400000D03*
X254086000Y-165400000D03*
X247914000Y-164600000D03*
X254086000Y-164600000D03*
X247914000Y-163800000D03*
X254086000Y-163800000D03*
X247914000Y-163000000D03*
X254086000Y-163000000D03*
X247914000Y-162200000D03*
X254086000Y-162200000D03*
X247914000Y-161400000D03*
X254086000Y-161400000D03*
X247914000Y-160600000D03*
X254086000Y-160600000D03*
X247914000Y-159800000D03*
X254086000Y-159800000D03*
X247914000Y-159000000D03*
X254086000Y-159000000D03*
X247914000Y-158200000D03*
X254086000Y-158200000D03*
X247914000Y-157400000D03*
X254086000Y-157400000D03*
X247914000Y-156600000D03*
X254086000Y-156600000D03*
X247914000Y-155800000D03*
X254086000Y-155800000D03*
X247914000Y-155000000D03*
X254086000Y-155000000D03*
X247914000Y-154200000D03*
X254086000Y-154200000D03*
X247914000Y-153400000D03*
X254086000Y-153400000D03*
X247914000Y-152600000D03*
X254086000Y-152600000D03*
X247914000Y-151800000D03*
X254086000Y-151800000D03*
X247914000Y-151000000D03*
X254086000Y-151000000D03*
X247914000Y-150200000D03*
X254086000Y-150200000D03*
X247914000Y-149400000D03*
X254086000Y-149400000D03*
X247914000Y-148600000D03*
X254086000Y-148600000D03*
X247914000Y-147800000D03*
X254086000Y-147800000D03*
X247914000Y-147000000D03*
X254086000Y-147000000D03*
X247914000Y-146200000D03*
X254086000Y-146200000D03*
X247914000Y-145400000D03*
X254086000Y-145400000D03*
X247914000Y-144600000D03*
X254086000Y-144600000D03*
X247914000Y-143800000D03*
X254086000Y-143800000D03*
X247914000Y-143000000D03*
X254086000Y-143000000D03*
X247914000Y-142200000D03*
X254086000Y-142200000D03*
X247914000Y-141400000D03*
X254086000Y-141400000D03*
X247914000Y-140600000D03*
X254086000Y-140600000D03*
X247914000Y-139800000D03*
X254086000Y-139800000D03*
X247914000Y-139000000D03*
X254086000Y-139000000D03*
X247914000Y-138200000D03*
X254086000Y-138200000D03*
X247914000Y-137400000D03*
X254086000Y-137400000D03*
%TD*%
D20*
%TO.C,RN3*%
X223000000Y-161460000D03*
X220000000Y-161460000D03*
X223000000Y-162730000D03*
X220000000Y-162730000D03*
X223000000Y-164000000D03*
X220000000Y-164000000D03*
X223000000Y-165270000D03*
X220000000Y-165270000D03*
X223000000Y-166540000D03*
X220000000Y-166540000D03*
%TD*%
D18*
%TO.C,U1*%
X192975000Y-186937500D03*
X192325000Y-186937500D03*
X191675000Y-186937500D03*
X191025000Y-186937500D03*
X190375000Y-186937500D03*
X189725000Y-186937500D03*
X189075000Y-186937500D03*
X188425000Y-186937500D03*
X187775000Y-186937500D03*
X187125000Y-186937500D03*
X186475000Y-186937500D03*
X185825000Y-186937500D03*
X185825000Y-192662500D03*
X186475000Y-192662500D03*
X187125000Y-192662500D03*
X187775000Y-192662500D03*
X188425000Y-192662500D03*
X189075000Y-192662500D03*
X189725000Y-192662500D03*
X190375000Y-192662500D03*
X191025000Y-192662500D03*
X191675000Y-192662500D03*
X192325000Y-192662500D03*
X192975000Y-192662500D03*
%TD*%
D32*
%TO.C,C25*%
X232325000Y-112900000D03*
X233875000Y-112900000D03*
%TD*%
D19*
%TO.C,R15*%
X271500000Y-74990000D03*
X271500000Y-76010000D03*
%TD*%
D33*
%TO.C,FB1*%
X221287500Y-101300000D03*
X219712500Y-101300000D03*
%TD*%
D34*
%TO.C,C17*%
X224550000Y-82000000D03*
X223000000Y-82000000D03*
%TD*%
D20*
%TO.C,RN15*%
X262500000Y-152460000D03*
X259500000Y-152460000D03*
X262500000Y-153730000D03*
X259500000Y-153730000D03*
X262500000Y-155000000D03*
X259500000Y-155000000D03*
X262500000Y-156270000D03*
X259500000Y-156270000D03*
X262500000Y-157540000D03*
X259500000Y-157540000D03*
%TD*%
%TO.C,RN7*%
X223000000Y-152460000D03*
X220000000Y-152460000D03*
X223000000Y-153730000D03*
X220000000Y-153730000D03*
X223000000Y-155000000D03*
X220000000Y-155000000D03*
X223000000Y-156270000D03*
X220000000Y-156270000D03*
X223000000Y-157540000D03*
X220000000Y-157540000D03*
%TD*%
D35*
%TO.C,U13*%
X232410000Y-92670000D03*
X232410000Y-94770000D03*
X230760000Y-94770000D03*
X230760000Y-92670000D03*
%TD*%
D22*
%TO.C,R8*%
X199090000Y-177600000D03*
X200110000Y-177600000D03*
%TD*%
D27*
%TO.C,U8*%
X269625000Y-176862500D03*
X270275000Y-176862500D03*
X270925000Y-176862500D03*
X271575000Y-176862500D03*
X272225000Y-176862500D03*
X272875000Y-176862500D03*
X273525000Y-176862500D03*
X274175000Y-176862500D03*
X274825000Y-176862500D03*
X275475000Y-176862500D03*
X276125000Y-176862500D03*
X276775000Y-176862500D03*
X276775000Y-171137500D03*
X276125000Y-171137500D03*
X275475000Y-171137500D03*
X274825000Y-171137500D03*
X274175000Y-171137500D03*
X273525000Y-171137500D03*
X272875000Y-171137500D03*
X272225000Y-171137500D03*
X271575000Y-171137500D03*
X270925000Y-171137500D03*
X270275000Y-171137500D03*
X269625000Y-171137500D03*
%TD*%
D33*
%TO.C,D2*%
X242887500Y-109300000D03*
X241312500Y-109300000D03*
%TD*%
D19*
%TO.C,R12*%
X234100000Y-94890000D03*
X234100000Y-95910000D03*
%TD*%
D20*
%TO.C,RN2*%
X202500000Y-143460000D03*
X199500000Y-143460000D03*
X202500000Y-144730000D03*
X199500000Y-144730000D03*
X202500000Y-146000000D03*
X199500000Y-146000000D03*
X202500000Y-147270000D03*
X199500000Y-147270000D03*
X202500000Y-148540000D03*
X199500000Y-148540000D03*
%TD*%
D22*
%TO.C,R20*%
X276490000Y-97900000D03*
X277510000Y-97900000D03*
%TD*%
D20*
%TO.C,RN1*%
X202500000Y-161460000D03*
X199500000Y-161460000D03*
X202500000Y-162730000D03*
X199500000Y-162730000D03*
X202500000Y-164000000D03*
X199500000Y-164000000D03*
X202500000Y-165270000D03*
X199500000Y-165270000D03*
X202500000Y-166540000D03*
X199500000Y-166540000D03*
%TD*%
%TO.C,RN12*%
X262500000Y-143460000D03*
X259500000Y-143460000D03*
X262500000Y-144730000D03*
X259500000Y-144730000D03*
X262500000Y-146000000D03*
X259500000Y-146000000D03*
X262500000Y-147270000D03*
X259500000Y-147270000D03*
X262500000Y-148540000D03*
X259500000Y-148540000D03*
%TD*%
D16*
%TO.C,C13*%
X193900000Y-177480000D03*
X193900000Y-176520000D03*
%TD*%
D22*
%TO.C,R16*%
X201090000Y-176100000D03*
X202110000Y-176100000D03*
%TD*%
%TO.C,R18*%
X201090000Y-174700000D03*
X202110000Y-174700000D03*
%TD*%
D20*
%TO.C,RN5*%
X202500000Y-152460000D03*
X199500000Y-152460000D03*
X202500000Y-153730000D03*
X199500000Y-153730000D03*
X202500000Y-155000000D03*
X199500000Y-155000000D03*
X202500000Y-156270000D03*
X199500000Y-156270000D03*
X202500000Y-157540000D03*
X199500000Y-157540000D03*
%TD*%
D22*
%TO.C,R4*%
X199090000Y-172700000D03*
X200110000Y-172700000D03*
%TD*%
D29*
%TO.C,C14*%
X243800000Y-72175000D03*
X243800000Y-70625000D03*
%TD*%
D32*
%TO.C,C18*%
X236725000Y-84800000D03*
X238275000Y-84800000D03*
%TD*%
D18*
%TO.C,U11*%
X192675000Y-171237500D03*
X192025000Y-171237500D03*
X191375000Y-171237500D03*
X190725000Y-171237500D03*
X190075000Y-171237500D03*
X189425000Y-171237500D03*
X188775000Y-171237500D03*
X188125000Y-171237500D03*
X187475000Y-171237500D03*
X186825000Y-171237500D03*
X186175000Y-171237500D03*
X185525000Y-171237500D03*
X185525000Y-176962500D03*
X186175000Y-176962500D03*
X186825000Y-176962500D03*
X187475000Y-176962500D03*
X188125000Y-176962500D03*
X188775000Y-176962500D03*
X189425000Y-176962500D03*
X190075000Y-176962500D03*
X190725000Y-176962500D03*
X191375000Y-176962500D03*
X192025000Y-176962500D03*
X192675000Y-176962500D03*
%TD*%
D22*
%TO.C,R3*%
X199090000Y-173700000D03*
X200110000Y-173700000D03*
%TD*%
D25*
%TO.C,R22*%
X250210000Y-174200000D03*
X249190000Y-174200000D03*
%TD*%
D22*
%TO.C,R6*%
X199090000Y-170700000D03*
X200110000Y-170700000D03*
%TD*%
%TO.C,R14*%
X199090000Y-176100000D03*
X200110000Y-176100000D03*
%TD*%
D18*
%TO.C,U2*%
X192575000Y-155837500D03*
X191925000Y-155837500D03*
X191275000Y-155837500D03*
X190625000Y-155837500D03*
X189975000Y-155837500D03*
X189325000Y-155837500D03*
X188675000Y-155837500D03*
X188025000Y-155837500D03*
X187375000Y-155837500D03*
X186725000Y-155837500D03*
X186075000Y-155837500D03*
X185425000Y-155837500D03*
X185425000Y-161562500D03*
X186075000Y-161562500D03*
X186725000Y-161562500D03*
X187375000Y-161562500D03*
X188025000Y-161562500D03*
X188675000Y-161562500D03*
X189325000Y-161562500D03*
X189975000Y-161562500D03*
X190625000Y-161562500D03*
X191275000Y-161562500D03*
X191925000Y-161562500D03*
X192575000Y-161562500D03*
%TD*%
D36*
%TO.C,U3*%
X262645000Y-81145000D03*
D37*
X264925000Y-74845000D03*
D36*
X267205000Y-81145000D03*
%TD*%
D20*
%TO.C,RN10*%
X242000000Y-143460000D03*
X239000000Y-143460000D03*
X242000000Y-144730000D03*
X239000000Y-144730000D03*
X242000000Y-146000000D03*
X239000000Y-146000000D03*
X242000000Y-147270000D03*
X239000000Y-147270000D03*
X242000000Y-148540000D03*
X239000000Y-148540000D03*
%TD*%
D38*
%TO.C,C23*%
X228600000Y-92725000D03*
X228600000Y-94275000D03*
%TD*%
D30*
%TO.C,J1*%
X208968000Y-135762000D03*
X208968000Y-170238000D03*
D31*
X207914000Y-168600000D03*
X214086000Y-168600000D03*
X207914000Y-167800000D03*
X214086000Y-167800000D03*
X207914000Y-167000000D03*
X214086000Y-167000000D03*
X207914000Y-166200000D03*
X214086000Y-166200000D03*
X207914000Y-165400000D03*
X214086000Y-165400000D03*
X207914000Y-164600000D03*
X214086000Y-164600000D03*
X207914000Y-163800000D03*
X214086000Y-163800000D03*
X207914000Y-163000000D03*
X214086000Y-163000000D03*
X207914000Y-162200000D03*
X214086000Y-162200000D03*
X207914000Y-161400000D03*
X214086000Y-161400000D03*
X207914000Y-160600000D03*
X214086000Y-160600000D03*
X207914000Y-159800000D03*
X214086000Y-159800000D03*
X207914000Y-159000000D03*
X214086000Y-159000000D03*
X207914000Y-158200000D03*
X214086000Y-158200000D03*
X207914000Y-157400000D03*
X214086000Y-157400000D03*
X207914000Y-156600000D03*
X214086000Y-156600000D03*
X207914000Y-155800000D03*
X214086000Y-155800000D03*
X207914000Y-155000000D03*
X214086000Y-155000000D03*
X207914000Y-154200000D03*
X214086000Y-154200000D03*
X207914000Y-153400000D03*
X214086000Y-153400000D03*
X207914000Y-152600000D03*
X214086000Y-152600000D03*
X207914000Y-151800000D03*
X214086000Y-151800000D03*
X207914000Y-151000000D03*
X214086000Y-151000000D03*
X207914000Y-150200000D03*
X214086000Y-150200000D03*
X207914000Y-149400000D03*
X214086000Y-149400000D03*
X207914000Y-148600000D03*
X214086000Y-148600000D03*
X207914000Y-147800000D03*
X214086000Y-147800000D03*
X207914000Y-147000000D03*
X214086000Y-147000000D03*
X207914000Y-146200000D03*
X214086000Y-146200000D03*
X207914000Y-145400000D03*
X214086000Y-145400000D03*
X207914000Y-144600000D03*
X214086000Y-144600000D03*
X207914000Y-143800000D03*
X214086000Y-143800000D03*
X207914000Y-143000000D03*
X214086000Y-143000000D03*
X207914000Y-142200000D03*
X214086000Y-142200000D03*
X207914000Y-141400000D03*
X214086000Y-141400000D03*
X207914000Y-140600000D03*
X214086000Y-140600000D03*
X207914000Y-139800000D03*
X214086000Y-139800000D03*
X207914000Y-139000000D03*
X214086000Y-139000000D03*
X207914000Y-138200000D03*
X214086000Y-138200000D03*
X207914000Y-137400000D03*
X214086000Y-137400000D03*
%TD*%
D20*
%TO.C,RN8*%
X223000000Y-134460000D03*
X220000000Y-134460000D03*
X223000000Y-135730000D03*
X220000000Y-135730000D03*
X223000000Y-137000000D03*
X220000000Y-137000000D03*
X223000000Y-138270000D03*
X220000000Y-138270000D03*
X223000000Y-139540000D03*
X220000000Y-139540000D03*
%TD*%
D27*
%TO.C,U9*%
X269425000Y-145862500D03*
X270075000Y-145862500D03*
X270725000Y-145862500D03*
X271375000Y-145862500D03*
X272025000Y-145862500D03*
X272675000Y-145862500D03*
X273325000Y-145862500D03*
X273975000Y-145862500D03*
X274625000Y-145862500D03*
X275275000Y-145862500D03*
X275925000Y-145862500D03*
X276575000Y-145862500D03*
X276575000Y-140137500D03*
X275925000Y-140137500D03*
X275275000Y-140137500D03*
X274625000Y-140137500D03*
X273975000Y-140137500D03*
X273325000Y-140137500D03*
X272675000Y-140137500D03*
X272025000Y-140137500D03*
X271375000Y-140137500D03*
X270725000Y-140137500D03*
X270075000Y-140137500D03*
X269425000Y-140137500D03*
%TD*%
D39*
%TO.C,D5*%
X235900000Y-95687500D03*
X235900000Y-94112500D03*
%TD*%
D40*
%TO.C,U12*%
X234515000Y-87225000D03*
X234515000Y-86575000D03*
X234515000Y-85925000D03*
X234515000Y-85275000D03*
X234515000Y-84625000D03*
X234515000Y-83975000D03*
X234515000Y-83325000D03*
X234515000Y-82675000D03*
X234515000Y-82025000D03*
X234515000Y-81375000D03*
X234515000Y-80725000D03*
X234515000Y-80075000D03*
X234515000Y-79425000D03*
X234515000Y-78775000D03*
X227315000Y-78775000D03*
X227315000Y-79425000D03*
X227315000Y-80075000D03*
X227315000Y-80725000D03*
X227315000Y-81375000D03*
X227315000Y-82025000D03*
X227315000Y-82675000D03*
X227315000Y-83325000D03*
X227315000Y-83975000D03*
X227315000Y-84625000D03*
X227315000Y-85275000D03*
X227315000Y-85925000D03*
X227315000Y-86575000D03*
X227315000Y-87225000D03*
%TD*%
D17*
%TO.C,D6*%
X271500000Y-71212500D03*
X271500000Y-72787500D03*
%TD*%
D25*
%TO.C,R9*%
X239710000Y-109000000D03*
X238690000Y-109000000D03*
%TD*%
%TO.C,R21*%
X250210000Y-173200000D03*
X249190000Y-173200000D03*
%TD*%
D34*
%TO.C,C24*%
X221275000Y-102800000D03*
X219725000Y-102800000D03*
%TD*%
D29*
%TO.C,C8*%
X222700000Y-106875000D03*
X222700000Y-105325000D03*
%TD*%
D34*
%TO.C,C20*%
X230050000Y-75500000D03*
X228500000Y-75500000D03*
%TD*%
D28*
%TO.C,C9*%
X268200000Y-156020000D03*
X268200000Y-156980000D03*
%TD*%
D27*
%TO.C,U10*%
X269425000Y-128862500D03*
X270075000Y-128862500D03*
X270725000Y-128862500D03*
X271375000Y-128862500D03*
X272025000Y-128862500D03*
X272675000Y-128862500D03*
X273325000Y-128862500D03*
X273975000Y-128862500D03*
X274625000Y-128862500D03*
X275275000Y-128862500D03*
X275925000Y-128862500D03*
X276575000Y-128862500D03*
X276575000Y-123137500D03*
X275925000Y-123137500D03*
X275275000Y-123137500D03*
X274625000Y-123137500D03*
X273975000Y-123137500D03*
X273325000Y-123137500D03*
X272675000Y-123137500D03*
X272025000Y-123137500D03*
X271375000Y-123137500D03*
X270725000Y-123137500D03*
X270075000Y-123137500D03*
X269425000Y-123137500D03*
%TD*%
D41*
%TO.C,C3*%
X256500000Y-81475000D03*
X256500000Y-78525000D03*
%TD*%
D26*
%TO.C,H1*%
X303000000Y-68000000D03*
%TD*%
D25*
%TO.C,R10*%
X239710000Y-107500000D03*
X238690000Y-107500000D03*
%TD*%
D42*
%TO.C,J2*%
X231400000Y-68200000D03*
X235800000Y-68200000D03*
D43*
X235200000Y-70900000D03*
X234400000Y-70900000D03*
X233600000Y-70900000D03*
X232800000Y-70900000D03*
X232000000Y-70900000D03*
D44*
X229150000Y-70800000D03*
X238050000Y-70800000D03*
X238050000Y-65350000D03*
X229150000Y-65350000D03*
%TD*%
D20*
%TO.C,RN13*%
X242000000Y-152460000D03*
X239000000Y-152460000D03*
X242000000Y-153730000D03*
X239000000Y-153730000D03*
X242000000Y-155000000D03*
X239000000Y-155000000D03*
X242000000Y-156270000D03*
X239000000Y-156270000D03*
X242000000Y-157540000D03*
X239000000Y-157540000D03*
%TD*%
D33*
%TO.C,D3*%
X242900000Y-107600000D03*
X241325000Y-107600000D03*
%TD*%
D22*
%TO.C,R13*%
X201090000Y-177600000D03*
X202110000Y-177600000D03*
%TD*%
D41*
%TO.C,C5*%
X271530000Y-81475000D03*
X271530000Y-78525000D03*
%TD*%
D16*
%TO.C,C7*%
X193800000Y-145780000D03*
X193800000Y-144820000D03*
%TD*%
D20*
%TO.C,RN6*%
X202500000Y-134460000D03*
X199500000Y-134460000D03*
X202500000Y-135730000D03*
X199500000Y-135730000D03*
X202500000Y-137000000D03*
X199500000Y-137000000D03*
X202500000Y-138270000D03*
X199500000Y-138270000D03*
X202500000Y-139540000D03*
X199500000Y-139540000D03*
%TD*%
D16*
%TO.C,C2*%
X194100000Y-161660000D03*
X194100000Y-160700000D03*
%TD*%
D26*
%TO.C,H4*%
X303000000Y-208000000D03*
%TD*%
D34*
%TO.C,C22*%
X225720000Y-65350000D03*
X224170000Y-65350000D03*
%TD*%
D45*
%TO.C,TP1*%
X251200000Y-80400000D03*
%TD*%
D20*
%TO.C,RN4*%
X220000000Y-148540000D03*
X223000000Y-148540000D03*
X220000000Y-147270000D03*
X223000000Y-147270000D03*
X220000000Y-146000000D03*
X223000000Y-146000000D03*
X220000000Y-144730000D03*
X223000000Y-144730000D03*
X220000000Y-143460000D03*
X223000000Y-143460000D03*
%TD*%
%TO.C,RN9*%
X242000000Y-161460000D03*
X239000000Y-161460000D03*
X242000000Y-162730000D03*
X239000000Y-162730000D03*
X242000000Y-164000000D03*
X239000000Y-164000000D03*
X242000000Y-165270000D03*
X239000000Y-165270000D03*
X242000000Y-166540000D03*
X239000000Y-166540000D03*
%TD*%
D28*
%TO.C,C12*%
X268100000Y-123020000D03*
X268100000Y-123980000D03*
%TD*%
%TO.C,C11*%
X268100000Y-139920000D03*
X268100000Y-140880000D03*
%TD*%
D46*
%TO.C,C16*%
X224450000Y-84000000D03*
X222550000Y-84000000D03*
%TD*%
D32*
%TO.C,C21*%
X232000000Y-75500000D03*
X233550000Y-75500000D03*
%TD*%
D26*
%TO.C,H2*%
X163000000Y-208000000D03*
%TD*%
D25*
%TO.C,R23*%
X250210000Y-175200000D03*
X249190000Y-175200000D03*
%TD*%
D45*
%TO.C,TP2*%
X276400000Y-80900000D03*
%TD*%
D20*
%TO.C,RN14*%
X242000000Y-134460000D03*
X239000000Y-134460000D03*
X242000000Y-135730000D03*
X239000000Y-135730000D03*
X242000000Y-137000000D03*
X239000000Y-137000000D03*
X242000000Y-138270000D03*
X239000000Y-138270000D03*
X242000000Y-139540000D03*
X239000000Y-139540000D03*
%TD*%
D19*
%TO.C,R7*%
X256500000Y-74990000D03*
X256500000Y-76010000D03*
%TD*%
D34*
%TO.C,C19*%
X224550000Y-80000000D03*
X223000000Y-80000000D03*
%TD*%
D16*
%TO.C,C1*%
X194200000Y-192880000D03*
X194200000Y-191920000D03*
%TD*%
M02*
